<svg xmlns="http://www.w3.org/2000/svg" xmlns:xlink="http://www.w3.org/1999/xlink" width="838" height="457" viewBox="0 0 838 457">
  <defs>
    <clipPath id="clip-path">
      <rect id="Rectangle_109" data-name="Rectangle 109" width="422.807" height="210.585" fill="none"/>
    </clipPath>
    <clipPath id="clip-path-2">
      <rect id="Rectangle_110" data-name="Rectangle 110" width="501.824" height="283.244" fill="none"/>
    </clipPath>
    <clipPath id="clip-Shape">
      <rect width="838" height="457"/>
    </clipPath>
  </defs>
  <g id="Shape" clip-path="url(#clip-Shape)">
    <rect width="838" height="457" fill="#222"/>
    <g id="Group_697" data-name="Group 697" transform="translate(-96.582 -70.387)">
      <g id="Group_381" data-name="Group 381" transform="translate(-452.418 -279.613)">
        <g id="Group_380" data-name="Group 380">
          <g id="Group_378" data-name="Group 378" transform="translate(0 0.152)">
            <path id="Path_883" data-name="Path 883" d="M12.606,4.724V1.182H.22V4.724H2.464V3.118H5.082V15.064H3.52V17H9.306V15.064H7.722V3.118h2.64V4.724Zm5.852,10.34H17.116V8.42A8.589,8.589,0,0,1,20,7.1c.924,0,1.034.9,1.034,2.222V17h3.96V15.064H23.54V9.322c0-2.222-.132-4.18-2.574-4.18-1.21,0-2.926,1.188-3.85,1.8V.61H13.332V2.546h1.276V15.064H13.244V17h5.214Zm16.17-.44A11.156,11.156,0,0,1,31,15.24c-1.914,0-2.4-1.166-2.4-2.6v-.462c5.236-.066,6.358-1.078,6.358-2.222V8.42c0-1.76-.55-3.278-3.7-3.278-3.718,0-5.17.484-5.17,4.664v2.552c0,3.19,1.3,4.862,4.906,4.862a13.326,13.326,0,0,0,4.092-.792ZM32.6,9.718c0,.66-1.21,1.056-4,1.188V9.146c0-1.98,1.122-2.178,2.926-2.178.968,0,1.078.77,1.078,1.65ZM47.19,15.064H45.628V11.016h2.948c3.806,0,5.654-.88,5.654-4.928,0-4.026-1.848-4.906-5.654-4.906H41.4V3.118h1.584V15.064H41.4V17H47.19ZM45.628,9.08V3.118h2.948c2.31,0,2.9.572,2.9,2.97,0,2.42-.594,2.992-2.9,2.992Zm19.1-.572c0-2.4-1.474-3.366-4.6-3.366S55.55,6.11,55.55,8.508v5.346c0,2.4,1.452,3.366,4.576,3.366s4.6-.968,4.6-3.366Zm-2.486,5.324c0,.946-.55,1.562-2.112,1.562-1.54,0-2.09-.616-2.09-1.562V8.53c0-1.012.55-1.562,2.09-1.562,1.562,0,2.112.55,2.112,1.562ZM76.23,9.322c0-2.222-.132-4.18-2.574-4.18-1.166,0-2.838,1.1-3.806,1.782V5.362H66.066V7.3h1.276V19.816H65.978v1.936h5.874V19.816h-2V15.944a10.391,10.391,0,0,0,3.806,1.276c2.442,0,2.574-1.958,2.574-4.18Zm-2.508,3.85c0,1.32-.11,2.222-1.034,2.222a9.515,9.515,0,0,1-2.838-.9V8.4a7.218,7.218,0,0,1,2.838-1.3c.924,0,1.034.836,1.034,2.09ZM78.65,7.3V13.04c0,2.222.132,4.18,2.574,4.18a10.5,10.5,0,0,0,3.85-1.3V17h3.784V15.064H87.582v-9.7H83.8V7.3h1.276v7.3a11.547,11.547,0,0,1-2.882.792c-.924,0-1.034-.9-1.034-2.222V5.362H77.374V7.3Zm16.258,7.766H93.522V.61H89.716V2.546h1.276V15.064h-1.32V17h5.236Zm11.374,0h-1.364v-5.7c0-2.64-1.166-4.224-4.246-4.224a13.4,13.4,0,0,0-3.938.638V8.794h2.09V7.32a7.676,7.676,0,0,1,1.738-.22c1.276,0,1.87.638,1.87,2.244v1.628a8.732,8.732,0,0,0-4.224-.88c-2.068.308-2.354,1.782-2.354,3.52s.286,3.234,2.354,3.542a3.751,3.751,0,0,0,.99.022,8.675,8.675,0,0,0,3.234-1.188V17h3.85ZM99.748,11.5a8.319,8.319,0,0,1,2.684.726v2.618a7.3,7.3,0,0,1-2.684.858c-1.122,0-1.386-.88-1.386-2.09C98.362,12.424,98.626,11.5,99.748,11.5Zm13.244,3.168a5.733,5.733,0,0,1-1.87.484c-.506,0-.748-.264-.748-.9V7.342h2.574V5.362h-2.574V2.832h-2.508v2.53h-1.474v1.98h1.474v6.952c0,2.134,1.166,2.926,2.772,2.926a9.035,9.035,0,0,0,2.926-.66Zm6.2.4h-1.342v-9.7h-3.806V7.3h1.32v7.766h-1.386V17H119.2Zm-1.342-11.55V.61h-2.486v2.9Zm11.66,4.994c0-2.4-1.474-3.366-4.6-3.366s-4.576.968-4.576,3.366v5.346c0,2.4,1.452,3.366,4.576,3.366s4.6-.968,4.6-3.366Zm-2.486,5.324c0,.946-.55,1.562-2.112,1.562-1.54,0-2.09-.616-2.09-1.562V8.53c0-1.012.55-1.562,2.09-1.562,1.562,0,2.112.55,2.112,1.562ZM142.6,15.064H141.24V9.322c0-2.222-.132-4.18-2.574-4.18-1.21,0-2.926,1.188-3.85,1.8V5.362h-3.784V7.3h1.276v7.766h-1.364V17h5.214V15.064h-1.342V8.42A8.59,8.59,0,0,1,137.7,7.1c.924,0,1.034.9,1.034,2.222V17H142.6Zm15.488-6.556c0-2.4-1.474-3.366-4.6-3.366s-4.576.968-4.576,3.366v5.346c0,2.4,1.452,3.366,4.576,3.366s4.6-.968,4.6-3.366Zm-2.486,5.324c0,.946-.55,1.562-2.112,1.562-1.54,0-2.09-.616-2.09-1.562V8.53c0-1.012.55-1.562,2.09-1.562,1.562,0,2.112.55,2.112,1.562Zm9.35,1.232h-1.54V7.3h2.156V5.362h-2.156V4.68c0-1.364.11-2.332,1.342-2.332a8.379,8.379,0,0,1,1.584.286l.528-1.65a6.209,6.209,0,0,0-1.518-.4c-3.058-.44-4.444.682-4.444,4.092v.682h-1.386V7.3h1.386v7.766h-1.386V17h5.434Zm12.584,0h-1.562v-5.9L181.9,17H185.5V15.064h-1.958l-5.06-6.4,4.62-5.544h2.024V1.182h-3.608L175.978,8.2V3.118h1.562V1.182h-5.786V3.118h1.584V15.064h-1.584V17h5.786Zm17.072-.44a11.157,11.157,0,0,1-3.63.616c-1.914,0-2.4-1.166-2.4-2.6v-.462c5.236-.066,6.358-1.078,6.358-2.222V8.42c0-1.76-.55-3.278-3.7-3.278-3.718,0-5.17.484-5.17,4.664v2.552c0,3.19,1.3,4.862,4.906,4.862a13.325,13.325,0,0,0,4.092-.792Zm-2.024-4.906c0,.66-1.21,1.056-4,1.188V9.146c0-1.98,1.122-2.178,2.926-2.178.968,0,1.078.77,1.078,1.65Zm20.878,5.346H212.1V9.322c0-2.222-.132-4.18-2.574-4.18-1.078,0-2.64,1.144-3.586,1.826a2.157,2.157,0,0,0-2.376-1.826c-1.056,0-2.574,1.188-3.388,1.8V5.362h-3.894V7.3h1.386v7.766h-1.386V17H201.5V15.064h-1.32V8.42c.506-.352,1.76-1.32,2.42-1.32.946,0,1.034.9,1.034,2.222V17H207.5V15.064H206.14V9.322c0-.308,0-.638-.022-.946A6.954,6.954,0,0,1,208.582,7.1c.924,0,1.034.9,1.034,2.222V17h3.85Zm9.636-.44a11.157,11.157,0,0,1-3.63.616c-1.914,0-2.4-1.166-2.4-2.6v-.462c5.236-.066,6.358-1.078,6.358-2.222V8.42c0-1.76-.55-3.278-3.7-3.278-3.718,0-5.17.484-5.17,4.664v2.552c0,3.19,1.3,4.862,4.906,4.862a13.325,13.325,0,0,0,4.092-.792Zm-2.024-4.906c0,.66-1.21,1.056-4,1.188V9.146c0-1.98,1.122-2.178,2.926-2.178.968,0,1.078.77,1.078,1.65Zm8.91,5.346h-1.342V8.552c.462-.374,1.606-1.452,2.178-1.452.506,0,.594.374.638.946V8.86h2.09V8.046c0-2.112-.2-2.9-1.76-2.9-.968,0-2.376,1.276-3.146,1.936V5.406h-3.784V7.342h1.276v7.722h-1.364V17h5.214ZM243.98,8.508c0-2.4-1.474-3.366-4.6-3.366s-4.576.968-4.576,3.366v5.346c0,2.4,1.452,3.366,4.576,3.366s4.6-.968,4.6-3.366Zm-2.486,5.324c0,.946-.55,1.562-2.112,1.562-1.54,0-2.09-.616-2.09-1.562V8.53c0-1.012.55-1.562,2.09-1.562,1.562,0,2.112.55,2.112,1.562Zm8.25-8.47H244.9V7.3h1.364l3.146,9.79h2.222l3.256-9.79h1.386V5.362H251.46V7.3h.88l-1.76,6.82L248.82,7.3h.924Zm16.61,3.146c0-2.4-1.474-3.366-4.6-3.366s-4.576.968-4.576,3.366v5.346c0,2.4,1.452,3.366,4.576,3.366s4.6-.968,4.6-3.366Zm-2.486,5.324c0,.946-.55,1.562-2.112,1.562-1.54,0-2.09-.616-2.09-1.562V8.53c0-1.012.55-1.562,2.09-1.562,1.562,0,2.112.55,2.112,1.562Zm16.214,3.388c4.268,0,6.314-1.474,6.314-5.962V6.924c0-4.51-2.046-5.984-6.314-5.984H279.8c-4.312,0-6.314,1.474-6.314,5.984v4.334c0,4.488,2.046,5.962,6.314,5.962Zm3.586-5.962c0,2.75-.748,3.894-3.586,3.894H279.8c-2.838,0-3.586-1.144-3.586-3.894V6.924c0-2.75.682-3.894,3.586-3.894h.286c2.9,0,3.586,1.144,3.586,3.894ZM291.654.61H287.87V2.546h1.276V15.064H287.87V17h3.784V15.944a10.255,10.255,0,0,0,3.806,1.276c2.442,0,2.574-1.958,2.574-4.18V9.322c0-2.222-.132-4.18-2.574-4.18-1.166,0-2.838,1.1-3.806,1.782Zm3.872,8.58v3.982c0,1.32-.088,2.222-1.034,2.222a11.034,11.034,0,0,1-2.838-.77V8.4a7.361,7.361,0,0,1,2.838-1.3C295.438,7.1,295.526,7.936,295.526,9.19Zm9.086,5.874h-1.386V.61H299.42V2.546H300.7V15.064h-1.32V17h5.236Zm11.374,0h-1.364v-5.7c0-2.64-1.166-4.224-4.246-4.224a13.4,13.4,0,0,0-3.938.638V8.794h2.09V7.32a7.675,7.675,0,0,1,1.738-.22c1.276,0,1.87.638,1.87,2.244v1.628a8.733,8.733,0,0,0-4.224-.88c-2.068.308-2.354,1.782-2.354,3.52s.286,3.234,2.354,3.542a3.751,3.751,0,0,0,.99.022,8.676,8.676,0,0,0,3.234-1.188V17h3.85ZM309.452,11.5a8.319,8.319,0,0,1,2.684.726v2.618a7.3,7.3,0,0,1-2.684.858c-1.122,0-1.386-.88-1.386-2.09C308.066,12.424,308.33,11.5,309.452,11.5Zm15.84-2.706V5.758a12.494,12.494,0,0,0-3.938-.616c-1.694,0-4.4.352-4.4,3.5,0,4.312,6.226,2.794,6.226,5.17,0,1.166-.924,1.562-2.266,1.562a8.272,8.272,0,0,1-1.98-.242V13.48h-2.112v3.036a12.149,12.149,0,0,0,4.224.7c2.354,0,4.6-.506,4.6-3.674,0-4.268-6.226-2.772-6.226-5.17,0-.9.7-1.386,2.068-1.386a5.818,5.818,0,0,1,1.694.264v1.54Zm7.876,5.874a5.733,5.733,0,0,1-1.87.484c-.506,0-.748-.264-.748-.9V7.342h2.574V5.362H330.55V2.832h-2.508v2.53h-1.474v1.98h1.474v6.952c0,2.134,1.166,2.926,2.772,2.926a9.035,9.035,0,0,0,2.926-.66Zm11.88.4h-1.562V11.016h2.948c3.806,0,5.654-.88,5.654-4.928,0-4.026-1.848-4.906-5.654-4.906h-7.172V3.118h1.584V15.064h-1.584V17h5.786ZM343.486,9.08V3.118h2.948c2.31,0,2.9.572,2.9,2.97,0,2.42-.594,2.992-2.9,2.992ZM358.2,15.064h-1.342V8.552c.462-.374,1.606-1.452,2.178-1.452.506,0,.594.374.638.946V8.86h2.09V8.046c0-2.112-.2-2.9-1.76-2.9-.968,0-2.376,1.276-3.146,1.936V5.406h-3.784V7.342h1.276v7.722H352.99V17H358.2ZM372.2,8.508c0-2.4-1.474-3.366-4.6-3.366s-4.576.968-4.576,3.366v5.346c0,2.4,1.452,3.366,4.576,3.366s4.6-.968,4.6-3.366Zm-2.486,5.324c0,.946-.55,1.562-2.112,1.562-1.54,0-2.09-.616-2.09-1.562V8.53c0-1.012.55-1.562,2.09-1.562,1.562,0,2.112.55,2.112,1.562Zm8.25-8.47h-4.84V7.3h1.364l3.146,9.79h2.222l3.256-9.79h1.386V5.362h-4.818V7.3h.88l-1.76,6.82-1.76-6.82h.924Zm12.474,9.7h-1.342v-9.7h-3.806V7.3h1.32v7.766H385.22V17h5.214Zm-1.342-11.55V.61h-2.486v2.9Zm13.662,11.55H401.39V9.322c0-2.222-.132-4.18-2.574-4.18-1.21,0-2.926,1.188-3.85,1.8V5.362h-3.784V7.3h1.276v7.766h-1.364V17h5.214V15.064h-1.342V8.42a8.589,8.589,0,0,1,2.882-1.32c.924,0,1.034.9,1.034,2.222V17h3.872Zm9.218-6.248V5.78a9.712,9.712,0,0,0-3.212-.638c-3.608,0-4.906,1.738-4.906,4.862v2.354c0,3.124,1.3,4.862,4.906,4.862a14.591,14.591,0,0,0,3.41-.506l-.286-1.8a15.576,15.576,0,0,1-3.124.33c-1.914,0-2.4-1.144-2.4-2.6V9.718c0-1.452.484-2.6,2.4-2.6a8.927,8.927,0,0,1,1.122.088V8.816Zm10.252,5.808a11.156,11.156,0,0,1-3.63.616c-1.914,0-2.4-1.166-2.4-2.6v-.462c5.236-.066,6.358-1.078,6.358-2.222V8.42c0-1.76-.55-3.278-3.7-3.278-3.718,0-5.17.484-5.17,4.664v2.552c0,3.19,1.3,4.862,4.906,4.862a13.325,13.325,0,0,0,4.092-.792ZM420.2,9.718c0,.66-1.21,1.056-4,1.188V9.146c0-1.98,1.122-2.178,2.926-2.178.968,0,1.078.77,1.078,1.65Zm13.684-8.536H428.1V3.118H429.7l4.774,14.1h2.2l4.818-14.1h1.584V1.182h-5.786V3.118h1.452L435.6,13.744,432.432,3.118h1.452Zm20,4.2V1.842a10,10,0,0,0-4.312-.9c-2.42,0-5.456.748-5.456,4.2,0,5.126,7.7,4.576,7.7,7.656,0,1.826-1.43,2.42-3.256,2.42a9.213,9.213,0,0,1-2.4-.374V12.908h-2.222v3.564a14.116,14.116,0,0,0,4.862.748c2.882,0,5.654-1.122,5.654-4.51,0-5.1-7.7-4.576-7.7-7.678,0-1.43,1.188-2.09,3.058-2.09a4.8,4.8,0,0,1,1.848.4V5.384Z" transform="translate(566 369.848)" fill="#fff"/>
            <path id="Path_884" data-name="Path 884" d="M472.252,4.724V1.182H459.866V4.724h2.244V3.118h2.618V15.064h-1.562V17h5.786V15.064h-1.584V3.118h2.64V4.724Zm5.852,10.34h-1.342V8.42a8.589,8.589,0,0,1,2.882-1.32c.924,0,1.034.9,1.034,2.222V17h3.96V15.064h-1.452V9.322c0-2.222-.132-4.18-2.574-4.18-1.21,0-2.926,1.188-3.85,1.8V.61h-3.784V2.546h1.276V15.064H472.89V17H478.1Zm16.17-.44a11.156,11.156,0,0,1-3.63.616c-1.914,0-2.4-1.166-2.4-2.6v-.462c5.236-.066,6.358-1.078,6.358-2.222V8.42c0-1.76-.55-3.278-3.7-3.278-3.718,0-5.17.484-5.17,4.664v2.552c0,3.19,1.3,4.862,4.906,4.862a13.325,13.325,0,0,0,4.092-.792ZM492.25,9.718c0,.66-1.21,1.056-4,1.188V9.146c0-1.98,1.122-2.178,2.926-2.178.968,0,1.078.77,1.078,1.65ZM512.094,5.3V1.732A8,8,0,0,0,508.288.94h-.308c-4.356,0-6.446,1.474-6.446,5.984v4.334c0,4.488,2.09,5.962,6.446,5.962h.308a11.578,11.578,0,0,0,3.938-.7l-.506-2.09a9.984,9.984,0,0,1-3.432.682h-.308c-2.97,0-3.718-1.078-3.718-3.85V6.924c0-2.794.748-3.85,3.718-3.85h.308a7.075,7.075,0,0,1,1.562.176V5.3Zm10.318,3.212c0-2.4-1.474-3.366-4.6-3.366s-4.576.968-4.576,3.366v5.346c0,2.4,1.452,3.366,4.576,3.366s4.6-.968,4.6-3.366Zm-2.486,5.324c0,.946-.55,1.562-2.112,1.562-1.54,0-2.09-.616-2.09-1.562V8.53c0-1.012.55-1.562,2.09-1.562,1.562,0,2.112.55,2.112,1.562Zm14.7,1.232h-1.364v-5.7c0-2.64-1.166-4.224-4.246-4.224a13.4,13.4,0,0,0-3.938.638V8.794h2.09V7.32A7.676,7.676,0,0,1,528.9,7.1c1.276,0,1.87.638,1.87,2.244v1.628a8.732,8.732,0,0,0-4.224-.88c-2.068.308-2.354,1.782-2.354,3.52s.286,3.234,2.354,3.542a3.751,3.751,0,0,0,.99.022,8.675,8.675,0,0,0,3.234-1.188V17h3.85ZM528.088,11.5a8.319,8.319,0,0,1,2.684.726v2.618a7.3,7.3,0,0,1-2.684.858c-1.122,0-1.386-.88-1.386-2.09C526.7,12.424,526.966,11.5,528.088,11.5Zm12.452,3.564h-1.386V.61h-3.806V2.546h1.276V15.064H535.3V17h5.236Zm11.55,0h-1.562V11.016h2.948c3.806,0,5.654-.88,5.654-4.928,0-4.026-1.848-4.906-5.654-4.906H546.3V3.118h1.584V15.064H546.3V17h5.786ZM550.528,9.08V3.118h2.948c2.31,0,2.9.572,2.9,2.97,0,2.42-.594,2.992-2.9,2.992Zm14.718,5.984H563.9V8.552c.462-.374,1.606-1.452,2.178-1.452.506,0,.594.374.638.946V8.86h2.09V8.046c0-2.112-.2-2.9-1.76-2.9-.968,0-2.376,1.276-3.146,1.936V5.406H560.12V7.342H561.4v7.722h-1.364V17h5.214Zm13.992-6.556c0-2.4-1.474-3.366-4.6-3.366s-4.576.968-4.576,3.366v5.346c0,2.4,1.452,3.366,4.576,3.366s4.6-.968,4.6-3.366Zm-2.486,5.324c0,.946-.55,1.562-2.112,1.562-1.54,0-2.09-.616-2.09-1.562V8.53c0-1.012.55-1.562,2.09-1.562,1.562,0,2.112.55,2.112,1.562ZM590.37.61h-3.784V2.546h1.276V6.924c-.99-.682-2.64-1.782-3.806-1.782-2.442,0-2.574,1.958-2.574,4.18V13.04c0,2.222.132,4.18,2.574,4.18a10.529,10.529,0,0,0,3.806-1.276V17h3.784V15.064H590.37Zm-6.38,12.562V9.19c0-1.254.088-2.09,1.034-2.09a7.511,7.511,0,0,1,2.838,1.3v6.226a11.281,11.281,0,0,1-2.838.77C584.078,15.394,583.99,14.492,583.99,13.172ZM593.6,7.3V13.04c0,2.222.132,4.18,2.574,4.18a10.5,10.5,0,0,0,3.85-1.3V17h3.784V15.064h-1.276v-9.7h-3.784V7.3h1.276v7.3a11.547,11.547,0,0,1-2.882.792c-.924,0-1.034-.9-1.034-2.222V5.362h-3.784V7.3Zm19.6,1.518V5.78a9.711,9.711,0,0,0-3.212-.638c-3.608,0-4.906,1.738-4.906,4.862v2.354c0,3.124,1.3,4.862,4.906,4.862a14.591,14.591,0,0,0,3.41-.506l-.286-1.8a15.575,15.575,0,0,1-3.124.33c-1.914,0-2.4-1.144-2.4-2.6V9.718c0-1.452.484-2.6,2.4-2.6a8.929,8.929,0,0,1,1.122.088V8.816Zm7.788,5.852a5.733,5.733,0,0,1-1.87.484c-.506,0-.748-.264-.748-.9V7.342h2.574V5.362h-2.574V2.832h-2.508v2.53h-1.474v1.98h1.474v6.952c0,2.134,1.166,2.926,2.772,2.926a9.035,9.035,0,0,0,2.926-.66Zm6.2.4h-1.342v-9.7H622.05V7.3h1.32v7.766h-1.386V17H627.2Zm-1.342-11.55V.61H623.37v2.9Zm11.66,4.994c0-2.4-1.474-3.366-4.6-3.366s-4.576.968-4.576,3.366v5.346c0,2.4,1.452,3.366,4.576,3.366s4.6-.968,4.6-3.366Zm-2.486,5.324c0,.946-.55,1.562-2.112,1.562-1.54,0-2.09-.616-2.09-1.562V8.53c0-1.012.55-1.562,2.09-1.562,1.562,0,2.112.55,2.112,1.562Zm15.576,1.232h-1.364V9.322c0-2.222-.132-4.18-2.574-4.18-1.21,0-2.926,1.188-3.85,1.8V5.362h-3.784V7.3h1.276v7.766h-1.364V17h5.214V15.064h-1.342V8.42A8.589,8.589,0,0,1,645.7,7.1c.924,0,1.034.9,1.034,2.222V17h3.872Zm15.488-6.556c0-2.4-1.474-3.366-4.6-3.366s-4.576.968-4.576,3.366v5.346c0,2.4,1.452,3.366,4.576,3.366s4.6-.968,4.6-3.366Zm-2.486,5.324c0,.946-.55,1.562-2.112,1.562-1.54,0-2.09-.616-2.09-1.562V8.53c0-1.012.55-1.562,2.09-1.562,1.562,0,2.112.55,2.112,1.562Zm9.35,1.232h-1.54V7.3h2.156V5.362h-2.156V4.68c0-1.364.11-2.332,1.342-2.332a8.377,8.377,0,0,1,1.584.286l.528-1.65a6.208,6.208,0,0,0-1.518-.4c-3.058-.44-4.444.682-4.444,4.092v.682h-1.386V7.3h1.386v7.766h-1.386V17h5.434Zm12.584-.4a5.733,5.733,0,0,1-1.87.484c-.506,0-.748-.264-.748-.9V7.342H685.5V5.362h-2.574V2.832h-2.508v2.53h-1.474v1.98h1.474v6.952c0,2.134,1.166,2.926,2.772,2.926a9.035,9.035,0,0,0,2.926-.66Zm6.2.4H690.4V8.42a8.589,8.589,0,0,1,2.882-1.32c.924,0,1.034.9,1.034,2.222V17h3.96V15.064h-1.452V9.322c0-2.222-.132-4.18-2.574-4.18-1.21,0-2.926,1.188-3.85,1.8V.61H686.62V2.546H687.9V15.064h-1.364V17h5.214Zm16.17-.44a11.157,11.157,0,0,1-3.63.616c-1.914,0-2.4-1.166-2.4-2.6v-.462c5.236-.066,6.358-1.078,6.358-2.222V8.42c0-1.76-.55-3.278-3.7-3.278-3.718,0-5.17.484-5.17,4.664v2.552c0,3.19,1.3,4.862,4.906,4.862a13.325,13.325,0,0,0,4.092-.792Zm-2.024-4.906c0,.66-1.21,1.056-4,1.188V9.146c0-1.98,1.122-2.178,2.926-2.178.968,0,1.078.77,1.078,1.65ZM728.4,15.064h-1.782L724.5,10.8c2.024-.484,3.014-1.738,3.014-4.708,0-4.026-1.848-4.906-5.654-4.906h-7.172V3.118h1.584V15.064h-1.584V17h5.786V15.064h-1.562V11.016h2.948L724.746,17H728.4ZM718.916,9.08V3.118h2.948c2.31,0,2.9.572,2.9,2.97,0,2.42-.594,2.992-2.9,2.992Zm18.832,5.544a11.157,11.157,0,0,1-3.63.616c-1.914,0-2.4-1.166-2.4-2.6v-.462c5.236-.066,6.358-1.078,6.358-2.222V8.42c0-1.76-.55-3.278-3.7-3.278-3.718,0-5.17.484-5.17,4.664v2.552c0,3.19,1.3,4.862,4.906,4.862a13.325,13.325,0,0,0,4.092-.792Zm-2.024-4.906c0,.66-1.21,1.056-4,1.188V9.146c0-1.98,1.122-2.178,2.926-2.178.968,0,1.078.77,1.078,1.65Zm4.18-.4V13.04c0,2.222.132,4.18,2.574,4.18a10.529,10.529,0,0,0,3.806-1.276v1.672c0,1.628-.044,2.42-1.188,2.42a31.754,31.754,0,0,1-4.62-.924l-.506,1.8a29.629,29.629,0,0,0,5.654,1.1c1.364,0,3.168-.55,3.168-3.608V5.362h-2.508V6.924c-.99-.682-2.64-1.782-3.806-1.782C740.036,5.142,739.9,7.1,739.9,9.322Zm2.508,3.85V9.19c0-1.254.088-2.09,1.034-2.09a7.511,7.511,0,0,1,2.838,1.3v6.226a11.281,11.281,0,0,1-2.838.77C742.5,15.394,742.412,14.492,742.412,13.172Zm13.156,1.892h-1.342v-9.7H750.42V7.3h1.32v7.766h-1.386V17h5.214Zm-1.342-11.55V.61H751.74v2.9Zm11.66,4.994c0-2.4-1.474-3.366-4.6-3.366s-4.576.968-4.576,3.366v5.346c0,2.4,1.452,3.366,4.576,3.366s4.6-.968,4.6-3.366ZM763.4,13.832c0,.946-.55,1.562-2.112,1.562-1.54,0-2.09-.616-2.09-1.562V8.53c0-1.012.55-1.562,2.09-1.562,1.562,0,2.112.55,2.112,1.562Zm15.576,1.232h-1.364V9.322c0-2.222-.132-4.18-2.574-4.18-1.21,0-2.926,1.188-3.85,1.8V5.362H767.4V7.3h1.276v7.766h-1.364V17h5.214V15.064h-1.342V8.42A8.589,8.589,0,0,1,774.07,7.1c.924,0,1.034.9,1.034,2.222V17h3.872Z" transform="translate(566 369.584)" fill="#a78729"/>
            <g id="Group_299" data-name="Group 299" transform="translate(-136.11 -1901.082)">
              <g id="Group_298" data-name="Group 298" transform="translate(0 47.84)">
                <path id="Path_70" data-name="Path 70" d="M0,0V298.582" transform="translate(790.844 2257.229)" fill="none" stroke="#fff" stroke-width="2"/>
                <line id="Line_219" data-name="Line 219" y2="298.582" transform="translate(835.087 2257.229)" fill="none" stroke="#5d5d5d" stroke-width="1"/>
                <line id="Line_220" data-name="Line 220" y2="298.582" transform="translate(879.099 2257.229)" fill="none" stroke="#5d5d5d" stroke-width="1"/>
                <line id="Line_221" data-name="Line 221" y2="298.582" transform="translate(923.293 2257.229)" fill="none" stroke="#5d5d5d" stroke-width="1"/>
                <line id="Line_222" data-name="Line 222" y2="298.582" transform="translate(967.427 2257.229)" fill="none" stroke="#5d5d5d" stroke-width="1"/>
                <line id="Line_223" data-name="Line 223" y2="298.582" transform="translate(1011.5 2257.229)" fill="none" stroke="#5d5d5d" stroke-width="1"/>
                <line id="Line_224" data-name="Line 224" y2="298.582" transform="translate(1055.512 2257.229)" fill="none" stroke="#5d5d5d" stroke-width="1"/>
                <line id="Line_225" data-name="Line 225" y2="298.582" transform="translate(1099.706 2257.229)" fill="none" stroke="#5d5d5d" stroke-width="1"/>
                <line id="Line_226" data-name="Line 226" y2="298.582" transform="translate(1143.84 2257.229)" fill="none" stroke="#5d5d5d" stroke-width="1"/>
                <line id="Line_227" data-name="Line 227" y2="298.582" transform="translate(1187.913 2257.229)" fill="none" stroke="#5d5d5d" stroke-width="1"/>
                <line id="Line_228" data-name="Line 228" y2="298.582" transform="translate(1232.046 2257.229)" fill="none" stroke="#5d5d5d" stroke-width="1"/>
                <line id="Line_229" data-name="Line 229" y2="298.582" transform="translate(1276.119 2257.229)" fill="none" stroke="#5d5d5d" stroke-width="1"/>
                <line id="Line_230" data-name="Line 230" y2="298.582" transform="translate(1320.252 2257.229)" fill="none" stroke="#5d5d5d" stroke-width="1"/>
                <line id="Line_231" data-name="Line 231" y2="298.582" transform="translate(1364.325 2257.229)" fill="none" stroke="#5d5d5d" stroke-width="1"/>
                <line id="Line_232" data-name="Line 232" y2="298.582" transform="translate(1408.398 2257.229)" fill="none" stroke="#5d5d5d" stroke-width="1"/>
                <line id="Line_233" data-name="Line 233" y2="298.582" transform="translate(1452.532 2257.229)" fill="none" stroke="#a78729" stroke-width="2"/>
              </g>
              <g id="Group_292" data-name="Group 292" transform="translate(144.405)">
                <line id="Line_234" data-name="Line 234" x2="712.237" transform="translate(589.691 2368.859)" stroke="#fff" stroke-width="0.5"/>
                <line id="Line_234-2" data-name="Line 234" x2="712.237" transform="translate(589.691 2400.859)" stroke="#fff" stroke-width="0.5"/>
                <line id="Line_234-3" data-name="Line 234" x2="712.237" transform="translate(589.691 2432.859)" stroke="#fff" stroke-width="0.5"/>
                <line id="Line_234-4" data-name="Line 234" x2="712.237" transform="translate(589.691 2464.859)" stroke="#fff" stroke-width="0.5"/>
                <line id="Line_234-5" data-name="Line 234" x2="712.237" transform="translate(589.691 2496.859)" stroke="#fff" stroke-width="0.5"/>
                <line id="Line_234-6" data-name="Line 234" x2="712.237" transform="translate(589.691 2528.859)" stroke="#fff" stroke-width="0.5"/>
                <line id="Line_234-7" data-name="Line 234" x2="712.237" transform="translate(589.691 2560.859)" stroke="#fff" stroke-width="2"/>
              </g>
              <g id="Group_295" data-name="Group 295" transform="translate(265.479 -307.941)">
                <g id="Group_400" data-name="Group 400">
                  <line id="Line_235" data-name="Line 235" x2="625.803" transform="translate(589.691 2644.533)" fill="none" stroke="#a8881b" stroke-width="0.1"/>
                  <line id="Line_235-2" data-name="Line 235" x2="625.803" transform="translate(589.691 2661.75)" fill="none" stroke="#a8881b" stroke-width="0.1"/>
                  <line id="Line_235-3" data-name="Line 235" x2="625.803" transform="translate(589.691 2678.967)" fill="none" stroke="#a8881b" stroke-width="0.1"/>
                  <line id="Line_235-4" data-name="Line 235" x2="625.803" transform="translate(589.691 2696.184)" fill="none" stroke="#a8881b" stroke-width="0.1"/>
                  <line id="Line_235-5" data-name="Line 235" x2="625.803" transform="translate(589.691 2713.4)" fill="none" stroke="#a8881b" stroke-width="0.1"/>
                  <line id="Line_235-6" data-name="Line 235" x2="625.803" transform="translate(589.691 2730.617)" fill="none" stroke="#a8881b" stroke-width="0.1"/>
                  <line id="Line_235-7" data-name="Line 235" x2="625.803" transform="translate(589.691 2747.834)" fill="none" stroke="#a8881b" stroke-width="0.1"/>
                  <line id="Line_235-8" data-name="Line 235" x2="625.803" transform="translate(589.691 2765.051)" fill="none" stroke="#a8881b" stroke-width="0.1"/>
                  <line id="Line_235-9" data-name="Line 235" x2="625.803" transform="translate(589.691 2782.268)" fill="none" stroke="#a8881b" stroke-width="0.1"/>
                  <line id="Line_235-10" data-name="Line 235" x2="625.803" transform="translate(589.691 2799.484)" fill="none" stroke="#a8881b" stroke-width="0.1"/>
                  <line id="Line_235-11" data-name="Line 235" x2="625.803" transform="translate(589.691 2816.701)" fill="none" stroke="#a8881b" stroke-width="0.1"/>
                  <line id="Line_235-12" data-name="Line 235" x2="625.803" transform="translate(589.691 2833.918)" fill="none" stroke="#a8881b" stroke-width="0.1"/>
                  <line id="Line_235-13" data-name="Line 235" x2="625.803" transform="translate(589.691 2851.135)" fill="none" stroke="#a8881b" stroke-width="0.1"/>
                </g>
                <path id="Path_64" data-name="Path 64" d="M1065,0" transform="translate(150.494 2868.352)" fill="none" stroke="#a8881b" stroke-width="1"/>
              </g>
              <path id="Path_63" data-name="Path 63" d="M227.227,203.55,582.495,87.626l22.25,3.734,22.189-9.292,22.189-11.873,22.189-16,22.25-2.237,22.189-14.11,22.189-8.6" transform="translate(630.51 2314.279)" fill="none" stroke="#a78729" stroke-linecap="round" stroke-width="5.76"/>
              <g id="Group_296" data-name="Group 296">
                <path id="Path_906" data-name="Path 906" d="M3.852,9.12h.084C6.1,9.12,7.128,7.9,7.128,5.856V3.516C7.128,1.38,6.1.24,3.936.24H3.852C1.692.24.66,1.38.66,3.516v2.34C.66,7.9,1.692,9.12,3.852,9.12Zm0-.84C2.28,8.28,1.74,7.3,1.74,5.844V3.516c0-1.56.528-2.436,2.112-2.436h.084c1.572,0,2.1.876,2.1,2.436V5.844c0,1.452-.528,2.436-2.1,2.436Z" transform="translate(1456.532 2548.859)" fill="#a8881b"/>
                <path id="Path_905" data-name="Path 905" d="M3.3,8.2H2.508V.372H.648v.912H1.44V8.2H.648V9H3.3Zm3.588,0H6.1V.372H4.236v.912h.792V8.2H4.236V9H6.888Zm4.14.924h.084c2.16,0,3.192-1.224,3.192-3.264V3.516C14.3,1.38,13.272.24,11.112.24h-.084c-2.16,0-3.192,1.14-3.192,3.276v2.34C7.836,7.9,8.868,9.12,11.028,9.12Zm0-.84c-1.572,0-2.112-.984-2.112-2.436V3.516c0-1.56.528-2.436,2.112-2.436h.084c1.572,0,2.1.876,2.1,2.436V5.844c0,1.452-.528,2.436-2.1,2.436Z" transform="translate(1456.532 2530.859)" fill="#a8881b"/>
                <path id="Path_904" data-name="Path 904" d="M3.3,8.2H2.508V.372H.648v.912H1.44V8.2H.648V9H3.3ZM5.388,2.4V1.38A5.817,5.817,0,0,1,7.3,1.08c1.4,0,1.9.528,1.9,1.62,0,1.356-1.9,2.784-5.04,5.424V9h6.24V7.128H9.48v1H5.5c2.784-2.316,4.776-3.672,4.776-5.4,0-1.7-.96-2.484-2.988-2.484a9.4,9.4,0,0,0-2.82.48V2.4Zm9.48,6.72h.084c2.16,0,3.192-1.224,3.192-3.264V3.516C18.144,1.38,17.112.24,14.952.24h-.084c-2.16,0-3.192,1.14-3.192,3.276v2.34C11.676,7.9,12.708,9.12,14.868,9.12Zm0-.84c-1.572,0-2.112-.984-2.112-2.436V3.516c0-1.56.528-2.436,2.112-2.436h.084c1.572,0,2.1.876,2.1,2.436V5.844c0,1.452-.528,2.436-2.1,2.436Z" transform="translate(1456.532 2513.859)" fill="#a8881b"/>
                <path id="Path_903" data-name="Path 903" d="M3.3,8.2H2.508V.372H.648v.912H1.44V8.2H.648V9H3.3Zm1.992-5.88V1.248A8.615,8.615,0,0,1,6.948,1.08c1.428,0,2.04.372,2.04,1.368v.24c0,1.152-.948,1.392-1.956,1.392h-.54L6.54,4.9H7.1c1.068,0,2.04.216,2.04,1.416V6.8c0,1.248-1.2,1.476-2.292,1.476a12.907,12.907,0,0,1-1.7-.132V7.176H4.236v1.68a14.538,14.538,0,0,0,2.616.264C8.52,9.12,10.2,8.676,10.2,6.8V6.312A1.747,1.747,0,0,0,8.544,4.464a1.625,1.625,0,0,0,1.5-1.776v-.24C10.044.72,8.82.24,6.984.24a8.615,8.615,0,0,0-2.6.4v1.68Zm9.324,6.8H14.7c2.16,0,3.192-1.224,3.192-3.264V3.516C17.892,1.38,16.86.24,14.7.24h-.084c-2.16,0-3.192,1.14-3.192,3.276v2.34C11.424,7.9,12.456,9.12,14.616,9.12Zm0-.84C13.044,8.28,12.5,7.3,12.5,5.844V3.516c0-1.56.528-2.436,2.112-2.436H14.7c1.572,0,2.1.876,2.1,2.436V5.844c0,1.452-.528,2.436-2.1,2.436Z" transform="translate(1456.532 2496.859)" fill="#a8881b"/>
                <path id="Path_902" data-name="Path 902" d="M3.3,8.2H2.508V.372H.648v.912H1.44V8.2H.648V9H3.3Zm6.84,0h-.8V7.1h1.152V6.288H9.336V4.356H8.3V6.288H4.932L9.636.372H8.364L3.708,6.288V7.1H8.3V8.2H7.5V9h2.64Zm4.44.924h.084c2.16,0,3.192-1.224,3.192-3.264V3.516C17.856,1.38,16.824.24,14.664.24H14.58c-2.16,0-3.192,1.14-3.192,3.276v2.34C11.388,7.9,12.42,9.12,14.58,9.12Zm0-.84c-1.572,0-2.112-.984-2.112-2.436V3.516c0-1.56.528-2.436,2.112-2.436h.084c1.572,0,2.1.876,2.1,2.436V5.844c0,1.452-.528,2.436-2.1,2.436Z" transform="translate(1456.532 2479.859)" fill="#a8881b"/>
                <path id="Path_901" data-name="Path 901" d="M3.3,8.2H2.508V.372H.648v.912H1.44V8.2H.648V9H3.3ZM9.768,2.052V.372H5.124l-.7,3.768c4.32.048,4.632.8,4.632,2.136v.048C9.06,7.848,7.8,8.3,6.5,8.3a7.811,7.811,0,0,1-1.476-.156V7.116H4.116V8.8a11.552,11.552,0,0,0,2.448.324c1.9,0,3.54-.648,3.54-2.8V6.276c0-2-1.032-2.82-4.608-2.9l.48-2.232H8.844v.912ZM14.22,9.12H14.3c2.16,0,3.192-1.224,3.192-3.264V3.516C17.5,1.38,16.464.24,14.3.24H14.22c-2.16,0-3.192,1.14-3.192,3.276v2.34C11.028,7.9,12.06,9.12,14.22,9.12Zm0-.84c-1.572,0-2.112-.984-2.112-2.436V3.516c0-1.56.528-2.436,2.112-2.436H14.3c1.572,0,2.1.876,2.1,2.436V5.844c0,1.452-.528,2.436-2.1,2.436Z" transform="translate(1456.532 2462.859)" fill="#a8881b"/>
                <path id="Path_900" data-name="Path 900" d="M3.3,8.2H2.508V.372H.648v.912H1.44V8.2H.648V9H3.3ZM9.192.24c-3.456,1.008-5.1,2.832-5.208,5.652v.564c0,1.812,1.032,2.664,3.192,2.664h.1c2.16,0,3.192-.852,3.192-2.664v-.42c0-1.86-.948-2.676-2.9-2.676h-.1a3.858,3.858,0,0,0-2.184.624A6.457,6.457,0,0,1,9.444,1ZM7.176,8.28c-1.608,0-2.136-.72-2.136-1.836V6.036c0-1.188.516-1.836,2.136-1.836h.1c1.62,0,2.136.648,2.136,1.836v.408c0,1.116-.528,1.836-2.136,1.836Zm7.536.84H14.8c2.16,0,3.192-1.224,3.192-3.264V3.516C17.988,1.38,16.956.24,14.8.24h-.084c-2.16,0-3.192,1.14-3.192,3.276v2.34C11.52,7.9,12.552,9.12,14.712,9.12Zm0-.84C13.14,8.28,12.6,7.3,12.6,5.844V3.516c0-1.56.528-2.436,2.112-2.436H14.8c1.572,0,2.1.876,2.1,2.436V5.844c0,1.452-.528,2.436-2.1,2.436Z" transform="translate(1456.532 2445.859)" fill="#a8881b"/>
                <path id="Path_899" data-name="Path 899" d="M3.3,8.2H2.508V.372H.648v.912H1.44V8.2H.648V9H3.3ZM4.9,2.052V1.164H9.132L4.56,9H5.724l4.452-7.836V.372h-6.2v1.68Zm9.24,7.068h.084c2.16,0,3.192-1.224,3.192-3.264V3.516C17.412,1.38,16.38.24,14.22.24h-.084c-2.16,0-3.192,1.14-3.192,3.276v2.34C10.944,7.9,11.976,9.12,14.136,9.12Zm0-.84c-1.572,0-2.112-.984-2.112-2.436V3.516c0-1.56.528-2.436,2.112-2.436h.084c1.572,0,2.1.876,2.1,2.436V5.844c0,1.452-.528,2.436-2.1,2.436Z" transform="translate(1456.532 2427.859)" fill="#a8881b"/>
                <path id="Path_898" data-name="Path 898" d="M3.3,8.2H2.508V.372H.648v.912H1.44V8.2H.648V9H3.3Zm4.692.912c2.016,0,2.952-.468,2.952-2.556,0-1.428-.552-2.052-1.392-2.232.624-.192,1.092-.756,1.092-1.848V2.424C10.644.756,9.876.252,7.992.252H7.128c-1.884,0-2.64.5-2.64,2.172v.048c0,1.08.384,1.656,1.092,1.848-.84.18-1.392.8-1.392,2.232,0,2.088.924,2.556,2.94,2.556Zm-.876-.84c-1.38,0-1.872-.336-1.872-1.728,0-1.3.3-1.776,1.884-1.776h.864c1.6,0,1.9.48,1.9,1.776,0,1.392-.516,1.728-1.884,1.728Zm.876-7.2c1.224,0,1.62.324,1.62,1.368,0,1.092-.432,1.428-1.62,1.428H7.128c-1.188,0-1.62-.336-1.62-1.428,0-1.044.4-1.368,1.62-1.368ZM15.384,9.12h.084c2.16,0,3.192-1.224,3.192-3.264V3.516C18.66,1.38,17.628.24,15.468.24h-.084c-2.16,0-3.192,1.14-3.192,3.276v2.34C12.192,7.9,13.224,9.12,15.384,9.12Zm0-.84c-1.572,0-2.112-.984-2.112-2.436V3.516c0-1.56.528-2.436,2.112-2.436h.084c1.572,0,2.1.876,2.1,2.436V5.844c0,1.452-.528,2.436-2.1,2.436Z" transform="translate(1456.532 2410.859)" fill="#a8881b"/>
                <path id="Path_897" data-name="Path 897" d="M3.3,8.2H2.508V.372H.648v.912H1.44V8.2H.648V9H3.3Zm1.932.936c3.444-1,5.076-2.82,5.2-5.628a.738.738,0,0,0,.012-.168v-.42C10.44,1.1,9.408.252,7.248.252h-.1C4.992.252,3.96,1.1,3.96,2.916v.42c0,1.86.948,2.676,2.9,2.676h.1A3.843,3.843,0,0,0,9.132,5.4,6.441,6.441,0,0,1,4.98,8.376Zm2.016-8.04c1.608,0,2.136.708,2.136,1.836v.408c0,1.188-.516,1.836-2.136,1.836h-.1c-1.62,0-2.136-.648-2.136-1.836V2.928c0-1.128.528-1.836,2.136-1.836Zm7.44,8.028h.084c2.16,0,3.192-1.224,3.192-3.264V3.516C17.964,1.38,16.932.24,14.772.24h-.084C12.528.24,11.5,1.38,11.5,3.516v2.34C11.5,7.9,12.528,9.12,14.688,9.12Zm0-.84c-1.572,0-2.112-.984-2.112-2.436V3.516c0-1.56.528-2.436,2.112-2.436h.084c1.572,0,2.1.876,2.1,2.436V5.844c0,1.452-.528,2.436-2.1,2.436Z" transform="translate(1456.532 2393.859)" fill="#a8881b"/>
                <path id="Path_896" data-name="Path 896" d="M1.8,2.4V1.38a5.817,5.817,0,0,1,1.908-.3c1.4,0,1.9.528,1.9,1.62,0,1.356-1.9,2.784-5.04,5.424V9H6.8V7.128H5.892v1H1.908c2.784-2.316,4.776-3.672,4.776-5.4C6.684,1.02,5.724.24,3.7.24A9.4,9.4,0,0,0,.876.72V2.4Zm9.48,6.72h.084c2.16,0,3.192-1.224,3.192-3.264V3.516C14.556,1.38,13.524.24,11.364.24H11.28C9.12.24,8.088,1.38,8.088,3.516v2.34C8.088,7.9,9.12,9.12,11.28,9.12Zm0-.84c-1.572,0-2.112-.984-2.112-2.436V3.516c0-1.56.528-2.436,2.112-2.436h.084c1.572,0,2.1.876,2.1,2.436V5.844c0,1.452-.528,2.436-2.1,2.436Zm7.788.84h.084c2.16,0,3.192-1.224,3.192-3.264V3.516C22.344,1.38,21.312.24,19.152.24h-.084c-2.16,0-3.192,1.14-3.192,3.276v2.34C15.876,7.9,16.908,9.12,19.068,9.12Zm0-.84c-1.572,0-2.112-.984-2.112-2.436V3.516c0-1.56.528-2.436,2.112-2.436h.084c1.572,0,2.1.876,2.1,2.436V5.844c0,1.452-.528,2.436-2.1,2.436Z" transform="translate(1456.532 2375.859)" fill="#a8881b"/>
                <path id="Path_895" data-name="Path 895" d="M1.8,2.4V1.38a5.817,5.817,0,0,1,1.908-.3c1.4,0,1.9.528,1.9,1.62,0,1.356-1.9,2.784-5.04,5.424V9H6.8V7.128H5.892v1H1.908c2.784-2.316,4.776-3.672,4.776-5.4C6.684,1.02,5.724.24,3.7.24A9.4,9.4,0,0,0,.876.72V2.4Zm8.928,5.8H9.936V.372H8.076v.912h.792V8.2H8.076V9h2.652Zm4.14.924h.084c2.16,0,3.192-1.224,3.192-3.264V3.516C18.144,1.38,17.112.24,14.952.24h-.084c-2.16,0-3.192,1.14-3.192,3.276v2.34C11.676,7.9,12.708,9.12,14.868,9.12Zm0-.84c-1.572,0-2.112-.984-2.112-2.436V3.516c0-1.56.528-2.436,2.112-2.436h.084c1.572,0,2.1.876,2.1,2.436V5.844c0,1.452-.528,2.436-2.1,2.436Z" transform="translate(1456.532 2358.859)" fill="#a8881b"/>
                <path id="Path_894" data-name="Path 894" d="M1.8,2.4V1.38a5.817,5.817,0,0,1,1.908-.3c1.4,0,1.9.528,1.9,1.62,0,1.356-1.9,2.784-5.04,5.424V9H6.8V7.128H5.892v1H1.908c2.784-2.316,4.776-3.672,4.776-5.4C6.684,1.02,5.724.24,3.7.24A9.4,9.4,0,0,0,.876.72V2.4Zm7.428,0V1.38a5.817,5.817,0,0,1,1.908-.3c1.4,0,1.9.528,1.9,1.62,0,1.356-1.9,2.784-5.04,5.424V9h6.24V7.128H13.32v1H9.336c2.784-2.316,4.776-3.672,4.776-5.4,0-1.7-.96-2.484-2.988-2.484A9.4,9.4,0,0,0,8.3.72V2.4Zm9.48,6.72h.084c2.16,0,3.192-1.224,3.192-3.264V3.516C21.984,1.38,20.952.24,18.792.24h-.084c-2.16,0-3.192,1.14-3.192,3.276v2.34C15.516,7.9,16.548,9.12,18.708,9.12Zm0-.84C17.136,8.28,16.6,7.3,16.6,5.844V3.516c0-1.56.528-2.436,2.112-2.436h.084c1.572,0,2.1.876,2.1,2.436V5.844c0,1.452-.528,2.436-2.1,2.436Z" transform="translate(1456.532 2341.859)" fill="#a8881b"/>
                <path id="Path_893" data-name="Path 893" d="M1.8,2.4V1.38a5.817,5.817,0,0,1,1.908-.3c1.4,0,1.9.528,1.9,1.62,0,1.356-1.9,2.784-5.04,5.424V9H6.8V7.128H5.892v1H1.908c2.784-2.316,4.776-3.672,4.776-5.4C6.684,1.02,5.724.24,3.7.24A9.4,9.4,0,0,0,.876.72V2.4Zm7.332-.084V1.248a8.615,8.615,0,0,1,1.656-.168c1.428,0,2.04.372,2.04,1.368v.24c0,1.152-.948,1.392-1.956,1.392h-.54l.048.816h.564c1.068,0,2.04.216,2.04,1.416V6.8c0,1.248-1.2,1.476-2.292,1.476a12.907,12.907,0,0,1-1.7-.132V7.176H8.076v1.68a14.538,14.538,0,0,0,2.616.264c1.668,0,3.348-.444,3.348-2.316V6.312a1.747,1.747,0,0,0-1.656-1.848,1.625,1.625,0,0,0,1.5-1.776v-.24C13.884.72,12.66.24,10.824.24a8.615,8.615,0,0,0-2.6.4v1.68Zm9.324,6.8h.084c2.16,0,3.192-1.224,3.192-3.264V3.516C21.732,1.38,20.7.24,18.54.24h-.084c-2.16,0-3.192,1.14-3.192,3.276v2.34C15.264,7.9,16.3,9.12,18.456,9.12Zm0-.84c-1.572,0-2.112-.984-2.112-2.436V3.516c0-1.56.528-2.436,2.112-2.436h.084c1.572,0,2.1.876,2.1,2.436V5.844c0,1.452-.528,2.436-2.1,2.436Z" transform="translate(1456.532 2324.859)" fill="#a8881b"/>
              </g>
              <g id="Group_297" data-name="Group 297" transform="translate(-722.822)">
                <path id="Path_892" data-name="Path 892" d="M44.064,9.12h.084c2.16,0,3.192-1.224,3.192-3.264V3.516C47.34,1.38,46.308.24,44.148.24h-.084c-2.16,0-3.192,1.14-3.192,3.276v2.34C40.872,7.9,41.9,9.12,44.064,9.12Zm0-.84c-1.572,0-2.112-.984-2.112-2.436V3.516c0-1.56.528-2.436,2.112-2.436h.084c1.572,0,2.1.876,2.1,2.436V5.844c0,1.452-.528,2.436-2.1,2.436Z" transform="translate(1436.35 2549.043)" fill="#fff"/>
                <path id="Path_891" data-name="Path 891" d="M34.716,9.12H34.8c2.16,0,3.192-1.224,3.192-3.264V3.516C37.992,1.38,36.96.24,34.8.24h-.084c-2.16,0-3.192,1.14-3.192,3.276v2.34C31.524,7.9,32.556,9.12,34.716,9.12Zm0-.84C33.144,8.28,32.6,7.3,32.6,5.844V3.516c0-1.56.528-2.436,2.112-2.436H34.8c1.572,0,2.1.876,2.1,2.436V5.844c0,1.452-.528,2.436-2.1,2.436Zm5.6.72V7.668H39.312V9Zm6.84-6.948V.372H42.516l-.7,3.768c4.32.048,4.632.8,4.632,2.136v.048c0,1.524-1.26,1.98-2.556,1.98a7.811,7.811,0,0,1-1.476-.156V7.116h-.912V8.8a11.552,11.552,0,0,0,2.448.324c1.9,0,3.54-.648,3.54-2.8V6.276c0-2-1.032-2.82-4.608-2.9l.48-2.232h2.868v.912Z" transform="translate(1436.35 2517.043)" fill="#fff"/>
                <path id="Path_890" data-name="Path 890" d="M46.176,8.2h-.792V.372h-1.86v.912h.792V8.2h-.792V9h2.652Z" transform="translate(1438.35 2485.043)" fill="#fff"/>
                <path id="Path_889" data-name="Path 889" d="M32.828,8.2h-.792V.372h-1.86v.912h.792V8.2h-.792V9h2.652Zm1.956.8V7.668H33.776V9Zm6.84-6.948V.372H36.98l-.7,3.768c4.32.048,4.632.8,4.632,2.136v.048c0,1.524-1.26,1.98-2.556,1.98a7.811,7.811,0,0,1-1.476-.156V7.116h-.912V8.8a11.552,11.552,0,0,0,2.448.324c1.9,0,3.54-.648,3.54-2.8V6.276c0-2-1.032-2.82-4.608-2.9l.48-2.232H40.7v.912Z" transform="translate(1442.35 2453.043)" fill="#fff"/>
                <path id="Path_888" data-name="Path 888" d="M38.836,2.4V1.38a5.817,5.817,0,0,1,1.908-.3c1.4,0,1.9.528,1.9,1.62,0,1.356-1.9,2.784-5.04,5.424V9h6.24V7.128h-.912v1H38.944c2.784-2.316,4.776-3.672,4.776-5.4,0-1.7-.96-2.484-2.988-2.484a9.4,9.4,0,0,0-2.82.48V2.4Z" transform="translate(1440.35 2421.043)" fill="#fff"/>
                <path id="Path_887" data-name="Path 887" d="M29.488,2.4V1.38a5.817,5.817,0,0,1,1.908-.3c1.4,0,1.9.528,1.9,1.62,0,1.356-1.9,2.784-5.04,5.424V9h6.24V7.128H33.58v1H29.6c2.784-2.316,4.776-3.672,4.776-5.4,0-1.7-.96-2.484-2.988-2.484a9.4,9.4,0,0,0-2.82.48V2.4Zm7.3,6.6V7.668H35.776V9Zm6.84-6.948V.372H38.98l-.7,3.768c4.32.048,4.632.8,4.632,2.136v.048c0,1.524-1.26,1.98-2.556,1.98a7.811,7.811,0,0,1-1.476-.156V7.116h-.912V8.8a11.552,11.552,0,0,0,2.448.324c1.9,0,3.54-.648,3.54-2.8V6.276c0-2-1.032-2.82-4.608-2.9l.48-2.232H42.7v.912Z" transform="translate(1440.35 2389.043)" fill="#fff"/>
                <path id="Path_886" data-name="Path 886" d="M36.992,2.316V1.248a8.615,8.615,0,0,1,1.656-.168c1.428,0,2.04.372,2.04,1.368v.24c0,1.152-.948,1.392-1.956,1.392h-.54l.048.816H38.8c1.068,0,2.04.216,2.04,1.416V6.8c0,1.248-1.2,1.476-2.292,1.476a12.907,12.907,0,0,1-1.7-.132V7.176h-.912v1.68a14.538,14.538,0,0,0,2.616.264C40.22,9.12,41.9,8.676,41.9,6.8V6.312a1.747,1.747,0,0,0-1.656-1.848,1.625,1.625,0,0,0,1.5-1.776v-.24C41.744.72,40.52.24,38.684.24a8.615,8.615,0,0,0-2.6.4v1.68Z" transform="translate(1442.35 2357.043)" fill="#fff"/>
              </g>
              <path id="Path_924" data-name="Path 924" d="M3.3,8.2H2.508V.372H.648v.912H1.44V8.2H.648V9H3.3Zm1.932.936c3.444-1,5.076-2.82,5.2-5.628a.738.738,0,0,0,.012-.168v-.42C10.44,1.1,9.408.252,7.248.252h-.1C4.992.252,3.96,1.1,3.96,2.916v.42c0,1.86.948,2.676,2.9,2.676h.1A3.843,3.843,0,0,0,9.132,5.4,6.441,6.441,0,0,1,4.98,8.376Zm2.016-8.04c1.608,0,2.136.708,2.136,1.836v.408c0,1.188-.516,1.836-2.136,1.836h-.1c-1.62,0-2.136-.648-2.136-1.836V2.928c0-1.128.528-1.836,2.136-1.836Zm5.232,8.04c3.444-1,5.076-2.82,5.2-5.628a.738.738,0,0,0,.012-.168v-.42C17.688,1.1,16.656.252,14.5.252h-.1c-2.16,0-3.192.852-3.192,2.664v.42c0,1.86.948,2.676,2.9,2.676h.1A3.843,3.843,0,0,0,16.38,5.4a6.441,6.441,0,0,1-4.152,2.976ZM14.5,1.092c1.608,0,2.136.708,2.136,1.836v.408c0,1.188-.516,1.836-2.136,1.836h-.1c-1.62,0-2.136-.648-2.136-1.836V2.928c0-1.128.528-1.836,2.136-1.836Zm7.44,8.028h.084c2.16,0,3.192-1.224,3.192-3.264V3.516C25.212,1.38,24.18.24,22.02.24h-.084c-2.16,0-3.192,1.14-3.192,3.276v2.34C18.744,7.9,19.776,9.12,21.936,9.12Zm0-.84c-1.572,0-2.112-.984-2.112-2.436V3.516c0-1.56.528-2.436,2.112-2.436h.084c1.572,0,2.1.876,2.1,2.436V5.844c0,1.452-.528,2.436-2.1,2.436Z" transform="translate(778.487 2601.859) rotate(-90)" fill="#fff"/>
              <path id="Path_923" data-name="Path 923" d="M3.3,8.2H2.508V.372H.648v.912H1.44V8.2H.648V9H3.3Zm1.932.936c3.444-1,5.076-2.82,5.2-5.628a.738.738,0,0,0,.012-.168v-.42C10.44,1.1,9.408.252,7.248.252h-.1C4.992.252,3.96,1.1,3.96,2.916v.42c0,1.86.948,2.676,2.9,2.676h.1A3.843,3.843,0,0,0,9.132,5.4,6.441,6.441,0,0,1,4.98,8.376Zm2.016-8.04c1.608,0,2.136.708,2.136,1.836v.408c0,1.188-.516,1.836-2.136,1.836h-.1c-1.62,0-2.136-.648-2.136-1.836V2.928c0-1.128.528-1.836,2.136-1.836Zm5.232,8.04c3.444-1,5.076-2.82,5.2-5.628a.738.738,0,0,0,.012-.168v-.42C17.688,1.1,16.656.252,14.5.252h-.1c-2.16,0-3.192.852-3.192,2.664v.42c0,1.86.948,2.676,2.9,2.676h.1A3.843,3.843,0,0,0,16.38,5.4a6.441,6.441,0,0,1-4.152,2.976ZM14.5,1.092c1.608,0,2.136.708,2.136,1.836v.408c0,1.188-.516,1.836-2.136,1.836h-.1c-1.62,0-2.136-.648-2.136-1.836V2.928c0-1.128.528-1.836,2.136-1.836ZM19.884,2.4V1.38a5.817,5.817,0,0,1,1.908-.3c1.4,0,1.9.528,1.9,1.62,0,1.356-1.9,2.784-5.04,5.424V9h6.24V7.128h-.912v1H19.992c2.784-2.316,4.776-3.672,4.776-5.4,0-1.7-.96-2.484-2.988-2.484a9.4,9.4,0,0,0-2.82.48V2.4Z" transform="translate(822.487 2601.859) rotate(-90)" fill="#fff"/>
              <path id="Path_922" data-name="Path 922" d="M3.3,8.2H2.508V.372H.648v.912H1.44V8.2H.648V9H3.3Zm1.932.936c3.444-1,5.076-2.82,5.2-5.628a.738.738,0,0,0,.012-.168v-.42C10.44,1.1,9.408.252,7.248.252h-.1C4.992.252,3.96,1.1,3.96,2.916v.42c0,1.86.948,2.676,2.9,2.676h.1A3.843,3.843,0,0,0,9.132,5.4,6.441,6.441,0,0,1,4.98,8.376Zm2.016-8.04c1.608,0,2.136.708,2.136,1.836v.408c0,1.188-.516,1.836-2.136,1.836h-.1c-1.62,0-2.136-.648-2.136-1.836V2.928c0-1.128.528-1.836,2.136-1.836Zm5.232,8.04c3.444-1,5.076-2.82,5.2-5.628a.738.738,0,0,0,.012-.168v-.42C17.688,1.1,16.656.252,14.5.252h-.1c-2.16,0-3.192.852-3.192,2.664v.42c0,1.86.948,2.676,2.9,2.676h.1A3.843,3.843,0,0,0,16.38,5.4a6.441,6.441,0,0,1-4.152,2.976ZM14.5,1.092c1.608,0,2.136.708,2.136,1.836v.408c0,1.188-.516,1.836-2.136,1.836h-.1c-1.62,0-2.136-.648-2.136-1.836V2.928c0-1.128.528-1.836,2.136-1.836Zm10.14,7.1h-.8V7.1h1.152V6.288H23.832V4.356H22.8V6.288H19.428l4.7-5.916H22.86L18.2,6.288V7.1h4.6V8.2H22V9h2.64Z" transform="translate(866.487 2601.859) rotate(-90)" fill="#fff"/>
              <path id="Path_921" data-name="Path 921" d="M3.3,8.2H2.508V.372H.648v.912H1.44V8.2H.648V9H3.3Zm1.932.936c3.444-1,5.076-2.82,5.2-5.628a.738.738,0,0,0,.012-.168v-.42C10.44,1.1,9.408.252,7.248.252h-.1C4.992.252,3.96,1.1,3.96,2.916v.42c0,1.86.948,2.676,2.9,2.676h.1A3.843,3.843,0,0,0,9.132,5.4,6.441,6.441,0,0,1,4.98,8.376Zm2.016-8.04c1.608,0,2.136.708,2.136,1.836v.408c0,1.188-.516,1.836-2.136,1.836h-.1c-1.62,0-2.136-.648-2.136-1.836V2.928c0-1.128.528-1.836,2.136-1.836Zm5.232,8.04c3.444-1,5.076-2.82,5.2-5.628a.738.738,0,0,0,.012-.168v-.42C17.688,1.1,16.656.252,14.5.252h-.1c-2.16,0-3.192.852-3.192,2.664v.42c0,1.86.948,2.676,2.9,2.676h.1A3.843,3.843,0,0,0,16.38,5.4a6.441,6.441,0,0,1-4.152,2.976ZM14.5,1.092c1.608,0,2.136.708,2.136,1.836v.408c0,1.188-.516,1.836-2.136,1.836h-.1c-1.62,0-2.136-.648-2.136-1.836V2.928c0-1.128.528-1.836,2.136-1.836ZM23.688.24c-3.456,1.008-5.1,2.832-5.208,5.652v.564c0,1.812,1.032,2.664,3.192,2.664h.1c2.16,0,3.192-.852,3.192-2.664v-.42c0-1.86-.948-2.676-2.9-2.676h-.1a3.858,3.858,0,0,0-2.184.624A6.457,6.457,0,0,1,23.94,1ZM21.672,8.28c-1.608,0-2.136-.72-2.136-1.836V6.036c0-1.188.516-1.836,2.136-1.836h.1c1.62,0,2.136.648,2.136,1.836v.408c0,1.116-.528,1.836-2.136,1.836Z" transform="translate(910.487 2601.859) rotate(-90)" fill="#fff"/>
              <path id="Path_920" data-name="Path 920" d="M3.3,8.2H2.508V.372H.648v.912H1.44V8.2H.648V9H3.3Zm1.932.936c3.444-1,5.076-2.82,5.2-5.628a.738.738,0,0,0,.012-.168v-.42C10.44,1.1,9.408.252,7.248.252h-.1C4.992.252,3.96,1.1,3.96,2.916v.42c0,1.86.948,2.676,2.9,2.676h.1A3.843,3.843,0,0,0,9.132,5.4,6.441,6.441,0,0,1,4.98,8.376Zm2.016-8.04c1.608,0,2.136.708,2.136,1.836v.408c0,1.188-.516,1.836-2.136,1.836h-.1c-1.62,0-2.136-.648-2.136-1.836V2.928c0-1.128.528-1.836,2.136-1.836Zm5.232,8.04c3.444-1,5.076-2.82,5.2-5.628a.738.738,0,0,0,.012-.168v-.42C17.688,1.1,16.656.252,14.5.252h-.1c-2.16,0-3.192.852-3.192,2.664v.42c0,1.86.948,2.676,2.9,2.676h.1A3.843,3.843,0,0,0,16.38,5.4a6.441,6.441,0,0,1-4.152,2.976ZM14.5,1.092c1.608,0,2.136.708,2.136,1.836v.408c0,1.188-.516,1.836-2.136,1.836h-.1c-1.62,0-2.136-.648-2.136-1.836V2.928c0-1.128.528-1.836,2.136-1.836Zm7.992,8.016c2.016,0,2.952-.468,2.952-2.556,0-1.428-.552-2.052-1.392-2.232.624-.192,1.092-.756,1.092-1.848V2.424c0-1.668-.768-2.172-2.652-2.172h-.864c-1.884,0-2.64.5-2.64,2.172v.048c0,1.08.384,1.656,1.092,1.848-.84.18-1.392.8-1.392,2.232,0,2.088.924,2.556,2.94,2.556Zm-.876-.84c-1.38,0-1.872-.336-1.872-1.728,0-1.3.3-1.776,1.884-1.776h.864c1.6,0,1.9.48,1.9,1.776,0,1.392-.516,1.728-1.884,1.728Zm.876-7.2c1.224,0,1.62.324,1.62,1.368,0,1.092-.432,1.428-1.62,1.428h-.864c-1.188,0-1.62-.336-1.62-1.428,0-1.044.4-1.368,1.62-1.368Z" transform="translate(954.487 2601.859) rotate(-90)" fill="#fff"/>
              <path id="Path_919" data-name="Path 919" d="M1.8,2.4V1.38a5.817,5.817,0,0,1,1.908-.3c1.4,0,1.9.528,1.9,1.62,0,1.356-1.9,2.784-5.04,5.424V9H6.8V7.128H5.892v1H1.908c2.784-2.316,4.776-3.672,4.776-5.4C6.684,1.02,5.724.24,3.7.24A9.4,9.4,0,0,0,.876.72V2.4Zm9.48,6.72h.084c2.16,0,3.192-1.224,3.192-3.264V3.516C14.556,1.38,13.524.24,11.364.24H11.28C9.12.24,8.088,1.38,8.088,3.516v2.34C8.088,7.9,9.12,9.12,11.28,9.12Zm0-.84c-1.572,0-2.112-.984-2.112-2.436V3.516c0-1.56.528-2.436,2.112-2.436h.084c1.572,0,2.1.876,2.1,2.436V5.844c0,1.452-.528,2.436-2.1,2.436Zm7.788.84h.084c2.16,0,3.192-1.224,3.192-3.264V3.516C22.344,1.38,21.312.24,19.152.24h-.084c-2.16,0-3.192,1.14-3.192,3.276v2.34C15.876,7.9,16.908,9.12,19.068,9.12Zm0-.84c-1.572,0-2.112-.984-2.112-2.436V3.516c0-1.56.528-2.436,2.112-2.436h.084c1.572,0,2.1.876,2.1,2.436V5.844c0,1.452-.528,2.436-2.1,2.436Zm7.788.84h.084c2.16,0,3.192-1.224,3.192-3.264V3.516C30.132,1.38,29.1.24,26.94.24h-.084c-2.16,0-3.192,1.14-3.192,3.276v2.34C23.664,7.9,24.7,9.12,26.856,9.12Zm0-.84c-1.572,0-2.112-.984-2.112-2.436V3.516c0-1.56.528-2.436,2.112-2.436h.084c1.572,0,2.1.876,2.1,2.436V5.844c0,1.452-.528,2.436-2.1,2.436Z" transform="translate(998.487 2601.859) rotate(-90)" fill="#fff"/>
              <path id="Path_918" data-name="Path 918" d="M1.8,2.4V1.38a5.817,5.817,0,0,1,1.908-.3c1.4,0,1.9.528,1.9,1.62,0,1.356-1.9,2.784-5.04,5.424V9H6.8V7.128H5.892v1H1.908c2.784-2.316,4.776-3.672,4.776-5.4C6.684,1.02,5.724.24,3.7.24A9.4,9.4,0,0,0,.876.72V2.4Zm9.48,6.72h.084c2.16,0,3.192-1.224,3.192-3.264V3.516C14.556,1.38,13.524.24,11.364.24H11.28C9.12.24,8.088,1.38,8.088,3.516v2.34C8.088,7.9,9.12,9.12,11.28,9.12Zm0-.84c-1.572,0-2.112-.984-2.112-2.436V3.516c0-1.56.528-2.436,2.112-2.436h.084c1.572,0,2.1.876,2.1,2.436V5.844c0,1.452-.528,2.436-2.1,2.436Zm7.788.84h.084c2.16,0,3.192-1.224,3.192-3.264V3.516C22.344,1.38,21.312.24,19.152.24h-.084c-2.16,0-3.192,1.14-3.192,3.276v2.34C15.876,7.9,16.908,9.12,19.068,9.12Zm0-.84c-1.572,0-2.112-.984-2.112-2.436V3.516c0-1.56.528-2.436,2.112-2.436h.084c1.572,0,2.1.876,2.1,2.436V5.844c0,1.452-.528,2.436-2.1,2.436ZM24.8,2.4V1.38a5.817,5.817,0,0,1,1.908-.3c1.4,0,1.9.528,1.9,1.62,0,1.356-1.9,2.784-5.04,5.424V9h6.24V7.128H28.9v1H24.912c2.784-2.316,4.776-3.672,4.776-5.4,0-1.7-.96-2.484-2.988-2.484a9.4,9.4,0,0,0-2.82.48V2.4Z" transform="translate(1042.487 2601.859) rotate(-90)" fill="#fff"/>
              <path id="Path_917" data-name="Path 917" d="M1.8,2.4V1.38a5.817,5.817,0,0,1,1.908-.3c1.4,0,1.9.528,1.9,1.62,0,1.356-1.9,2.784-5.04,5.424V9H6.8V7.128H5.892v1H1.908c2.784-2.316,4.776-3.672,4.776-5.4C6.684,1.02,5.724.24,3.7.24A9.4,9.4,0,0,0,.876.72V2.4Zm9.48,6.72h.084c2.16,0,3.192-1.224,3.192-3.264V3.516C14.556,1.38,13.524.24,11.364.24H11.28C9.12.24,8.088,1.38,8.088,3.516v2.34C8.088,7.9,9.12,9.12,11.28,9.12Zm0-.84c-1.572,0-2.112-.984-2.112-2.436V3.516c0-1.56.528-2.436,2.112-2.436h.084c1.572,0,2.1.876,2.1,2.436V5.844c0,1.452-.528,2.436-2.1,2.436Zm7.788.84h.084c2.16,0,3.192-1.224,3.192-3.264V3.516C22.344,1.38,21.312.24,19.152.24h-.084c-2.16,0-3.192,1.14-3.192,3.276v2.34C15.876,7.9,16.908,9.12,19.068,9.12Zm0-.84c-1.572,0-2.112-.984-2.112-2.436V3.516c0-1.56.528-2.436,2.112-2.436h.084c1.572,0,2.1.876,2.1,2.436V5.844c0,1.452-.528,2.436-2.1,2.436ZM29.556,8.2h-.8V7.1H29.9V6.288H28.752V4.356H27.72V6.288H24.348l4.7-5.916H27.78L23.124,6.288V7.1h4.6V8.2h-.8V9h2.64Z" transform="translate(1086.487 2601.859) rotate(-90)" fill="#fff"/>
              <path id="Path_916" data-name="Path 916" d="M1.8,2.4V1.38a5.817,5.817,0,0,1,1.908-.3c1.4,0,1.9.528,1.9,1.62,0,1.356-1.9,2.784-5.04,5.424V9H6.8V7.128H5.892v1H1.908c2.784-2.316,4.776-3.672,4.776-5.4C6.684,1.02,5.724.24,3.7.24A9.4,9.4,0,0,0,.876.72V2.4Zm9.48,6.72h.084c2.16,0,3.192-1.224,3.192-3.264V3.516C14.556,1.38,13.524.24,11.364.24H11.28C9.12.24,8.088,1.38,8.088,3.516v2.34C8.088,7.9,9.12,9.12,11.28,9.12Zm0-.84c-1.572,0-2.112-.984-2.112-2.436V3.516c0-1.56.528-2.436,2.112-2.436h.084c1.572,0,2.1.876,2.1,2.436V5.844c0,1.452-.528,2.436-2.1,2.436Zm7.788.84h.084c2.16,0,3.192-1.224,3.192-3.264V3.516C22.344,1.38,21.312.24,19.152.24h-.084c-2.16,0-3.192,1.14-3.192,3.276v2.34C15.876,7.9,16.908,9.12,19.068,9.12Zm0-.84c-1.572,0-2.112-.984-2.112-2.436V3.516c0-1.56.528-2.436,2.112-2.436h.084c1.572,0,2.1.876,2.1,2.436V5.844c0,1.452-.528,2.436-2.1,2.436ZM28.608.24c-3.456,1.008-5.1,2.832-5.208,5.652v.564c0,1.812,1.032,2.664,3.192,2.664h.1c2.16,0,3.192-.852,3.192-2.664v-.42c0-1.86-.948-2.676-2.9-2.676h-.1a3.858,3.858,0,0,0-2.184.624A6.457,6.457,0,0,1,28.86,1ZM26.592,8.28c-1.608,0-2.136-.72-2.136-1.836V6.036c0-1.188.516-1.836,2.136-1.836h.1c1.62,0,2.136.648,2.136,1.836v.408c0,1.116-.528,1.836-2.136,1.836Z" transform="translate(1130.487 2601.859) rotate(-90)" fill="#fff"/>
              <path id="Path_915" data-name="Path 915" d="M1.8,2.4V1.38a5.817,5.817,0,0,1,1.908-.3c1.4,0,1.9.528,1.9,1.62,0,1.356-1.9,2.784-5.04,5.424V9H6.8V7.128H5.892v1H1.908c2.784-2.316,4.776-3.672,4.776-5.4C6.684,1.02,5.724.24,3.7.24A9.4,9.4,0,0,0,.876.72V2.4Zm9.48,6.72h.084c2.16,0,3.192-1.224,3.192-3.264V3.516C14.556,1.38,13.524.24,11.364.24H11.28C9.12.24,8.088,1.38,8.088,3.516v2.34C8.088,7.9,9.12,9.12,11.28,9.12Zm0-.84c-1.572,0-2.112-.984-2.112-2.436V3.516c0-1.56.528-2.436,2.112-2.436h.084c1.572,0,2.1.876,2.1,2.436V5.844c0,1.452-.528,2.436-2.1,2.436Zm7.788.84h.084c2.16,0,3.192-1.224,3.192-3.264V3.516C22.344,1.38,21.312.24,19.152.24h-.084c-2.16,0-3.192,1.14-3.192,3.276v2.34C15.876,7.9,16.908,9.12,19.068,9.12Zm0-.84c-1.572,0-2.112-.984-2.112-2.436V3.516c0-1.56.528-2.436,2.112-2.436h.084c1.572,0,2.1.876,2.1,2.436V5.844c0,1.452-.528,2.436-2.1,2.436Zm8.34.828c2.016,0,2.952-.468,2.952-2.556,0-1.428-.552-2.052-1.392-2.232.624-.192,1.092-.756,1.092-1.848V2.424c0-1.668-.768-2.172-2.652-2.172h-.864c-1.884,0-2.64.5-2.64,2.172v.048c0,1.08.384,1.656,1.092,1.848-.84.18-1.392.8-1.392,2.232,0,2.088.924,2.556,2.94,2.556Zm-.876-.84c-1.38,0-1.872-.336-1.872-1.728,0-1.3.3-1.776,1.884-1.776h.864c1.6,0,1.9.48,1.9,1.776,0,1.392-.516,1.728-1.884,1.728Zm.876-7.2c1.224,0,1.62.324,1.62,1.368,0,1.092-.432,1.428-1.62,1.428h-.864c-1.188,0-1.62-.336-1.62-1.428,0-1.044.4-1.368,1.62-1.368Z" transform="translate(1174.487 2601.859) rotate(-90)" fill="#fff"/>
              <path id="Path_913" data-name="Path 913" d="M1.8,2.4V1.38a5.817,5.817,0,0,1,1.908-.3c1.4,0,1.9.528,1.9,1.62,0,1.356-1.9,2.784-5.04,5.424V9H6.8V7.128H5.892v1H1.908c2.784-2.316,4.776-3.672,4.776-5.4C6.684,1.02,5.724.24,3.7.24A9.4,9.4,0,0,0,.876.72V2.4Zm9.48,6.72h.084c2.16,0,3.192-1.224,3.192-3.264V3.516C14.556,1.38,13.524.24,11.364.24H11.28C9.12.24,8.088,1.38,8.088,3.516v2.34C8.088,7.9,9.12,9.12,11.28,9.12Zm0-.84c-1.572,0-2.112-.984-2.112-2.436V3.516c0-1.56.528-2.436,2.112-2.436h.084c1.572,0,2.1.876,2.1,2.436V5.844c0,1.452-.528,2.436-2.1,2.436ZM18.516,8.2h-.792V.372h-1.86v.912h.792V8.2h-.792V9h2.652Zm4.14.924h.084c2.16,0,3.192-1.224,3.192-3.264V3.516C25.932,1.38,24.9.24,22.74.24h-.084c-2.16,0-3.192,1.14-3.192,3.276v2.34C19.464,7.9,20.5,9.12,22.656,9.12Zm0-.84c-1.572,0-2.112-.984-2.112-2.436V3.516c0-1.56.528-2.436,2.112-2.436h.084c1.572,0,2.1.876,2.1,2.436V5.844c0,1.452-.528,2.436-2.1,2.436Z" transform="translate(1218.487 2601.859) rotate(-90)" fill="#fff"/>
              <path id="Path_912" data-name="Path 912" d="M1.8,2.4V1.38a5.817,5.817,0,0,1,1.908-.3c1.4,0,1.9.528,1.9,1.62,0,1.356-1.9,2.784-5.04,5.424V9H6.8V7.128H5.892v1H1.908c2.784-2.316,4.776-3.672,4.776-5.4C6.684,1.02,5.724.24,3.7.24A9.4,9.4,0,0,0,.876.72V2.4Zm9.48,6.72h.084c2.16,0,3.192-1.224,3.192-3.264V3.516C14.556,1.38,13.524.24,11.364.24H11.28C9.12.24,8.088,1.38,8.088,3.516v2.34C8.088,7.9,9.12,9.12,11.28,9.12Zm0-.84c-1.572,0-2.112-.984-2.112-2.436V3.516c0-1.56.528-2.436,2.112-2.436h.084c1.572,0,2.1.876,2.1,2.436V5.844c0,1.452-.528,2.436-2.1,2.436ZM18.516,8.2h-.792V.372h-1.86v.912h.792V8.2h-.792V9h2.652ZM20.6,2.4V1.38a5.817,5.817,0,0,1,1.908-.3c1.4,0,1.9.528,1.9,1.62,0,1.356-1.9,2.784-5.04,5.424V9h6.24V7.128H24.7v1H20.712c2.784-2.316,4.776-3.672,4.776-5.4,0-1.7-.96-2.484-2.988-2.484a9.4,9.4,0,0,0-2.82.48V2.4Z" transform="translate(1262.487 2601.859) rotate(-90)" fill="#fff"/>
              <path id="Path_911" data-name="Path 911" d="M1.8,2.4V1.38a5.817,5.817,0,0,1,1.908-.3c1.4,0,1.9.528,1.9,1.62,0,1.356-1.9,2.784-5.04,5.424V9H6.8V7.128H5.892v1H1.908c2.784-2.316,4.776-3.672,4.776-5.4C6.684,1.02,5.724.24,3.7.24A9.4,9.4,0,0,0,.876.72V2.4Zm9.48,6.72h.084c2.16,0,3.192-1.224,3.192-3.264V3.516C14.556,1.38,13.524.24,11.364.24H11.28C9.12.24,8.088,1.38,8.088,3.516v2.34C8.088,7.9,9.12,9.12,11.28,9.12Zm0-.84c-1.572,0-2.112-.984-2.112-2.436V3.516c0-1.56.528-2.436,2.112-2.436h.084c1.572,0,2.1.876,2.1,2.436V5.844c0,1.452-.528,2.436-2.1,2.436ZM18.516,8.2h-.792V.372h-1.86v.912h.792V8.2h-.792V9h2.652Zm6.84,0h-.8V7.1H25.7V6.288H24.552V4.356H23.52V6.288H20.148l4.7-5.916H23.58L18.924,6.288V7.1h4.6V8.2h-.8V9h2.64Z" transform="translate(1306.487 2601.859) rotate(-90)" fill="#fff"/>
              <path id="Path_910" data-name="Path 910" d="M1.8,2.4V1.38a5.817,5.817,0,0,1,1.908-.3c1.4,0,1.9.528,1.9,1.62,0,1.356-1.9,2.784-5.04,5.424V9H6.8V7.128H5.892v1H1.908c2.784-2.316,4.776-3.672,4.776-5.4C6.684,1.02,5.724.24,3.7.24A9.4,9.4,0,0,0,.876.72V2.4Zm9.48,6.72h.084c2.16,0,3.192-1.224,3.192-3.264V3.516C14.556,1.38,13.524.24,11.364.24H11.28C9.12.24,8.088,1.38,8.088,3.516v2.34C8.088,7.9,9.12,9.12,11.28,9.12Zm0-.84c-1.572,0-2.112-.984-2.112-2.436V3.516c0-1.56.528-2.436,2.112-2.436h.084c1.572,0,2.1.876,2.1,2.436V5.844c0,1.452-.528,2.436-2.1,2.436ZM18.516,8.2h-.792V.372h-1.86v.912h.792V8.2h-.792V9h2.652ZM24.408.24c-3.456,1.008-5.1,2.832-5.208,5.652v.564c0,1.812,1.032,2.664,3.192,2.664h.1c2.16,0,3.192-.852,3.192-2.664v-.42c0-1.86-.948-2.676-2.9-2.676h-.1a3.858,3.858,0,0,0-2.184.624A6.457,6.457,0,0,1,24.66,1ZM22.392,8.28c-1.608,0-2.136-.72-2.136-1.836V6.036c0-1.188.516-1.836,2.136-1.836h.1c1.62,0,2.136.648,2.136,1.836v.408c0,1.116-.528,1.836-2.136,1.836Z" transform="translate(1350.487 2601.859) rotate(-90)" fill="#fff"/>
              <path id="Path_909" data-name="Path 909" d="M1.8,2.4V1.38a5.817,5.817,0,0,1,1.908-.3c1.4,0,1.9.528,1.9,1.62,0,1.356-1.9,2.784-5.04,5.424V9H6.8V7.128H5.892v1H1.908c2.784-2.316,4.776-3.672,4.776-5.4C6.684,1.02,5.724.24,3.7.24A9.4,9.4,0,0,0,.876.72V2.4Zm9.48,6.72h.084c2.16,0,3.192-1.224,3.192-3.264V3.516C14.556,1.38,13.524.24,11.364.24H11.28C9.12.24,8.088,1.38,8.088,3.516v2.34C8.088,7.9,9.12,9.12,11.28,9.12Zm0-.84c-1.572,0-2.112-.984-2.112-2.436V3.516c0-1.56.528-2.436,2.112-2.436h.084c1.572,0,2.1.876,2.1,2.436V5.844c0,1.452-.528,2.436-2.1,2.436ZM18.516,8.2h-.792V.372h-1.86v.912h.792V8.2h-.792V9h2.652Zm4.692.912c2.016,0,2.952-.468,2.952-2.556,0-1.428-.552-2.052-1.392-2.232.624-.192,1.092-.756,1.092-1.848V2.424c0-1.668-.768-2.172-2.652-2.172h-.864c-1.884,0-2.64.5-2.64,2.172v.048c0,1.08.384,1.656,1.092,1.848-.84.18-1.392.8-1.392,2.232,0,2.088.924,2.556,2.94,2.556Zm-.876-.84c-1.38,0-1.872-.336-1.872-1.728,0-1.3.3-1.776,1.884-1.776h.864c1.6,0,1.9.48,1.9,1.776,0,1.392-.516,1.728-1.884,1.728Zm.876-7.2c1.224,0,1.62.324,1.62,1.368,0,1.092-.432,1.428-1.62,1.428h-.864c-1.188,0-1.62-.336-1.62-1.428,0-1.044.4-1.368,1.62-1.368Z" transform="translate(1394.487 2601.859) rotate(-90)" fill="#fff"/>
              <path id="Path_908" data-name="Path 908" d="M1.8,2.4V1.38a5.817,5.817,0,0,1,1.908-.3c1.4,0,1.9.528,1.9,1.62,0,1.356-1.9,2.784-5.04,5.424V9H6.8V7.128H5.892v1H1.908c2.784-2.316,4.776-3.672,4.776-5.4C6.684,1.02,5.724.24,3.7.24A9.4,9.4,0,0,0,.876.72V2.4Zm9.48,6.72h.084c2.16,0,3.192-1.224,3.192-3.264V3.516C14.556,1.38,13.524.24,11.364.24H11.28C9.12.24,8.088,1.38,8.088,3.516v2.34C8.088,7.9,9.12,9.12,11.28,9.12Zm0-.84c-1.572,0-2.112-.984-2.112-2.436V3.516c0-1.56.528-2.436,2.112-2.436h.084c1.572,0,2.1.876,2.1,2.436V5.844c0,1.452-.528,2.436-2.1,2.436ZM17.016,2.4V1.38a5.817,5.817,0,0,1,1.908-.3c1.4,0,1.9.528,1.9,1.62,0,1.356-1.9,2.784-5.04,5.424V9h6.24V7.128h-.912v1H17.124c2.784-2.316,4.776-3.672,4.776-5.4,0-1.7-.96-2.484-2.988-2.484a9.4,9.4,0,0,0-2.82.48V2.4ZM26.5,9.12h.084c2.16,0,3.192-1.224,3.192-3.264V3.516C29.772,1.38,28.74.24,26.58.24H26.5C24.336.24,23.3,1.38,23.3,3.516v2.34C23.3,7.9,24.336,9.12,26.5,9.12Zm0-.84c-1.572,0-2.112-.984-2.112-2.436V3.516c0-1.56.528-2.436,2.112-2.436h.084c1.572,0,2.1.876,2.1,2.436V5.844c0,1.452-.528,2.436-2.1,2.436Z" transform="translate(1438.487 2601.859) rotate(-90)" fill="#fff"/>
              <path id="Path_62" data-name="Path 62" d="M83.122,14.087C189.453,20.769,295.784,27.45,369.778,31.851s115.652,6.519,176.413,8.716,140.623,4.472,220.486,6.747" transform="translate(685.45 2343.473)" fill="none" stroke="#fff" stroke-width="5"/>
              <path id="Path_885" data-name="Path 885" d="M3.822,14.062H2.73V10.94H4.858c2.31,0,3.416-.532,3.416-3s-1.106-3.01-3.416-3.01H.406v.938H1.484v8.19H.406V15H3.822ZM2.73,10.016V5.858H4.858c1.624,0,2.128.378,2.128,2.086s-.5,2.072-2.128,2.072Zm12.124-.462c0-1.456-.868-2.114-2.758-2.114S9.324,8.1,9.324,9.554v3.472c0,1.456.882,2.114,2.772,2.114s2.758-.658,2.758-2.114Zm-1.176,3.458c0,.784-.448,1.246-1.582,1.246s-1.6-.462-1.6-1.246V9.554c0-.8.448-1.232,1.6-1.232s1.582.434,1.582,1.232Zm5.25,1.05h-.966V4.57H15.89v.938h.9v8.554h-.938V15h3.08ZM20.02,8.518v4.046c0,1.372.084,2.576,1.582,2.576a8.142,8.142,0,0,0,2.6-.854V15h2.058v-.938h-.882V7.58H23.324v.938h.882V13.6a8.019,8.019,0,0,1-2.2.658c-.714,0-.812-.644-.812-1.638V7.58H19.138v.938ZM29.9,14.062h-.966V4.57H26.866v.938h.9v8.554h-.938V15H29.9Zm7.2,0h-.952V10.016c0-1.6-.616-2.576-2.506-2.576a7.9,7.9,0,0,0-2.408.42V9.6h1.022V8.588a4.715,4.715,0,0,1,1.33-.21c1.036,0,1.372.518,1.372,1.638v1.246a6.325,6.325,0,0,0-2.73-.644c-1.288.126-1.554,1.05-1.554,2.254s.266,2.1,1.554,2.24a5.16,5.16,0,0,0,.658,0,6.636,6.636,0,0,0,2.072-.742V15H37.1Zm-4.214-2.716a6.508,6.508,0,0,1,2.072.546v1.876a6.022,6.022,0,0,1-2.072.616c-.826,0-1.022-.63-1.022-1.512S32.06,11.346,32.886,11.346Zm8.5,2.492a4.085,4.085,0,0,1-1.274.308c-.378,0-.588-.21-.588-.756V8.532h1.764V7.58H39.522v-1.6h-1.19v1.6H37.31v.952h1.022v4.886c0,1.246.672,1.722,1.554,1.722a4.855,4.855,0,0,0,1.778-.42Zm3.668.224H44.1V7.58H42.028v.938h.882v5.544h-.952V15h3.094ZM44.1,6.138V4.57H42.91V6.138Zm7.364,3.416c0-1.456-.868-2.114-2.758-2.114s-2.772.658-2.772,2.114v3.472c0,1.456.882,2.114,2.772,2.114s2.758-.658,2.758-2.114Zm-1.176,3.458c0,.784-.448,1.246-1.582,1.246s-1.6-.462-1.6-1.246V9.554c0-.8.448-1.232,1.6-1.232s1.582.434,1.582,1.232Zm9.492,1.05h-.952V10.016c0-1.372-.084-2.576-1.582-2.576a6.566,6.566,0,0,0-2.6,1.218V7.58H52.584v.938h.882v5.544h-.952V15h3.094v-.938h-.966V9.4a6.3,6.3,0,0,1,2.2-1.022c.714,0,.812.644.812,1.638V15H59.78ZM65.24,10.6a11.469,11.469,0,0,1,1.68-6.216l-.406-.336A9.168,9.168,0,0,0,64.008,10.6a9.192,9.192,0,0,0,2.506,6.552l.406-.336A11.469,11.469,0,0,1,65.24,10.6Zm5.485.793L68.333,8.342h1.832l1.483,1.941,1.511-1.941h1.887L72.585,11.4,75.435,15H73.6l-1.955-2.488-2,2.488h-1.88ZM82.5,14.062h-.924V4.934h-2.17V6h.924v8.064h-.924V15H82.5Zm4.83,1.078h.1c2.52,0,3.724-1.428,3.724-3.808V8.6c0-2.492-1.2-3.822-3.724-3.822h-.1c-2.52,0-3.724,1.33-3.724,3.822v2.73C83.609,13.712,84.813,15.14,87.333,15.14Zm0-.98c-1.834,0-2.464-1.148-2.464-2.842V8.6c0-1.82.616-2.842,2.464-2.842h.1c1.834,0,2.45,1.022,2.45,2.842v2.716c0,1.694-.616,2.842-2.45,2.842Zm9.086.98h.1c2.52,0,3.724-1.428,3.724-3.808V8.6c0-2.492-1.2-3.822-3.724-3.822h-.1C93.9,4.78,92.7,6.11,92.7,8.6v2.73C92.7,13.712,93.9,15.14,96.419,15.14Zm0-.98c-1.834,0-2.464-1.148-2.464-2.842V8.6c0-1.82.616-2.842,2.464-2.842h.1c1.834,0,2.45,1.022,2.45,2.842v2.716c0,1.694-.616,2.842-2.45,2.842Zm9.086.98h.1c2.52,0,3.724-1.428,3.724-3.808V8.6c0-2.492-1.2-3.822-3.724-3.822h-.1c-2.52,0-3.724,1.33-3.724,3.822v2.73C101.781,13.712,102.985,15.14,105.505,15.14Zm0-.98c-1.834,0-2.464-1.148-2.464-2.842V8.6c0-1.82.616-2.842,2.464-2.842h.1c1.834,0,2.45,1.022,2.45,2.842v2.716c0,1.694-.616,2.842-2.45,2.842Zm7.042-3.556a11.591,11.591,0,0,1-1.68,6.216l.392.336a9.141,9.141,0,0,0,2.52-6.552,9.117,9.117,0,0,0-2.52-6.552l-.392.336A11.591,11.591,0,0,1,112.547,10.6Z" transform="translate(708 2513.86) rotate(-90)" fill="#fff"/>
              <path id="Path_914" data-name="Path 914" d="M9.044.934H5.628v.938h.994L4.592,6.1,2.534,1.872h.994V.934H.112v.938H1.218L3.962,7.066v3H2.884V11h3.4v-.938H5.208v-3L7.924,1.872h1.12Zm4.144,8.848a6.439,6.439,0,0,1-2.282.42c-1.526,0-1.75-.98-1.75-2.072V7.808c3.486-.028,4.214-.644,4.214-1.33V5.54c0-1.134-.28-2.1-2.072-2.1-2.366,0-3.318.252-3.318,3.038v1.54c0,2.03.658,3.122,2.926,3.122a7.525,7.525,0,0,0,2.52-.5Zm-.952-3.416c0,.434-.812.742-3.08.8V6.2c0-1.764.756-1.876,2.254-1.876.728,0,.826.532.826,1.288Zm8.694,3.7h-.952V6.016c0-1.6-.616-2.576-2.506-2.576a7.9,7.9,0,0,0-2.408.42V5.6h1.022V4.588a4.715,4.715,0,0,1,1.33-.21c1.036,0,1.372.518,1.372,1.638V7.262a6.325,6.325,0,0,0-2.73-.644C14.77,6.744,14.5,7.668,14.5,8.872s.266,2.1,1.554,2.24a5.16,5.16,0,0,0,.658,0,6.636,6.636,0,0,0,2.072-.742V11H20.93ZM16.716,7.346a6.508,6.508,0,0,1,2.072.546V9.768a6.022,6.022,0,0,1-2.072.616c-.826,0-1.022-.63-1.022-1.512S15.89,7.346,16.716,7.346Zm7.8,2.716h-.952V5.456c.364-.308,1.218-1.078,1.666-1.078.364,0,.406.266.42.672v.518H26.67V5.05c0-1.106-.1-1.61-1.036-1.61-.616,0-1.624.882-2.072,1.274V3.622H21.5V4.56h.882v5.5H21.42V11h3.094Z" transform="translate(1096.028 2609.651)" fill="#fff"/>
              <path id="Path_907" data-name="Path 907" d="M7.126,3.146V1.2A5.1,5.1,0,0,0,4.9.794H4.732C2.072.794.8,1.7.8,4.518V7.4c0,2.828,1.274,3.738,3.934,3.738H4.9a6.658,6.658,0,0,0,2.282-.378l-.238-.98a6.489,6.489,0,0,1-2.044.35H4.732c-2,0-2.66-.714-2.66-2.73V4.518c0-2,.658-2.73,2.66-2.73H4.9a5.791,5.791,0,0,1,1.162.126V3.146Zm6.482,2.408c0-1.456-.868-2.114-2.758-2.114S8.078,4.1,8.078,5.554V9.026c0,1.456.882,2.114,2.772,2.114s2.758-.658,2.758-2.114ZM12.432,9.012c0,.784-.448,1.246-1.582,1.246s-1.6-.462-1.6-1.246V5.554c0-.8.448-1.232,1.6-1.232s1.582.434,1.582,1.232Zm8.96,1.05H20.44V6.016c0-1.6-.616-2.576-2.506-2.576a7.9,7.9,0,0,0-2.408.42V5.6h1.022V4.588a4.715,4.715,0,0,1,1.33-.21c1.036,0,1.372.518,1.372,1.638V7.262a6.325,6.325,0,0,0-2.73-.644c-1.288.126-1.554,1.05-1.554,2.254s.266,2.1,1.554,2.24a5.16,5.16,0,0,0,.658,0,6.636,6.636,0,0,0,2.072-.742V11h2.142ZM17.178,7.346a6.508,6.508,0,0,1,2.072.546V9.768a6.022,6.022,0,0,1-2.072.616c-.826,0-1.022-.63-1.022-1.512S16.352,7.346,17.178,7.346Zm7.8,2.716H24.01V.57H21.938v.938h.9v8.554H21.9V11h3.08ZM35.812,2.894V.934H28.728v.938h1.078v8.19H28.728V11h6.006v.014h1.078V9.054H34.734v1.008H31.052V6.3h3.332V5.358H31.052V1.872h3.682V2.894Zm2.562.686H36.6v.938h.952l1.4,2.772-1.526,2.772h-.91V11H38.29l1.526-3.108L41.314,11h1.778v-.938h-.924L40.684,7.276l1.344-2.758H42.9V3.58h-1.75l-1.33,3.08ZM47.53,9.838a4.085,4.085,0,0,1-1.274.308c-.378,0-.588-.21-.588-.756V4.532h1.764V3.58H45.668v-1.6h-1.19v1.6H43.456v.952h1.022V9.418c0,1.246.672,1.722,1.554,1.722a4.855,4.855,0,0,0,1.778-.42Zm3.668.224h-.952V5.456c.364-.308,1.218-1.078,1.666-1.078.364,0,.406.266.42.672v.518h1.022V5.05c0-1.106-.1-1.61-1.036-1.61-.616,0-1.624.882-2.072,1.274V3.622H48.188V4.56h.882v5.5H48.1V11H51.2Zm9.142,0h-.952V6.016c0-1.6-.616-2.576-2.506-2.576a7.9,7.9,0,0,0-2.408.42V5.6H55.5V4.588a4.715,4.715,0,0,1,1.33-.21c1.036,0,1.372.518,1.372,1.638V7.262a6.325,6.325,0,0,0-2.73-.644c-1.288.126-1.554,1.05-1.554,2.254s.266,2.1,1.554,2.24a5.16,5.16,0,0,0,.658,0A6.636,6.636,0,0,0,58.2,10.37V11H60.34ZM56.126,7.346a6.508,6.508,0,0,1,2.072.546V9.768a6.022,6.022,0,0,1-2.072.616c-.826,0-1.022-.63-1.022-1.512S55.3,7.346,56.126,7.346Zm9.954-1.82V3.8a6.411,6.411,0,0,0-1.96-.364c-2.268,0-2.926,1.12-2.926,3.122V8.018c0,2,.658,3.122,2.926,3.122a10.253,10.253,0,0,0,2.072-.28l-.126-.868a9.565,9.565,0,0,1-1.946.21c-1.512,0-1.75-.966-1.75-2.072V6.45c0-1.106.238-2.072,1.75-2.072a4.708,4.708,0,0,1,.938.1v1.05Zm4.956,4.312a4.085,4.085,0,0,1-1.274.308c-.378,0-.588-.21-.588-.756V4.532h1.764V3.58H69.174v-1.6h-1.19v1.6H66.962v.952h1.022V9.418c0,1.246.672,1.722,1.554,1.722a4.855,4.855,0,0,0,1.778-.42Zm3.668.224h-.952V3.58H71.68v.938h.882v5.544H71.61V11H74.7Zm-.952-7.924V.57h-1.19V2.138Zm7.364,3.416c0-1.456-.868-2.114-2.758-2.114s-2.772.658-2.772,2.114V9.026c0,1.456.882,2.114,2.772,2.114s2.758-.658,2.758-2.114ZM79.94,9.012c0,.784-.448,1.246-1.582,1.246s-1.6-.462-1.6-1.246V5.554c0-.8.448-1.232,1.6-1.232s1.582.434,1.582,1.232Zm9.492,1.05H88.48V6.016c0-1.372-.084-2.576-1.582-2.576a6.566,6.566,0,0,0-2.6,1.218V3.58H82.236v.938h.882v5.544h-.952V11H85.26v-.938h-.966V5.4a6.3,6.3,0,0,1,2.2-1.022c.714,0,.812.644.812,1.638V11h2.128ZM94.892,6.6A11.469,11.469,0,0,1,96.572.388L96.166.052A9.168,9.168,0,0,0,93.66,6.6a9.192,9.192,0,0,0,2.506,6.552l.406-.336A11.469,11.469,0,0,1,94.892,6.6Zm6.776-5.67H99.33v.938h1.064l-1.862,8.19h-1.12V11h3.374v-.938H99.778l1.456-7.168,2.9,8.246h1.19l2.87-8.246,1.47,7.168h-.98V11h3.374v-.938h-1.134l-1.862-8.19h1.05V.934h-2.324l-3.052,8.68Zm14.728,8.9a4.085,4.085,0,0,1-1.274.308c-.378,0-.588-.21-.588-.756V4.532H116.3V3.58h-1.764v-1.6h-1.19v1.6h-1.022v.952h1.022V9.418c0,1.246.672,1.722,1.554,1.722a4.855,4.855,0,0,0,1.778-.42Zm2.73-3.234a11.591,11.591,0,0,1-1.68,6.216l.392.336a9.141,9.141,0,0,0,2.52-6.552,9.117,9.117,0,0,0-2.52-6.552l-.392.336A11.591,11.591,0,0,1,119.126,6.6Z" transform="translate(1490.532 2499.513) rotate(-90)" fill="#a8881b"/>
            </g>
          </g>
          <path id="Path_925" data-name="Path 925" d="M3.836,7.024V6.688H1.176v.336ZM14.084,2.5V1.158A5.939,5.939,0,0,0,11.956.794c-1.134,0-2.758.49-2.758,2.142,0,2.66,4.788,3.262,4.788,5.67,0,1.722-1.218,2.2-2.59,2.2a7.155,7.155,0,0,1-2.016-.28V9.418H9.016v1.344a6.311,6.311,0,0,0,2.366.378c1.54,0,2.982-.616,2.982-2.506,0-2.7-4.788-3.3-4.788-5.684,0-1.344,1.19-1.82,2.366-1.82A6.168,6.168,0,0,1,13.72,1.4V2.5ZM20.762,5.47c0-1.33-.77-2.058-2.464-2.058s-2.464.728-2.464,2.058V9.082c0,1.33.77,2.058,2.464,2.058s2.464-.728,2.464-2.058Zm-.364,3.6c0,1.12-.63,1.75-2.1,1.75s-2.1-.63-2.1-1.75V5.47c0-1.12.63-1.736,2.1-1.736s2.1.616,2.1,1.736Zm2.548-5.194V8.7c0,1.316.084,2.436,1.47,2.436a9.886,9.886,0,0,0,2.912-.938V11h1.358v-.322h-.994V3.552H26.334v.322h.994V9.866a10.021,10.021,0,0,1-2.912.952c-.938,0-1.106-.812-1.106-2.114V3.552H21.952v.322Zm8.988,6.8h-1.12V5.106c.518-.406,1.61-1.372,2.212-1.372.448,0,.462.322.476.812v.532h.364V4.546c0-.63-.014-1.134-.84-1.134-.616,0-1.862,1.036-2.212,1.344V3.622H29.456v.322h.994v6.734H29.316V11h2.618Zm7.49-5.67V3.664a6.877,6.877,0,0,0-1.75-.252c-2.24,0-2.548,1.162-2.548,3.206V7.934c0,2.044.308,3.206,2.548,3.206a8.819,8.819,0,0,0,1.848-.224l-.028-.294a8.147,8.147,0,0,1-1.82.2c-2.142,0-2.184-1.386-2.184-2.884V6.618c0-1.5.042-2.884,2.184-2.884a6.813,6.813,0,0,1,1.386.182V5.008Zm6.524,5.348a5.251,5.251,0,0,1-2.2.462c-2.156,0-2.184-1.414-2.184-2.884V7.556c3.738,0,4.494-.574,4.494-1.148V5.526c0-1.148-.14-2.114-1.5-2.114-2.324,0-3.36.154-3.36,3.206V7.934c0,2.044.308,3.206,2.548,3.206a5.572,5.572,0,0,0,2.31-.49ZM45.7,6.366c0,.448-.938.868-4.13.868V6.618c0-2.786.8-2.884,3-2.884.98,0,1.134.644,1.134,1.792ZM47.908,11v-.966h-.364V11Zm0-6.594V3.412h-.364v.994ZM57.5,2.5V1.158A5.939,5.939,0,0,0,55.37.794c-1.134,0-2.758.49-2.758,2.142,0,2.66,4.788,3.262,4.788,5.67,0,1.722-1.218,2.2-2.59,2.2a7.155,7.155,0,0,1-2.016-.28V9.418H52.43v1.344a6.311,6.311,0,0,0,2.366.378c1.54,0,2.982-.616,2.982-2.506,0-2.7-4.788-3.3-4.788-5.684,0-1.344,1.19-1.82,2.366-1.82a6.168,6.168,0,0,1,1.778.266V2.5Zm5.054,7.952a3.657,3.657,0,0,1-1.442.364c-.434,0-.77-.294-.77-1.134V3.874h1.988V3.552H60.34V1.984h-.364V3.552H58.758v.322h1.218V9.7c0,1.05.476,1.442,1.134,1.442a3.888,3.888,0,0,0,1.568-.406Zm3.094.224h-1.12V5.106c.518-.406,1.61-1.372,2.212-1.372.448,0,.462.322.476.812v.532h.364V4.546c0-.63-.014-1.134-.84-1.134-.616,0-1.862,1.036-2.212,1.344V3.622H63.168v.322h.994v6.734H63.028V11h2.618Zm8.946,0h-1.12V5.764c0-1.456-.336-2.352-2.1-2.352a6.144,6.144,0,0,0-2.17.448V5.2h.364V4.07a6.048,6.048,0,0,1,1.806-.322c1.47,0,1.736.756,1.736,2.016V7.43a7.774,7.774,0,0,0-2.842-.77c-1.246,0-1.638.84-1.638,2.24s.392,2.24,1.638,2.24a3.832,3.832,0,0,0,.7-.056,11.293,11.293,0,0,0,2.142-.714V11h1.484ZM70.266,7.01a8.181,8.181,0,0,1,2.842.77v2.24a8.181,8.181,0,0,1-2.842.77c-1.008,0-1.26-.756-1.26-1.89S69.258,7.01,70.266,7.01Zm8.61,3.444a3.657,3.657,0,0,1-1.442.364c-.434,0-.77-.294-.77-1.134V3.874h1.988V3.552H76.664V1.984H76.3V3.552H75.082v.322H76.3V9.7c0,1.05.476,1.442,1.134,1.442A3.888,3.888,0,0,0,79,10.734Zm5.712-.1a5.251,5.251,0,0,1-2.2.462c-2.156,0-2.184-1.414-2.184-2.884V7.556c3.738,0,4.494-.574,4.494-1.148V5.526c0-1.148-.14-2.114-1.5-2.114-2.324,0-3.36.154-3.36,3.206V7.934c0,2.044.308,3.206,2.548,3.206a5.572,5.572,0,0,0,2.31-.49Zm-.252-3.99c0,.448-.938.868-4.13.868V6.618c0-2.786.8-2.884,3-2.884.98,0,1.134.644,1.134,1.792Zm2.114-.518V8.7c0,1.316.084,2.436,1.47,2.436a9.52,9.52,0,0,0,2.842-.9v1.008c0,1.456-.028,2.618-.994,2.618a19.64,19.64,0,0,1-3.178-.588l-.084.336a19.426,19.426,0,0,0,3.262.6c1.12,0,1.358-.868,1.358-2.968v-7.7h-.364V4.714a7.115,7.115,0,0,0-2.842-1.3C86.534,3.412,86.45,4.532,86.45,5.848ZM86.814,8.7V5.848c0-1.3.168-2.114,1.106-2.114A7.383,7.383,0,0,1,90.762,5.05V9.894a9.664,9.664,0,0,1-2.842.924C86.982,10.818,86.814,10.006,86.814,8.7Zm6.776-4.83V8.7c0,1.316.084,2.436,1.47,2.436a9.886,9.886,0,0,0,2.912-.938v1.05c0,1.456-.028,2.618-.994,2.618a19.64,19.64,0,0,1-3.178-.588l-.084.336a19.426,19.426,0,0,0,3.262.6c1.12,0,1.358-.868,1.358-2.968v-7.7H96.978v.322h.994V9.866a10.021,10.021,0,0,1-2.912.952c-.938,0-1.106-.812-1.106-2.114V3.552H92.6v.322Zm15.134,1.6c0-1.33-.77-2.058-2.464-2.058S103.8,4.14,103.8,5.47V9.082c0,1.33.77,2.058,2.464,2.058s2.464-.728,2.464-2.058Zm-.364,3.6c0,1.12-.63,1.75-2.1,1.75s-2.1-.63-2.1-1.75V5.47c0-1.12.63-1.736,2.1-1.736s2.1.616,2.1,1.736Zm4.326,1.61h-1.12v-6.8h1.708V3.552h-1.708V3.23c0-1.652.126-2.38,1.344-2.38a2.229,2.229,0,0,1,.826.14l.084-.308A2.668,2.668,0,0,0,112.9.528c-1.316,0-1.694.672-1.694,2.7v.322h-1.148v.322H111.2v6.8h-1.134V11h2.618Zm13.1,0h-1.33l-2.2-4.228c1.638-.112,2.408-.742,2.408-2.758,0-2.268-.966-2.758-3.024-2.758H117.39v.322h1.246v9.422H117.39V11h2.87v-.322h-1.246V6.464h2.856L124.208,11h1.582Zm-6.776-4.522V1.242h2.632c1.918,0,2.646.42,2.646,2.45s-.728,2.464-2.646,2.464Zm8.12-2.282V8.7c0,1.316.084,2.436,1.47,2.436a9.886,9.886,0,0,0,2.912-.938V11h1.358v-.322h-.994V3.552h-1.358v.322h.994V9.866a10.021,10.021,0,0,1-2.912.952c-.938,0-1.106-.812-1.106-2.114V3.552H126.14v.322Zm11.13,1.3V3.832a4.741,4.741,0,0,0-2.058-.42c-.966,0-2.31.392-2.31,1.792,0,2.31,4.116,1.848,4.116,3.878,0,1.4-.938,1.736-1.932,1.736a5.691,5.691,0,0,1-2-.336V9.362h-.364v1.344a5.913,5.913,0,0,0,2.366.434c1.2,0,2.268-.462,2.268-2.058,0-2.338-4.116-1.876-4.116-3.878,0-1.078,1.022-1.47,1.974-1.47a4.082,4.082,0,0,1,1.694.322v1.12Zm6.034,0V3.832a4.741,4.741,0,0,0-2.058-.42c-.966,0-2.31.392-2.31,1.792,0,2.31,4.116,1.848,4.116,3.878,0,1.4-.938,1.736-1.932,1.736a5.691,5.691,0,0,1-2-.336V9.362h-.364v1.344a5.913,5.913,0,0,0,2.366.434c1.2,0,2.268-.462,2.268-2.058,0-2.338-4.116-1.876-4.116-3.878,0-1.078,1.022-1.47,1.974-1.47a4.082,4.082,0,0,1,1.694.322v1.12Zm3.822,5.5h-1.134V3.552H145.6v.322h1.022v6.8H145.5V11h2.618ZM146.986,1.55V.57h-.364v.98Zm8.218,9.128h-1.12V5.764c0-1.456-.336-2.352-2.1-2.352a6.144,6.144,0,0,0-2.17.448V5.2h.364V4.07a6.048,6.048,0,0,1,1.806-.322c1.47,0,1.736.756,1.736,2.016V7.43a7.774,7.774,0,0,0-2.842-.77c-1.246,0-1.638.84-1.638,2.24s.392,2.24,1.638,2.24a3.832,3.832,0,0,0,.7-.056,11.293,11.293,0,0,0,2.142-.714V11H155.2ZM150.878,7.01a8.182,8.182,0,0,1,2.842.77v2.24a8.182,8.182,0,0,1-2.842.77c-1.008,0-1.26-.756-1.26-1.89S149.87,7.01,150.878,7.01Zm11.942,3.668H161.7V5.848c0-1.316-.084-2.436-1.47-2.436a7.89,7.89,0,0,0-2.912,1.344v-1.2H155.96v.322h.994v6.8h-1.12V11h2.618v-.322h-1.134V5.106a8.059,8.059,0,0,1,2.912-1.372c.938,0,1.106.812,1.106,2.114V11h1.484Zm10.024-8.33V1a7.147,7.147,0,0,0-1.834-.21H170.9c-2.436,0-3.6.882-3.6,3.6v3.15c0,2.716,1.162,3.6,3.6,3.6h.112a7.147,7.147,0,0,0,1.834-.21l-.07-.322a6.62,6.62,0,0,1-1.764.21H170.9c-2.212,0-3.22-.784-3.22-3.276V4.392c0-2.492,1.008-3.276,3.22-3.276h.112a6.678,6.678,0,0,1,1.47.14V2.348Zm6.328,3.122c0-1.33-.77-2.058-2.464-2.058s-2.464.728-2.464,2.058V9.082c0,1.33.77,2.058,2.464,2.058s2.464-.728,2.464-2.058Zm-.364,3.6c0,1.12-.63,1.75-2.1,1.75s-2.1-.63-2.1-1.75V5.47c0-1.12.63-1.736,2.1-1.736s2.1.616,2.1,1.736Zm8.148,1.61h-1.12V5.764c0-1.456-.336-2.352-2.1-2.352a6.144,6.144,0,0,0-2.17.448V5.2h.364V4.07a6.048,6.048,0,0,1,1.806-.322c1.47,0,1.736.756,1.736,2.016V7.43a7.773,7.773,0,0,0-2.842-.77c-1.246,0-1.638.84-1.638,2.24s.392,2.24,1.638,2.24a3.832,3.832,0,0,0,.7-.056,11.292,11.292,0,0,0,2.142-.714V11h1.484ZM182.63,7.01a8.181,8.181,0,0,1,2.842.77v2.24a8.181,8.181,0,0,1-2.842.77c-1.008,0-1.26-.756-1.26-1.89S181.622,7.01,182.63,7.01Zm7.574,3.668H189.07V.57h-1.386V.892h1.022v9.786h-1.12V11H190.2Zm6.4,0h-1.2l1.946-9.212,3.388,9.674h.35l3.388-9.674,1.946,9.212h-1.19V11h2.9v-.322h-1.33l-2.058-9.422h1.218V.934H204.33l-3.416,9.688L197.47.934h-1.624v.322h1.232l-2.058,9.422H193.7V11h2.9Zm14.56,0h-1.134V3.552h-1.386v.322h1.022v6.8h-1.12V11h2.618ZM210.028,1.55V.57h-.364v.98Zm8.75,9.128h-1.12V5.848c0-1.316-.084-2.436-1.47-2.436a7.89,7.89,0,0,0-2.912,1.344v-1.2h-1.358v.322h.994v6.8h-1.12V11h2.618v-.322h-1.134V5.106a8.059,8.059,0,0,1,2.912-1.372c.938,0,1.106.812,1.106,2.114V11h1.484Zm3.248,0h-1.134V3.552h-1.386v.322h1.022v6.8h-1.12V11h2.618ZM220.892,1.55V.57h-.364v.98Zm8.75,9.128h-1.12V5.848c0-1.316-.084-2.436-1.47-2.436a7.89,7.89,0,0,0-2.912,1.344v-1.2h-1.358v.322h.994v6.8h-1.12V11h2.618v-.322H224.14V5.106a8.059,8.059,0,0,1,2.912-1.372c.938,0,1.106.812,1.106,2.114V11h1.484Zm1.12-4.83V8.7c0,1.316.084,2.436,1.47,2.436a9.52,9.52,0,0,0,2.842-.9v1.008c0,1.456-.028,2.618-.994,2.618a19.64,19.64,0,0,1-3.178-.588l-.084.336a19.426,19.426,0,0,0,3.262.6c1.12,0,1.358-.868,1.358-2.968v-7.7h-.364V4.714a7.115,7.115,0,0,0-2.842-1.3C230.846,3.412,230.762,4.532,230.762,5.848Zm.364,2.856V5.848c0-1.3.168-2.114,1.106-2.114a7.383,7.383,0,0,1,2.842,1.316V9.894a9.664,9.664,0,0,1-2.842.924C231.294,10.818,231.126,10.006,231.126,8.7Zm15.652-6.426V.934h-6.51v.322h1.246v9.422h-1.246V11h6.146v.014h.364V9.67h-.364v1.008h-4.522V6h3.92V5.68h-3.92V1.256h4.522V2.278Zm8.036,8.4h-1.12V5.848c0-1.316-.084-2.436-1.47-2.436a7.89,7.89,0,0,0-2.912,1.344v-1.2h-1.358v.322h.994v6.8h-1.12V11h2.618v-.322h-1.134V5.106a8.059,8.059,0,0,1,2.912-1.372c.938,0,1.106.812,1.106,2.114V11h1.484Zm4.214-.224a3.657,3.657,0,0,1-1.442.364c-.434,0-.77-.294-.77-1.134V3.874H258.8V3.552h-1.988V1.984h-.364V3.552h-1.218v.322h1.218V9.7c0,1.05.476,1.442,1.134,1.442a3.888,3.888,0,0,0,1.568-.406Zm5.712-.1a5.251,5.251,0,0,1-2.2.462c-2.156,0-2.184-1.414-2.184-2.884V7.556c3.738,0,4.494-.574,4.494-1.148V5.526c0-1.148-.14-2.114-1.5-2.114-2.324,0-3.36.154-3.36,3.206V7.934c0,2.044.308,3.206,2.548,3.206a5.572,5.572,0,0,0,2.31-.49Zm-.252-3.99c0,.448-.938.868-4.13.868V6.618c0-2.786.8-2.884,3-2.884.98,0,1.134.644,1.134,1.792Zm4.172,4.312h-1.12V5.106c.518-.406,1.61-1.372,2.212-1.372.448,0,.462.322.476.812v.532h.364V4.546c0-.63-.014-1.134-.84-1.134-.616,0-1.862,1.036-2.212,1.344V3.622h-1.358v.322h.994v6.734h-1.134V11h2.618Zm8.568-4.83c0-1.316-.084-2.436-1.47-2.436a7.029,7.029,0,0,0-2.842,1.3V3.552h-1.358v.322h.994V13.66h-1.12v.322h3.038V13.66h-1.554V10.244a9.393,9.393,0,0,0,2.842.9c1.386,0,1.47-1.12,1.47-2.436ZM276.864,8.7c0,1.3-.168,2.114-1.106,2.114a9.664,9.664,0,0,1-2.842-.924V5.05a7.383,7.383,0,0,1,2.842-1.316c.938,0,1.106.812,1.106,2.114Zm4.312,1.974h-1.12V5.106c.518-.406,1.61-1.372,2.212-1.372.448,0,.462.322.476.812v.532h.364V4.546c0-.63-.014-1.134-.84-1.134-.616,0-1.862,1.036-2.212,1.344V3.622H278.7v.322h.994v6.734h-1.134V11h2.618Zm5.39,0h-1.134V3.552h-1.386v.322h1.022v6.8h-1.12V11h2.618ZM285.432,1.55V.57h-.364v.98Zm6.524,3.626V3.832a4.741,4.741,0,0,0-2.058-.42c-.966,0-2.31.392-2.31,1.792,0,2.31,4.116,1.848,4.116,3.878,0,1.4-.938,1.736-1.932,1.736a5.691,5.691,0,0,1-2-.336V9.362h-.364v1.344a5.913,5.913,0,0,0,2.366.434c1.2,0,2.268-.462,2.268-2.058,0-2.338-4.116-1.876-4.116-3.878,0-1.078,1.022-1.47,1.974-1.47a4.082,4.082,0,0,1,1.694.322v1.12Zm6.51,5.18a5.251,5.251,0,0,1-2.2.462c-2.156,0-2.184-1.414-2.184-2.884V7.556c3.738,0,4.494-.574,4.494-1.148V5.526c0-1.148-.14-2.114-1.5-2.114-2.324,0-3.36.154-3.36,3.206V7.934c0,2.044.308,3.206,2.548,3.206a5.572,5.572,0,0,0,2.31-.49Zm-.252-3.99c0,.448-.938.868-4.13.868V6.618c0-2.786.8-2.884,3-2.884.98,0,1.134.644,1.134,1.792Zm6.384-1.19V3.832a4.741,4.741,0,0,0-2.058-.42c-.966,0-2.31.392-2.31,1.792,0,2.31,4.116,1.848,4.116,3.878,0,1.4-.938,1.736-1.932,1.736a5.691,5.691,0,0,1-2-.336V9.362h-.364v1.344a5.913,5.913,0,0,0,2.366.434c1.2,0,2.268-.462,2.268-2.058,0-2.338-4.116-1.876-4.116-3.878,0-1.078,1.022-1.47,1.974-1.47a4.082,4.082,0,0,1,1.694.322v1.12Zm1.386-1.442.952-2.8h-.35l-.952,2.8Zm11.144-1.456V.934h-6.51v.322h1.246v9.422h-1.246V11h6.146v.014h.364V9.67h-.364v1.008h-4.522V6h3.92V5.68h-3.92V1.256h4.522V2.278ZM319.4,3.552h-1.274v.322h1.022l1.722,3.36-1.876,3.444h-1.022V11h1.26l1.9-3.528L322.994,11h1.274v-.322h-1.05L321.4,7.234l1.638-3.36h1.05V3.552h-1.274l-1.68,3.472Zm10.15,1.456V3.664a6.877,6.877,0,0,0-1.75-.252c-2.24,0-2.548,1.162-2.548,3.206V7.934c0,2.044.308,3.206,2.548,3.206a8.819,8.819,0,0,0,1.848-.224l-.028-.294a8.147,8.147,0,0,1-1.82.2c-2.142,0-2.184-1.386-2.184-2.884V6.618c0-1.5.042-2.884,2.184-2.884a6.813,6.813,0,0,1,1.386.182V5.008Zm7.392,5.67h-1.12V5.764c0-1.456-.336-2.352-2.1-2.352a6.144,6.144,0,0,0-2.17.448V5.2h.364V4.07a6.048,6.048,0,0,1,1.806-.322c1.47,0,1.736.756,1.736,2.016V7.43a7.774,7.774,0,0,0-2.842-.77c-1.246,0-1.638.84-1.638,2.24s.392,2.24,1.638,2.24a3.832,3.832,0,0,0,.7-.056,11.292,11.292,0,0,0,2.142-.714V11h1.484ZM332.612,7.01a8.182,8.182,0,0,1,2.842.77v2.24a8.182,8.182,0,0,1-2.842.77c-1.008,0-1.26-.756-1.26-1.89S331.6,7.01,332.612,7.01Zm6.734-3.458h-2.618v.322h1.148l2.268,7.266h.224l2.226-7.266h1.176V3.552h-2.618v.322h1.064l-1.96,6.552-2-6.552h1.092Zm10.738,7.126h-1.12V5.764c0-1.456-.336-2.352-2.1-2.352a6.144,6.144,0,0,0-2.17.448V5.2h.364V4.07a6.048,6.048,0,0,1,1.806-.322c1.47,0,1.736.756,1.736,2.016V7.43a7.774,7.774,0,0,0-2.842-.77c-1.246,0-1.638.84-1.638,2.24s.392,2.24,1.638,2.24a3.832,3.832,0,0,0,.7-.056,11.292,11.292,0,0,0,2.142-.714V11h1.484ZM345.758,7.01a8.182,8.182,0,0,1,2.842.77v2.24a8.182,8.182,0,0,1-2.842.77c-1.008,0-1.26-.756-1.26-1.89S344.75,7.01,345.758,7.01Zm8.61,3.444a3.657,3.657,0,0,1-1.442.364c-.434,0-.77-.294-.77-1.134V3.874h1.988V3.552h-1.988V1.984h-.364V3.552h-1.218v.322h1.218V9.7c0,1.05.476,1.442,1.134,1.442a3.889,3.889,0,0,0,1.568-.406Zm5.894-4.984c0-1.33-.77-2.058-2.464-2.058s-2.464.728-2.464,2.058V9.082c0,1.33.77,2.058,2.464,2.058s2.464-.728,2.464-2.058Zm-.364,3.6c0,1.12-.63,1.75-2.1,1.75s-2.1-.63-2.1-1.75V5.47c0-1.12.63-1.736,2.1-1.736s2.1.616,2.1,1.736Zm4.312,1.61h-1.12V5.106c.518-.406,1.61-1.372,2.212-1.372.448,0,.462.322.476.812v.532h.364V4.546c0-.63-.014-1.134-.84-1.134-.616,0-1.862,1.036-2.212,1.344V3.622h-1.358v.322h.994v6.734h-1.134V11h2.618ZM374.528.934h-4.256v.322h1.246v9.422h-1.246V11h2.87v-.322H371.9V6.464h2.632c2.058,0,3.024-.518,3.024-2.772S376.586.934,374.528.934ZM371.9,6.156V1.242h2.632c1.918,0,2.646.42,2.646,2.45s-.728,2.464-2.646,2.464Zm13.02,4.522H383.8V5.764c0-1.456-.336-2.352-2.1-2.352a6.144,6.144,0,0,0-2.17.448V5.2h.364V4.07a6.048,6.048,0,0,1,1.806-.322c1.47,0,1.736.756,1.736,2.016V7.43a7.774,7.774,0,0,0-2.842-.77c-1.246,0-1.638.84-1.638,2.24s.392,2.24,1.638,2.24a3.832,3.832,0,0,0,.7-.056,11.292,11.292,0,0,0,2.142-.714V11h1.484ZM380.59,7.01a8.182,8.182,0,0,1,2.842.77v2.24a8.182,8.182,0,0,1-2.842.77c-1.008,0-1.26-.756-1.26-1.89S379.582,7.01,380.59,7.01Zm7.574,3.668h-1.12V5.106c.518-.406,1.61-1.372,2.212-1.372.448,0,.462.322.476.812v.532h.364V4.546c0-.63-.014-1.134-.84-1.134-.616,0-1.862,1.036-2.212,1.344V3.622h-1.358v.322h.994v6.734h-1.134V11h2.618ZM392.126.57h-1.358V.892h.994v9.786h-1.106V11h2.618v-.322h-1.148V7.234L395.612,11h1.218v-.322h-1.05l-3.234-3.514,3.066-3.29h1.078V3.552h-1.2l-3.36,3.556Zm14.63,1.708V.934H399.9V2.278h.364V1.256h2.87v9.422h-1.246V11h2.87v-.322h-1.246V1.256h2.884V2.278Zm4.256,8.078a5.251,5.251,0,0,1-2.2.462c-2.156,0-2.184-1.414-2.184-2.884V7.556c3.738,0,4.494-.574,4.494-1.148V5.526c0-1.148-.14-2.114-1.5-2.114-2.324,0-3.36.154-3.36,3.206V7.934c0,2.044.308,3.206,2.548,3.206a5.572,5.572,0,0,0,2.31-.49Zm-.252-3.99c0,.448-.938.868-4.13.868V6.618c0-2.786.8-2.884,3-2.884.98,0,1.134.644,1.134,1.792Zm6.412-1.358V3.664a6.877,6.877,0,0,0-1.75-.252c-2.24,0-2.548,1.162-2.548,3.206V7.934c0,2.044.308,3.206,2.548,3.206a8.819,8.819,0,0,0,1.848-.224l-.028-.294a8.147,8.147,0,0,1-1.82.2c-2.142,0-2.184-1.386-2.184-2.884V6.618c0-1.5.042-2.884,2.184-2.884a6.813,6.813,0,0,1,1.386.182V5.008Zm3.7,5.67h-1.134V5.106a8.059,8.059,0,0,1,2.912-1.372c.938,0,1.106.812,1.106,2.114V11h1.624v-.322h-1.26V5.848c0-1.316-.084-2.436-1.47-2.436a7.89,7.89,0,0,0-2.912,1.344V.57h-1.358V.892h.994v9.786h-1.12V11h2.618Zm12.124,0h-1.12V5.848c0-1.316-.084-2.436-1.47-2.436a7.89,7.89,0,0,0-2.912,1.344v-1.2h-1.358v.322h.994v6.8h-1.12V11h2.618v-.322H427.49V5.106A8.059,8.059,0,0,1,430.4,3.734c.938,0,1.106.812,1.106,2.114V11h1.484Zm3.248,0h-1.134V3.552H433.72v.322h1.022v6.8h-1.12V11h2.618ZM435.106,1.55V.57h-.364v.98Zm6.622,3.458V3.664a6.877,6.877,0,0,0-1.75-.252c-2.24,0-2.548,1.162-2.548,3.206V7.934c0,2.044.308,3.206,2.548,3.206a8.819,8.819,0,0,0,1.848-.224l-.028-.294a8.147,8.147,0,0,1-1.82.2c-2.142,0-2.184-1.386-2.184-2.884V6.618c0-1.5.042-2.884,2.184-2.884a6.813,6.813,0,0,1,1.386.182V5.008Zm7.392,5.67H448V5.764c0-1.456-.336-2.352-2.1-2.352a6.144,6.144,0,0,0-2.17.448V5.2h.364V4.07a6.048,6.048,0,0,1,1.806-.322c1.47,0,1.736.756,1.736,2.016V7.43a7.774,7.774,0,0,0-2.842-.77c-1.246,0-1.638.84-1.638,2.24s.392,2.24,1.638,2.24a3.832,3.832,0,0,0,.7-.056,11.292,11.292,0,0,0,2.142-.714V11h1.484ZM444.794,7.01a8.182,8.182,0,0,1,2.842.77v2.24a8.182,8.182,0,0,1-2.842.77c-1.008,0-1.26-.756-1.26-1.89S443.786,7.01,444.794,7.01Zm7.574,3.668h-1.134V.57h-1.386V.892h1.022v9.786h-1.12V11h2.618Zm9.38-8.176V1.158A5.939,5.939,0,0,0,459.62.794c-1.134,0-2.758.49-2.758,2.142,0,2.66,4.788,3.262,4.788,5.67,0,1.722-1.218,2.2-2.59,2.2a7.155,7.155,0,0,1-2.016-.28V9.418h-.364v1.344a6.311,6.311,0,0,0,2.366.378c1.54,0,2.982-.616,2.982-2.506,0-2.7-4.788-3.3-4.788-5.684,0-1.344,1.19-1.82,2.366-1.82a6.168,6.168,0,0,1,1.778.266V2.5Zm5.054,7.952a3.657,3.657,0,0,1-1.442.364c-.434,0-.77-.294-.77-1.134V3.874h1.988V3.552H464.59V1.984h-.364V3.552h-1.218v.322h1.218V9.7c0,1.05.476,1.442,1.134,1.442a3.889,3.889,0,0,0,1.568-.406Zm6.93.224h-1.12V5.764c0-1.456-.336-2.352-2.1-2.352a6.144,6.144,0,0,0-2.17.448V5.2h.364V4.07a6.048,6.048,0,0,1,1.806-.322c1.47,0,1.736.756,1.736,2.016V7.43a7.774,7.774,0,0,0-2.842-.77c-1.246,0-1.638.84-1.638,2.24s.392,2.24,1.638,2.24a3.832,3.832,0,0,0,.7-.056,11.292,11.292,0,0,0,2.142-.714V11h1.484ZM469.406,7.01a8.182,8.182,0,0,1,2.842.77v2.24a8.182,8.182,0,0,1-2.842.77c-1.008,0-1.26-.756-1.26-1.89S468.4,7.01,469.406,7.01Zm8.61,3.444a3.657,3.657,0,0,1-1.442.364c-.434,0-.77-.294-.77-1.134V3.874h1.988V3.552H475.8V1.984h-.364V3.552h-1.218v.322h1.218V9.7c0,1.05.476,1.442,1.134,1.442a3.889,3.889,0,0,0,1.568-.406Zm5.712-.1a5.251,5.251,0,0,1-2.2.462c-2.156,0-2.184-1.414-2.184-2.884V7.556c3.738,0,4.494-.574,4.494-1.148V5.526c0-1.148-.14-2.114-1.5-2.114-2.324,0-3.36.154-3.36,3.206V7.934c0,2.044.308,3.206,2.548,3.206a5.572,5.572,0,0,0,2.31-.49Zm-.252-3.99c0,.448-.938.868-4.13.868V6.618c0-2.786.8-2.884,3-2.884.98,0,1.134.644,1.134,1.792Zm10.948-4.018V1a7.147,7.147,0,0,0-1.834-.21h-.112c-2.436,0-3.6.882-3.6,3.6v3.15c0,2.716,1.162,3.6,3.6,3.6h.112a7.147,7.147,0,0,0,1.834-.21l-.07-.322a6.62,6.62,0,0,1-1.764.21h-.112c-2.212,0-3.22-.784-3.22-3.276V4.392c0-2.492,1.008-3.276,3.22-3.276h.112a6.678,6.678,0,0,1,1.47.14V2.348Zm6.328,3.122c0-1.33-.77-2.058-2.464-2.058s-2.464.728-2.464,2.058V9.082c0,1.33.77,2.058,2.464,2.058s2.464-.728,2.464-2.058Zm-.364,3.6c0,1.12-.63,1.75-2.1,1.75s-2.1-.63-2.1-1.75V5.47c0-1.12.63-1.736,2.1-1.736s2.1.616,2.1,1.736Zm4.312,1.61h-1.12V5.106c.518-.406,1.61-1.372,2.212-1.372.448,0,.462.322.476.812v.532h.364V4.546c0-.63-.014-1.134-.84-1.134-.616,0-1.862,1.036-2.212,1.344V3.622h-1.358v.322h.994v6.734h-1.134V11H504.7Zm5.39,0h-1.12V5.106c.518-.406,1.61-1.372,2.212-1.372.448,0,.462.322.476.812v.532h.364V4.546c0-.63-.014-1.134-.84-1.134-.616,0-1.862,1.036-2.212,1.344V3.622h-1.358v.322h.994v6.734h-1.134V11h2.618Zm7.938-.322a5.251,5.251,0,0,1-2.2.462c-2.156,0-2.184-1.414-2.184-2.884V7.556c3.738,0,4.494-.574,4.494-1.148V5.526c0-1.148-.14-2.114-1.5-2.114-2.324,0-3.36.154-3.36,3.206V7.934c0,2.044.308,3.206,2.548,3.206a5.572,5.572,0,0,0,2.31-.49Zm-.252-3.99c0,.448-.938.868-4.13.868V6.618c0-2.786.8-2.884,3-2.884.98,0,1.134.644,1.134,1.792Zm6.412-1.358V3.664a6.877,6.877,0,0,0-1.75-.252c-2.24,0-2.548,1.162-2.548,3.206V7.934c0,2.044.308,3.206,2.548,3.206a8.818,8.818,0,0,0,1.848-.224l-.028-.294a8.147,8.147,0,0,1-1.82.2c-2.142,0-2.184-1.386-2.184-2.884V6.618c0-1.5.042-2.884,2.184-2.884a6.813,6.813,0,0,1,1.386.182V5.008Zm4.942,5.446a3.657,3.657,0,0,1-1.442.364c-.434,0-.77-.294-.77-1.134V3.874h1.988V3.552h-1.988V1.984h-.364V3.552h-1.218v.322h1.218V9.7c0,1.05.476,1.442,1.134,1.442a3.889,3.889,0,0,0,1.568-.406Zm3.094.224H531.09V3.552H529.7v.322h1.022v6.8h-1.12V11h2.618ZM531.09,1.55V.57h-.364v.98Zm7.252,3.92c0-1.33-.77-2.058-2.464-2.058s-2.464.728-2.464,2.058V9.082c0,1.33.77,2.058,2.464,2.058s2.464-.728,2.464-2.058Zm-.364,3.6c0,1.12-.63,1.75-2.1,1.75s-2.1-.63-2.1-1.75V5.47c0-1.12.63-1.736,2.1-1.736s2.1.616,2.1,1.736Zm8.68,1.61h-1.12V5.848c0-1.316-.084-2.436-1.47-2.436a7.89,7.89,0,0,0-2.912,1.344v-1.2H539.8v.322h.994v6.8h-1.12V11h2.618v-.322h-1.134V5.106a8.06,8.06,0,0,1,2.912-1.372c.938,0,1.106.812,1.106,2.114V11h1.484Zm1.666.322v-.966h-.336V11Zm7.168-.322h-1.2l1.946-9.212,3.388,9.674h.35l3.388-9.674,1.946,9.212h-1.19V11h2.9v-.322h-1.33l-2.058-9.422h1.218V.934H563.22L559.8,10.622,556.36.934h-1.624v.322h1.232l-2.058,9.422h-1.316V11h2.9Zm14.56,0h-1.134V3.552h-1.386v.322h1.022v6.8h-1.12V11h2.618ZM568.918,1.55V.57h-.364v.98Zm6.622,3.458V3.664a6.877,6.877,0,0,0-1.75-.252c-2.24,0-2.548,1.162-2.548,3.206V7.934c0,2.044.308,3.206,2.548,3.206a8.818,8.818,0,0,0,1.848-.224l-.028-.294a8.147,8.147,0,0,1-1.82.2c-2.142,0-2.184-1.386-2.184-2.884V6.618c0-1.5.042-2.884,2.184-2.884a6.813,6.813,0,0,1,1.386.182V5.008Zm3.7,5.67H578.1V5.106a8.06,8.06,0,0,1,2.912-1.372c.938,0,1.106.812,1.106,2.114V11h1.624v-.322h-1.26V5.848c0-1.316-.084-2.436-1.47-2.436A7.89,7.89,0,0,0,578.1,4.756V.57h-1.358V.892h.994v9.786h-1.12V11h2.618Zm11.382,0H589.5V5.764c0-1.456-.336-2.352-2.1-2.352a6.144,6.144,0,0,0-2.17.448V5.2h.364V4.07a6.048,6.048,0,0,1,1.806-.322c1.47,0,1.736.756,1.736,2.016V7.43a7.773,7.773,0,0,0-2.842-.77c-1.246,0-1.638.84-1.638,2.24s.392,2.24,1.638,2.24a3.831,3.831,0,0,0,.7-.056,11.293,11.293,0,0,0,2.142-.714V11h1.484ZM586.292,7.01a8.181,8.181,0,0,1,2.842.77v2.24a8.181,8.181,0,0,1-2.842.77c-1.008,0-1.26-.756-1.26-1.89S585.284,7.01,586.292,7.01Zm10.262,3.346a5.251,5.251,0,0,1-2.2.462c-2.156,0-2.184-1.414-2.184-2.884V7.556c3.738,0,4.494-.574,4.494-1.148V5.526c0-1.148-.14-2.114-1.5-2.114-2.324,0-3.36.154-3.36,3.206V7.934c0,2.044.308,3.206,2.548,3.206a5.572,5.572,0,0,0,2.31-.49Zm-.252-3.99c0,.448-.938.868-4.13.868V6.618c0-2.786.8-2.884,3-2.884.98,0,1.134.644,1.134,1.792Zm4.172,4.312H599.34V.57h-1.386V.892h1.022v9.786h-1.12V11h2.618ZM608.846.934h-4.452v.322h1.246v9.422h-1.246V11h4.452c2.436,0,3.514-.91,3.514-3.654V4.588C612.36,1.844,611.282.934,608.846.934Zm3.136,6.426c0,2.254-.728,3.318-3.136,3.318h-2.828V1.256h2.828c2.408,0,3.136,1.064,3.136,3.318Zm4.4,3.318h-1.12V5.106c.518-.406,1.61-1.372,2.212-1.372.448,0,.462.322.476.812v.532h.364V4.546c0-.63-.014-1.134-.84-1.134-.616,0-1.862,1.036-2.212,1.344V3.622H613.9v.322h.994v6.734H613.76V11h2.618Zm3.556-6.8V8.7c0,1.316.084,2.436,1.47,2.436a9.886,9.886,0,0,0,2.912-.938v1.05c0,1.456-.028,2.618-.994,2.618a19.64,19.64,0,0,1-3.178-.588l-.084.336a19.425,19.425,0,0,0,3.262.6c1.12,0,1.358-.868,1.358-2.968v-7.7h-1.358v.322h.994V9.866a10.021,10.021,0,0,1-2.912.952c-.938,0-1.106-.812-1.106-2.114V3.552H618.94v.322Zm7.056,1.974V8.7c0,1.316.084,2.436,1.47,2.436a9.52,9.52,0,0,0,2.842-.9v1.008c0,1.456-.028,2.618-.994,2.618a19.641,19.641,0,0,1-3.178-.588l-.084.336a19.425,19.425,0,0,0,3.262.6c1.12,0,1.358-.868,1.358-2.968v-7.7H631.3V4.714a7.115,7.115,0,0,0-2.842-1.3C627.074,3.412,626.99,4.532,626.99,5.848Zm.364,2.856V5.848c0-1.3.168-2.114,1.106-2.114A7.383,7.383,0,0,1,631.3,5.05V9.894a9.664,9.664,0,0,1-2.842.924C627.522,10.818,627.354,10.006,627.354,8.7Zm8.47,1.974H634.69V3.552H633.3v.322h1.022v6.8h-1.12V11h2.618ZM634.69,1.55V.57h-.364v.98Zm8.75,9.128h-1.12V5.848c0-1.316-.084-2.436-1.47-2.436a7.89,7.89,0,0,0-2.912,1.344v-1.2H636.58v.322h.994v6.8h-1.12V11h2.618v-.322h-1.134V5.106a8.06,8.06,0,0,1,2.912-1.372c.938,0,1.106.812,1.106,2.114V11h1.484Zm3.4,0h-1.134V.934h-1.5v.322h1.12v9.422h-1.106V11h2.618Zm1.12,2.072.574-2.716h-.322l-.574,2.716Zm11.774-2.422-5.7-9.394h-1.624v.322h1.246v9.422h-1.246V11h2.9v-.322h-1.274V1.606l5.7,9.394h.378V1.256h1.274V.934h-2.926v.322h1.274Zm4.942.35h-1.134V3.552h-1.386v.322h1.022v6.8h-1.12V11h2.618ZM663.544,1.55V.57h-.364v.98Zm6.622,3.458V3.664a6.877,6.877,0,0,0-1.75-.252c-2.24,0-2.548,1.162-2.548,3.206V7.934c0,2.044.308,3.206,2.548,3.206a8.818,8.818,0,0,0,1.848-.224l-.028-.294a8.147,8.147,0,0,1-1.82.2c-2.142,0-2.184-1.386-2.184-2.884V6.618c0-1.5.042-2.884,2.184-2.884a6.813,6.813,0,0,1,1.386.182V5.008Zm3.7,5.67h-1.134V5.106a8.06,8.06,0,0,1,2.912-1.372c.938,0,1.106.812,1.106,2.114V11h1.624v-.322h-1.26V5.848c0-1.316-.084-2.436-1.47-2.436a7.89,7.89,0,0,0-2.912,1.344V.57H671.37V.892h.994v9.786h-1.12V11h2.618ZM684.418,5.47c0-1.33-.77-2.058-2.464-2.058s-2.464.728-2.464,2.058V9.082c0,1.33.77,2.058,2.464,2.058s2.464-.728,2.464-2.058Zm-.364,3.6c0,1.12-.63,1.75-2.1,1.75s-2.1-.63-2.1-1.75V5.47c0-1.12.63-1.736,2.1-1.736s2.1.616,2.1,1.736Zm4.242,1.61h-1.134V.57h-1.386V.892H686.8v9.786h-1.12V11H688.3Zm7.084,0h-1.12V5.764c0-1.456-.336-2.352-2.1-2.352a6.144,6.144,0,0,0-2.17.448V5.2h.364V4.07a6.048,6.048,0,0,1,1.806-.322c1.47,0,1.736.756,1.736,2.016V7.43a7.773,7.773,0,0,0-2.842-.77c-1.246,0-1.638.84-1.638,2.24s.392,2.24,1.638,2.24a3.831,3.831,0,0,0,.7-.056,11.293,11.293,0,0,0,2.142-.714V11h1.484ZM691.054,7.01a8.181,8.181,0,0,1,2.842.77v2.24a8.181,8.181,0,0,1-2.842.77c-1.008,0-1.26-.756-1.26-1.89S690.046,7.01,691.054,7.01Zm9.786-1.834V3.832a4.741,4.741,0,0,0-2.058-.42c-.966,0-2.31.392-2.31,1.792,0,2.31,4.116,1.848,4.116,3.878,0,1.4-.938,1.736-1.932,1.736a5.691,5.691,0,0,1-2-.336V9.362h-.364v1.344a5.913,5.913,0,0,0,2.366.434c1.2,0,2.268-.462,2.268-2.058,0-2.338-4.116-1.876-4.116-3.878,0-1.078,1.022-1.47,1.974-1.47a4.082,4.082,0,0,1,1.694.322v1.12Zm7.364,5.5h-1.246v-4.8L711.788,11h1.484v-.322h-1.3l-4.844-5.152,4.564-4.27h1.344V.934H711.55l-4.592,4.3V1.256H708.2V.934h-2.87v.322h1.246v9.422h-1.246V11h2.87Zm5.992-6.8V8.7c0,1.316.084,2.436,1.47,2.436a9.886,9.886,0,0,0,2.912-.938V11h1.358v-.322h-.994V3.552h-1.358v.322h.994V9.866a10.021,10.021,0,0,1-2.912.952c-.938,0-1.106-.812-1.106-2.114V3.552H713.2v.322Zm8.988,6.8h-1.12V5.106c.518-.406,1.61-1.372,2.212-1.372.448,0,.462.322.476.812v.532h.364V4.546c0-.63-.014-1.134-.84-1.134-.616,0-1.862,1.036-2.212,1.344V3.622h-1.358v.322h.994v6.734h-1.134V11h2.618Zm3.556-6.8V8.7c0,1.316.084,2.436,1.47,2.436a9.886,9.886,0,0,0,2.912-.938v1.05c0,1.456-.028,2.618-.994,2.618a19.64,19.64,0,0,1-3.178-.588l-.084.336a19.425,19.425,0,0,0,3.262.6c1.12,0,1.358-.868,1.358-2.968v-7.7h-1.358v.322h.994V9.866a10.021,10.021,0,0,1-2.912.952c-.938,0-1.106-.812-1.106-2.114V3.552h-1.358v.322Zm11.354,1.134V3.664a6.877,6.877,0,0,0-1.75-.252c-2.24,0-2.548,1.162-2.548,3.206V7.934c0,2.044.308,3.206,2.548,3.206a8.818,8.818,0,0,0,1.848-.224l-.028-.294a8.147,8.147,0,0,1-1.82.2c-2.142,0-2.184-1.386-2.184-2.884V6.618c0-1.5.042-2.884,2.184-2.884a6.813,6.813,0,0,1,1.386.182V5.008Zm3.7,5.67h-1.134V5.106a8.06,8.06,0,0,1,2.912-1.372c.938,0,1.106.812,1.106,2.114V11H746.3v-.322h-1.26V5.848c0-1.316-.084-2.436-1.47-2.436a7.89,7.89,0,0,0-2.912,1.344V.57H739.3V.892h.994v9.786h-1.12V11h2.618ZM748.4.57H747.04V.892h.994v9.786h-1.106V11h2.618v-.322H748.4V7.234L751.884,11H753.1v-.322h-1.05l-3.234-3.514,3.066-3.29h1.078V3.552h-1.2L748.4,7.108Zm7.728,10.108h-1.134V3.552h-1.386v.322h1.022v6.8h-1.12V11h2.618ZM754.992,1.55V.57h-.364v.98Zm8.75,9.128h-1.12V5.848c0-1.316-.084-2.436-1.47-2.436a7.89,7.89,0,0,0-2.912,1.344v-1.2h-1.358v.322h.994v6.8h-1.12V11h2.618v-.322H758.24V5.106a8.06,8.06,0,0,1,2.912-1.372c.938,0,1.106.812,1.106,2.114V11h1.484Zm3.4,0H766.01V.934h-1.5v.322h1.12v9.422h-1.106V11h2.618Zm10.374,0H776.4V5.764c0-1.456-.336-2.352-2.1-2.352a6.144,6.144,0,0,0-2.17.448V5.2h.364V4.07a6.048,6.048,0,0,1,1.806-.322c1.47,0,1.736.756,1.736,2.016V7.43a7.773,7.773,0,0,0-2.842-.77c-1.246,0-1.638.84-1.638,2.24s.392,2.24,1.638,2.24a3.831,3.831,0,0,0,.7-.056,11.293,11.293,0,0,0,2.142-.714V11h1.484ZM773.192,7.01a8.181,8.181,0,0,1,2.842.77v2.24a8.181,8.181,0,0,1-2.842.77c-1.008,0-1.26-.756-1.26-1.89S772.184,7.01,773.192,7.01Zm11.942,3.668h-1.12V5.848c0-1.316-.084-2.436-1.47-2.436a7.89,7.89,0,0,0-2.912,1.344v-1.2h-1.358v.322h.994v6.8h-1.12V11h2.618v-.322h-1.134V5.106a8.06,8.06,0,0,1,2.912-1.372c.938,0,1.106.812,1.106,2.114V11h1.484Zm6.79,0h-.994V.57h-1.358V.892h.994V4.714a7.115,7.115,0,0,0-2.842-1.3c-1.386,0-1.47,1.12-1.47,2.436V8.7c0,1.316.084,2.436,1.47,2.436a9.52,9.52,0,0,0,2.842-.9V11h1.358ZM786.618,8.7V5.848c0-1.3.168-2.114,1.106-2.114a7.383,7.383,0,0,1,2.842,1.316V9.894a9.664,9.664,0,0,1-2.842.924C786.786,10.818,786.618,10.006,786.618,8.7ZM2.828,26.678H1.652l.98-2.982H6.65l.966,2.982H6.454V27H9.212v-.322H8.036L4.788,16.934H3.122v.322h1.26L1.246,26.678H.07V27H2.828Zm1.82-9.128,1.9,5.838H2.73Zm7.6,9.128H11.116V16.57H9.73v.322h1.022v9.786H9.632V27H12.25Zm5.936-.322a5.251,5.251,0,0,1-2.2.462c-2.156,0-2.184-1.414-2.184-2.884v-.378c3.738,0,4.494-.574,4.494-1.148v-.882c0-1.148-.14-2.114-1.5-2.114-2.324,0-3.36.154-3.36,3.206v1.316c0,2.044.308,3.206,2.548,3.206a5.572,5.572,0,0,0,2.31-.49Zm-.252-3.99c0,.448-.938.868-4.13.868v-.616c0-2.786.8-2.884,3-2.884.98,0,1.134.644,1.134,1.792Zm2.772-2.814H19.432v.322h1.022l1.722,3.36L20.3,26.678H19.278V27h1.26l1.9-3.528L24.3,27h1.274v-.322h-1.05l-1.82-3.444,1.638-3.36H25.4v-.322H24.122l-1.68,3.472Zm11.816,7.126H31.4V21.764c0-1.456-.336-2.352-2.1-2.352a6.144,6.144,0,0,0-2.17.448V21.2H27.5V20.07a6.048,6.048,0,0,1,1.806-.322c1.47,0,1.736.756,1.736,2.016V23.43a7.774,7.774,0,0,0-2.842-.77c-1.246,0-1.638.84-1.638,2.24s.392,2.24,1.638,2.24a3.832,3.832,0,0,0,.7-.056,11.293,11.293,0,0,0,2.142-.714V27h1.484ZM28.2,23.01a8.181,8.181,0,0,1,2.842.77v2.24a8.181,8.181,0,0,1-2.842.77c-1.008,0-1.26-.756-1.26-1.89S27.188,23.01,28.2,23.01Zm11.942,3.668h-1.12v-4.83c0-1.316-.084-2.436-1.47-2.436a7.89,7.89,0,0,0-2.912,1.344v-1.2H33.278v.322h.994v6.8h-1.12V27H35.77v-.322H34.636V21.106a8.059,8.059,0,0,1,2.912-1.372c.938,0,1.106.812,1.106,2.114V27h1.484Zm6.79,0h-.994V16.57H44.576v.322h.994v3.822a7.115,7.115,0,0,0-2.842-1.3c-1.386,0-1.47,1.12-1.47,2.436V24.7c0,1.316.084,2.436,1.47,2.436a9.52,9.52,0,0,0,2.842-.9V27h1.358ZM41.622,24.7V21.848c0-1.3.168-2.114,1.106-2.114A7.383,7.383,0,0,1,45.57,21.05v4.844a9.664,9.664,0,0,1-2.842.924C41.79,26.818,41.622,26.006,41.622,24.7Zm11.312,1.652a5.251,5.251,0,0,1-2.2.462c-2.156,0-2.184-1.414-2.184-2.884v-.378c3.738,0,4.494-.574,4.494-1.148v-.882c0-1.148-.14-2.114-1.5-2.114-2.324,0-3.36.154-3.36,3.206v1.316c0,2.044.308,3.206,2.548,3.206a5.572,5.572,0,0,0,2.31-.49Zm-.252-3.99c0,.448-.938.868-4.13.868v-.616c0-2.786.8-2.884,3-2.884.98,0,1.134.644,1.134,1.792Zm4.172,4.312h-1.12V21.106c.518-.406,1.61-1.372,2.212-1.372.448,0,.462.322.476.812v.532h.364v-.532c0-.63-.014-1.134-.84-1.134-.616,0-1.862,1.036-2.212,1.344V19.622H54.376v.322h.994v6.734H54.236V27h2.618Zm11,.322c1.96,0,2.688-.854,2.688-2.478V24.27c0-1.582-.7-2.324-1.526-2.422.658-.126,1.33-.8,1.33-2.394,0-1.624-.546-2.52-2.534-2.52h-4.9v.322h1.246v9.422H62.916V27Zm2.31-2.478c0,1.624-.812,2.156-2.31,2.156H64.54V22.03h3.43c1.54,0,2.2.658,2.2,2.24ZM64.54,21.708V17.256h3.276c1.54,0,2.142.574,2.156,2.2,0,1.6-.6,2.254-2.156,2.254Zm13.65,4.97H77.07V21.764c0-1.456-.336-2.352-2.1-2.352a6.144,6.144,0,0,0-2.17.448V21.2h.364V20.07a6.048,6.048,0,0,1,1.806-.322c1.47,0,1.736.756,1.736,2.016V23.43a7.774,7.774,0,0,0-2.842-.77c-1.246,0-1.638.84-1.638,2.24s.392,2.24,1.638,2.24a3.832,3.832,0,0,0,.7-.056,11.293,11.293,0,0,0,2.142-.714V27H78.19ZM73.864,23.01a8.181,8.181,0,0,1,2.842.77v2.24a8.181,8.181,0,0,1-2.842.77c-1.008,0-1.26-.756-1.26-1.89S72.856,23.01,73.864,23.01Zm6.426-6.44H78.932v.322h.994v9.786H78.82V27h2.618v-.322H80.29V23.234L83.776,27h1.218v-.322h-1.05L80.71,23.164l3.066-3.29h1.078v-.322h-1.2l-3.36,3.556ZM91.854,26.678h-1.12V21.764c0-1.456-.336-2.352-2.1-2.352a6.144,6.144,0,0,0-2.17.448V21.2h.364V20.07a6.048,6.048,0,0,1,1.806-.322c1.47,0,1.736.756,1.736,2.016V23.43a7.774,7.774,0,0,0-2.842-.77c-1.246,0-1.638.84-1.638,2.24s.392,2.24,1.638,2.24a3.832,3.832,0,0,0,.7-.056,11.293,11.293,0,0,0,2.142-.714V27h1.484ZM87.528,23.01a8.181,8.181,0,0,1,2.842.77v2.24a8.181,8.181,0,0,1-2.842.77c-1.008,0-1.26-.756-1.26-1.89S86.52,23.01,87.528,23.01ZM99.47,26.678H98.35v-4.83c0-1.316-.084-2.436-1.47-2.436a7.89,7.89,0,0,0-2.912,1.344v-1.2H92.61v.322H93.6v6.8h-1.12V27H95.1v-.322H93.968V21.106a8.059,8.059,0,0,1,2.912-1.372c.938,0,1.106.812,1.106,2.114V27H99.47Zm6.048-5.208c0-1.33-.77-2.058-2.464-2.058s-2.464.728-2.464,2.058v3.612c0,1.33.77,2.058,2.464,2.058s2.464-.728,2.464-2.058Zm-.364,3.6c0,1.12-.63,1.75-2.1,1.75s-2.1-.63-2.1-1.75v-3.6c0-1.12.63-1.736,2.1-1.736s2.1.616,2.1,1.736Zm3.682-5.516h-2.618v.322h1.148l2.268,7.266h.224l2.226-7.266h1.176v-.322h-2.618v.322h1.064l-1.96,6.552-2-6.552h1.092Zm7.616,7.126h-1.134V16.934h-1.5v.322h1.12v9.422h-1.106V27h2.618Zm1.806.322v-.966h-.336V27Zm5.768-4.522a11.418,11.418,0,0,1,1.666-6.356l-.112-.084c-1.246,1.4-1.932,3.99-1.932,6.44s.686,5.04,1.932,6.44l.112-.084A11.418,11.418,0,0,1,124.026,22.478Zm4.522-3.934V17.452a11.874,11.874,0,0,1,2.786-.35c2.016,0,2.646.91,2.646,2.324,0,1.918-2.24,3.584-6.272,7.224V27h6.776V25.656h-.364v.994h-5.936c3.78-3.444,6.16-5.1,6.16-7.224,0-1.624-.784-2.646-3.038-2.646a13.8,13.8,0,0,0-3.122.42v1.344Zm11.312,8.6h.1c2.38,0,3.5-1.456,3.5-3.906V20.686c0-2.632-1.12-3.906-3.5-3.906h-.1c-2.38,0-3.5,1.274-3.5,3.906v2.548C136.36,25.684,137.48,27.14,139.86,27.14Zm0-.322c-2.142,0-3.136-1.33-3.136-3.584V20.686c0-2.478.994-3.584,3.136-3.584h.1c2.142,0,3.136,1.106,3.136,3.584v2.548c0,2.254-.994,3.584-3.136,3.584Zm7.77-.14H146.5V16.934H145v.322h1.12v9.422h-1.106V27h2.618Zm1.4-8.4V17.256h6.16L149.6,27h.434l5.53-9.744v-.322h-6.9v1.344Zm9.506,4.2a11.418,11.418,0,0,1-1.666,6.356l.112.084c1.246-1.4,1.932-3.99,1.932-6.44s-.686-5.04-1.932-6.44l-.112.084A11.418,11.418,0,0,1,158.536,22.478ZM3.836,39.024v-.336H1.176v.336Zm10.892-4.676V33a7.147,7.147,0,0,0-1.834-.21h-.112c-2.436,0-3.6.882-3.6,3.6v3.15c0,2.716,1.162,3.6,3.6,3.6h.112a7.147,7.147,0,0,0,1.834-.21l-.07-.322a6.62,6.62,0,0,1-1.764.21h-.112c-2.212,0-3.22-.784-3.22-3.276v-3.15c0-2.492,1.008-3.276,3.22-3.276h.112a6.678,6.678,0,0,1,1.47.14v1.092Zm6.146,8.008a5.251,5.251,0,0,1-2.2.462c-2.156,0-2.184-1.414-2.184-2.884v-.378c3.738,0,4.494-.574,4.494-1.148v-.882c0-1.148-.14-2.114-1.5-2.114-2.324,0-3.36.154-3.36,3.206v1.316c0,2.044.308,3.206,2.548,3.206a5.572,5.572,0,0,0,2.31-.49Zm-.252-3.99c0,.448-.938.868-4.13.868v-.616c0-2.786.8-2.884,3-2.884.98,0,1.134.644,1.134,1.792Zm8.54,4.312h-1.12v-4.83c0-1.316-.084-2.436-1.47-2.436a7.89,7.89,0,0,0-2.912,1.344v-1.2H22.3v.322H23.3v6.8h-1.12V43h2.618v-.322H23.66V37.106a8.059,8.059,0,0,1,2.912-1.372c.938,0,1.106.812,1.106,2.114V43h1.484Zm5.46-5.5V35.832a4.741,4.741,0,0,0-2.058-.42c-.966,0-2.31.392-2.31,1.792,0,2.31,4.116,1.848,4.116,3.878,0,1.4-.938,1.736-1.932,1.736a5.691,5.691,0,0,1-2-.336v-1.12h-.364v1.344a5.913,5.913,0,0,0,2.366.434c1.2,0,2.268-.462,2.268-2.058,0-2.338-4.116-1.876-4.116-3.878,0-1.078,1.022-1.47,1.974-1.47a4.082,4.082,0,0,1,1.694.322v1.12Zm2.128-1.3V40.7c0,1.316.084,2.436,1.47,2.436a9.886,9.886,0,0,0,2.912-.938V43H42.49v-.322H41.5V35.552H40.138v.322h.994v5.992a10.021,10.021,0,0,1-2.912.952c-.938,0-1.106-.812-1.106-2.114V35.552H35.756v.322Zm11.13,1.3V35.832a4.741,4.741,0,0,0-2.058-.42c-.966,0-2.31.392-2.31,1.792,0,2.31,4.116,1.848,4.116,3.878,0,1.4-.938,1.736-1.932,1.736a5.691,5.691,0,0,1-2-.336v-1.12H43.33v1.344a5.913,5.913,0,0,0,2.366.434c1.2,0,2.268-.462,2.268-2.058,0-2.338-4.116-1.876-4.116-3.878,0-1.078,1.022-1.47,1.974-1.47a4.082,4.082,0,0,1,1.694.322v1.12Z" transform="translate(566 740.395)" fill="#fff"/>
        </g>
      </g>
    </g>
  </g>
</svg>
