<svg xmlns="http://www.w3.org/2000/svg" xmlns:xlink="http://www.w3.org/1999/xlink" width="992" height="28" viewBox="0 0 992 28">
  <defs>
    <clipPath id="clip-Legend02">
      <rect width="992" height="28"/>
    </clipPath>
  </defs>
  <g id="Legend02" clip-path="url(#clip-Legend02)">
    <rect width="992" height="28" fill="#222"/>
    <g id="Group_721" data-name="Group 721" transform="translate(0 1)">
      <g id="Group_717" data-name="Group 717" transform="translate(-187.5 -32.055)">
        <path id="Path_975" data-name="Path 975" d="M5.632,16.01H3.806V10.246h3.74c3.432,0,5.06-.836,5.06-4.532,0-3.718-1.628-4.532-5.06-4.532H.7v.99H2.53V16.01H.7V17H5.632ZM3.806,9.278V2.15h3.74c2.794,0,3.74.638,3.74,3.564,0,2.948-.946,3.564-3.74,3.564Zm19.008-.9c0-2.2-1.3-3.278-4.114-3.278s-4.114,1.078-4.114,3.278v5.566c0,2.2,1.3,3.278,4.114,3.278s4.114-1.078,4.114-3.278ZM21.6,13.92c0,1.5-.858,2.354-2.9,2.354-2.068,0-2.9-.858-2.9-2.354V8.376c0-1.5.836-2.332,2.9-2.332,2.046,0,2.9.836,2.9,2.332Zm6.6-8.6H23.8v.99h1.628l2.86,10.868h.968L31.724,7.21l2.508,9.966H35.2L38.06,6.308h1.672v-.99h-4.4v.99h1.474l-2.046,8.91L32.23,5.142H31.218L28.776,15.218l-2.112-8.91H28.2Zm20.5,10.208a8.979,8.979,0,0,1-3.5.7c-2.9,0-3.1-1.87-3.1-3.894v-.55c5.676-.022,6.842-.968,6.842-1.936V8.4c0-1.782-.33-3.3-2.816-3.3C42.46,5.1,40.9,5.428,40.9,10v2.244c0,3.19.748,4.972,4.312,4.972a10.187,10.187,0,0,0,3.784-.77Zm-.924-5.808c0,.682-1.386,1.254-5.676,1.3V9.784c0-3.564,1.21-3.74,4.114-3.74,1.364,0,1.562.924,1.562,2.42ZM53.5,5.406H50.82V6.4h1.474V16.01h-1.65V17h4.488v-.99H53.5V8c.7-.55,2.222-1.914,3.036-1.914.638,0,.682.462.726,1.166V8.09h1.078V7.254c0-1.364-.088-2.156-1.474-2.156-.968,0-2.75,1.518-3.366,2.046ZM73.9,9.036c0-2.112-.132-3.938-2.4-3.938-1.232,0-3.322,1.276-4.246,1.936V5.318H64.57v.99h1.474v14.41H64.416v.99h5.148v-.99h-2.31V15.856A13.74,13.74,0,0,0,71.5,17.22c2.266,0,2.4-1.826,2.4-3.938Zm-1.21,4.29c0,1.8-.22,2.948-1.5,2.948a13.3,13.3,0,0,1-3.938-1.254V7.892c.924-.616,2.838-1.8,3.938-1.8,1.276,0,1.5,1.122,1.5,2.9Zm7.458,2.684H78.5V.61H75.79V1.6h1.5V16.01H75.658V17h4.488Zm11.22,0H89.738V8.97c0-2.4-.748-3.872-3.63-3.872a10.722,10.722,0,0,0-3.586.682V8.2H83.6V6.506a9.464,9.464,0,0,1,2.486-.4c1.958,0,2.442.99,2.442,2.86v2.288a10.99,10.99,0,0,0-4.4-1.1c-1.98.088-2.486,1.474-2.486,3.52s.506,3.41,2.486,3.52a5.816,5.816,0,0,0,1.078-.044,13.421,13.421,0,0,0,3.322-1.144V17h2.838Zm-6.71-5.016a11.4,11.4,0,0,1,3.872,1.034v3.234a11,11,0,0,1-3.872,1.078c-1.43,0-1.782-1.078-1.782-2.662S83.226,10.994,84.656,10.994Zm18.788,5.016h-1.628V9.036c0-2.112-.132-3.938-2.4-3.938-1.3,0-3.5,1.474-4.334,2V5.318H92.4v.99h1.474v9.7H92.246V17h4.488v-.99h-1.65V7.958c.9-.528,2.9-1.87,4.026-1.87,1.276,0,1.5,1.144,1.5,2.948V17h2.838Zm6.71-.352a5.73,5.73,0,0,1-2.134.528c-.638,0-1.056-.4-1.056-1.474v-8.4h2.926v-.99h-2.926V2.832h-1.232V5.318h-1.76v.99h1.76v8.426c0,1.8.9,2.486,2.112,2.486a6.915,6.915,0,0,0,2.618-.638Zm8.932-7.5V5.736A9.16,9.16,0,0,0,115.61,5.1c-1.562,0-3.872.528-3.872,3.036,0,3.872,6.38,2.882,6.38,5.786,0,1.87-1.3,2.354-2.772,2.354a8.864,8.864,0,0,1-2.772-.418V14.118H111.5v2.42a10.393,10.393,0,0,0,3.894.682c2.046,0,3.894-.66,3.894-3.388,0-3.872-6.38-2.882-6.38-5.786,0-1.43,1.3-2,2.75-2a6.142,6.142,0,0,1,2.354.44V8.156Zm9.68-2.838h-4.4v.99h1.628l2.86,10.868h.968l2.464-9.966,2.508,9.966h.968l2.86-10.868h1.672v-.99h-4.4v.99h1.474l-2.046,8.91-2.53-10.076H131.78l-2.442,10.076-2.112-8.91h1.54ZM145.42,16.01h-1.65V5.318h-2.706v.99h1.5v9.7h-1.628V17h4.488Zm-1.65-13.4v-2h-1.21v2Zm8.272,13.046a5.73,5.73,0,0,1-2.134.528c-.638,0-1.056-.4-1.056-1.474v-8.4h2.926v-.99h-2.926V2.832H147.62V5.318h-1.76v.99h1.76v8.426c0,1.8.9,2.486,2.112,2.486a6.915,6.915,0,0,0,2.618-.638Zm5.3.352h-1.65V7.958c.9-.528,2.9-1.87,4.026-1.87,1.276,0,1.5,1.144,1.5,2.948V17h3.014v-.99h-1.8V9.036c0-2.112-.132-3.938-2.4-3.938-1.3,0-3.5,1.474-4.334,2V.61H153.01V1.6h1.474V16.01h-1.628V17h4.488ZM178.244,8V5.582a10.336,10.336,0,0,0-2.9-.484c-3.564,0-4.312,1.8-4.312,4.972v2.178c0,3.168.748,4.972,4.312,4.972a13.971,13.971,0,0,0,3.058-.4l-.11-.924a13.663,13.663,0,0,1-2.948.33c-2.882,0-3.1-1.848-3.1-3.894V9.982c0-2.046.22-3.894,3.1-3.894a8.643,8.643,0,0,1,1.826.22V8Zm10.648.374c0-2.2-1.3-3.278-4.114-3.278s-4.114,1.078-4.114,3.278v5.566c0,2.2,1.3,3.278,4.114,3.278s4.114-1.078,4.114-3.278Zm-1.21,5.544c0,1.5-.858,2.354-2.9,2.354-2.068,0-2.9-.858-2.9-2.354V8.376c0-1.5.836-2.332,2.9-2.332,2.046,0,2.9.836,2.9,2.332Zm13.442,2.09H199.5V8.97c0-2.4-.748-3.872-3.63-3.872a10.722,10.722,0,0,0-3.586.682V8.2h1.078V6.506a9.464,9.464,0,0,1,2.486-.4c1.958,0,2.442.99,2.442,2.86v2.288a10.99,10.99,0,0,0-4.4-1.1c-1.98.088-2.486,1.474-2.486,3.52s.506,3.41,2.486,3.52a5.816,5.816,0,0,0,1.078-.044,13.421,13.421,0,0,0,3.322-1.144V17h2.838Zm-6.71-5.016a11.4,11.4,0,0,1,3.872,1.034v3.234a11,11,0,0,1-3.872,1.078c-1.43,0-1.782-1.078-1.782-2.662S192.984,10.994,194.414,10.994Zm12.078,5.016h-1.65V.61h-2.706V1.6h1.5V16.01H202V17h4.488Zm16.17,0h-1.628V8.97c0-2.4-.748-3.872-3.63-3.872a10.722,10.722,0,0,0-3.586.682V8.2H214.9V6.506a9.464,9.464,0,0,1,2.486-.4c1.958,0,2.442.99,2.442,2.86v2.288a10.99,10.99,0,0,0-4.4-1.1c-1.98.088-2.486,1.474-2.486,3.52s.506,3.41,2.486,3.52a5.816,5.816,0,0,0,1.078-.044,13.421,13.421,0,0,0,3.322-1.144V17h2.838Zm-6.71-5.016a11.4,11.4,0,0,1,3.872,1.034v3.234a11,11,0,0,1-3.872,1.078c-1.43,0-1.782-1.078-1.782-2.662S214.522,10.994,215.952,10.994Zm15.532-2.838V5.736a9.16,9.16,0,0,0-3.476-.638c-1.562,0-3.872.528-3.872,3.036,0,3.872,6.38,2.882,6.38,5.786,0,1.87-1.3,2.354-2.772,2.354a8.863,8.863,0,0,1-2.772-.418V14.118h-1.078v2.42a10.393,10.393,0,0,0,3.894.682c2.046,0,3.894-.66,3.894-3.388,0-3.872-6.38-2.882-6.38-5.786,0-1.43,1.3-2,2.75-2a6.142,6.142,0,0,1,2.354.44V8.156Zm12.43,7.5a5.73,5.73,0,0,1-2.134.528c-.638,0-1.056-.4-1.056-1.474v-8.4h2.926v-.99h-2.926V2.832h-1.232V5.318h-1.76v.99h1.76v8.426c0,1.8.9,2.486,2.112,2.486a6.915,6.915,0,0,0,2.618-.638Zm5.3.352h-1.65V7.958c.9-.528,2.9-1.87,4.026-1.87,1.276,0,1.5,1.144,1.5,2.948V17H256.1v-.99h-1.8V9.036c0-2.112-.132-3.938-2.4-3.938-1.3,0-3.5,1.474-4.334,2V.61h-2.684V1.6h1.474V16.01h-1.628V17h4.488Zm16.236-.484a8.979,8.979,0,0,1-3.5.7c-2.9,0-3.1-1.87-3.1-3.894v-.55c5.676-.022,6.842-.968,6.842-1.936V8.4c0-1.782-.33-3.3-2.816-3.3-3.674,0-5.236.33-5.236,4.906v2.244c0,3.19.748,4.972,4.312,4.972a10.187,10.187,0,0,0,3.784-.77Zm-.924-5.808c0,.682-1.386,1.254-5.676,1.3V9.784c0-3.564,1.21-3.74,4.114-3.74,1.364,0,1.562.924,1.562,2.42Zm7.348,6.292h-1.65V5.318H267.52v.99h1.5v9.7h-1.628V17h4.488Zm-1.65-13.4v-2h-1.21v2Zm5.39,2.794h-2.684V6.4h1.474V16.01h-1.65V17h4.488v-.99h-1.628V8c.7-.55,2.222-1.914,3.036-1.914.638,0,.682.462.726,1.166V8.09h1.078V7.254c0-1.364-.088-2.156-1.474-2.156-.968,0-2.75,1.518-3.366,2.046Zm20.394,3.63c0-2.112-.132-3.938-2.4-3.938-1.232,0-3.322,1.276-4.246,1.936V5.318h-2.684v.99h1.474v14.41h-1.628v.99h5.148v-.99h-2.31V15.856a13.74,13.74,0,0,0,4.246,1.364c2.266,0,2.4-1.826,2.4-3.938Zm-1.21,4.29c0,1.8-.22,2.948-1.5,2.948a13.3,13.3,0,0,1-3.938-1.254V7.892c.924-.616,2.838-1.8,3.938-1.8,1.276,0,1.5,1.122,1.5,2.9Zm5.94-7.92h-2.684V6.4h1.474V16.01h-1.65V17h4.488v-.99H300.74V8c.7-.55,2.222-1.914,3.036-1.914.638,0,.682.462.726,1.166V8.09h1.078V7.254c0-1.364-.088-2.156-1.474-2.156-.968,0-2.75,1.518-3.366,2.046Zm10.472,10.6h-1.65V5.318h-2.706v.99h1.5v9.7h-1.628V17h4.488Zm-1.65-13.4v-2h-1.21v2Zm19.6,13.4h-1.628V9.036c0-2.112-.132-3.938-2.4-3.938-1.166,0-3.146,1.386-4.026,1.98a2.064,2.064,0,0,0-2.266-1.98c-1.122,0-3.124,1.474-3.85,2V5.318h-2.9v.99h1.672v9.7h-1.672V17h4.488v-.99H315V7.958c.792-.528,2.552-1.87,3.52-1.87,1.3,0,1.518,1.144,1.518,2.948V17h2.838v-.99h-1.628V9.036c0-.4-.022-.792-.044-1.144.88-.572,2.618-1.8,3.608-1.8,1.3,0,1.518,1.144,1.518,2.948V17h2.838Zm10.956,0h-1.628V8.97c0-2.4-.748-3.872-3.63-3.872a10.722,10.722,0,0,0-3.586.682V8.2h1.078V6.506a9.465,9.465,0,0,1,2.486-.4c1.958,0,2.442.99,2.442,2.86v2.288a10.99,10.99,0,0,0-4.4-1.1c-1.98.088-2.486,1.474-2.486,3.52s.506,3.41,2.486,3.52a5.816,5.816,0,0,0,1.078-.044,13.421,13.421,0,0,0,3.322-1.144V17h2.838Zm-6.71-5.016a11.4,11.4,0,0,1,3.872,1.034v3.234a11,11,0,0,1-3.872,1.078c-1.43,0-1.782-1.078-1.782-2.662S331.98,10.994,333.41,10.994Zm10.45-5.588h-2.684V6.4h1.474V16.01H341V17h4.488v-.99H343.86V8c.7-.55,2.222-1.914,3.036-1.914.638,0,.682.462.726,1.166V8.09H348.7V7.254c0-1.364-.088-2.156-1.474-2.156-.968,0-2.75,1.518-3.366,2.046Zm7.194.9v6.974c0,2.112.132,3.938,2.4,3.938a14.135,14.135,0,0,0,4.334-1.408v1.65c0,2.068-.044,3.564-1.43,3.564a31.533,31.533,0,0,1-4.884-.924l-.242.946a30.174,30.174,0,0,0,5.3.99c1.628,0,2.464-1.078,2.464-4.312V5.318h-2.684v.99h1.474V15.02a14.832,14.832,0,0,1-4.026,1.254c-1.276,0-1.5-1.144-1.5-2.948V5.318H349.58v.99Zm19.69,9.7H369.05v-9.7h2.508v-.99H369.05V4.746c0-2.178.176-3.256,1.848-3.256a4.71,4.71,0,0,1,1.408.242l.264-.88A4.6,4.6,0,0,0,371.1.566c-2.4-.154-3.256.924-3.256,4.18v.572h-1.672v.99h1.672v9.7h-1.65V17h4.554Zm3.168-9.7v6.974c0,2.112.132,3.938,2.4,3.938a14.135,14.135,0,0,0,4.334-1.408V17h2.684v-.99h-1.474V5.318H379.17v.99h1.474V15.02a14.832,14.832,0,0,1-4.026,1.254c-1.276,0-1.5-1.144-1.5-2.948V5.318h-2.684v.99Zm18.9,9.218a8.979,8.979,0,0,1-3.5.7c-2.9,0-3.1-1.87-3.1-3.894v-.55c5.676-.022,6.842-.968,6.842-1.936V8.4c0-1.782-.33-3.3-2.816-3.3C386.562,5.1,385,5.428,385,10v2.244c0,3.19.748,4.972,4.312,4.972a10.187,10.187,0,0,0,3.784-.77Zm-.924-5.808c0,.682-1.386,1.254-5.676,1.3V9.784c0-3.564,1.21-3.74,4.114-3.74,1.364,0,1.562.924,1.562,2.42Zm7.3,6.292h-1.65V.61h-2.706V1.6h1.5V16.01H394.7V17h4.488Z" transform="translate(223.5 34.055)" fill="#fff"/>
        <circle id="Ellipse_430" data-name="Ellipse 430" cx="12" cy="12" r="12" transform="translate(187.5 33.055)" fill="#d20814"/>
      </g>
      <g id="Group_718" data-name="Group 718" transform="translate(321.5 -93.055)">
        <path id="Path_976" data-name="Path 976" d="M5.632,16.01H3.806V10.246h3.74c3.432,0,5.06-.836,5.06-4.532,0-3.718-1.628-4.532-5.06-4.532H.7v.99H2.53V16.01H.7V17H5.632ZM3.806,9.278V2.15h3.74c2.794,0,3.74.638,3.74,3.564,0,2.948-.946,3.564-3.74,3.564Zm19.008-.9c0-2.2-1.3-3.278-4.114-3.278s-4.114,1.078-4.114,3.278v5.566c0,2.2,1.3,3.278,4.114,3.278s4.114-1.078,4.114-3.278ZM21.6,13.92c0,1.5-.858,2.354-2.9,2.354-2.068,0-2.9-.858-2.9-2.354V8.376c0-1.5.836-2.332,2.9-2.332,2.046,0,2.9.836,2.9,2.332Zm6.6-8.6H23.8v.99h1.628l2.86,10.868h.968L31.724,7.21l2.508,9.966H35.2L38.06,6.308h1.672v-.99h-4.4v.99h1.474l-2.046,8.91L32.23,5.142H31.218L28.776,15.218l-2.112-8.91H28.2Zm20.5,10.208a8.979,8.979,0,0,1-3.5.7c-2.9,0-3.1-1.87-3.1-3.894v-.55c5.676-.022,6.842-.968,6.842-1.936V8.4c0-1.782-.33-3.3-2.816-3.3C42.46,5.1,40.9,5.428,40.9,10v2.244c0,3.19.748,4.972,4.312,4.972a10.187,10.187,0,0,0,3.784-.77Zm-.924-5.808c0,.682-1.386,1.254-5.676,1.3V9.784c0-3.564,1.21-3.74,4.114-3.74,1.364,0,1.562.924,1.562,2.42ZM53.5,5.406H50.82V6.4h1.474V16.01h-1.65V17h4.488v-.99H53.5V8c.7-.55,2.222-1.914,3.036-1.914.638,0,.682.462.726,1.166V8.09h1.078V7.254c0-1.364-.088-2.156-1.474-2.156-.968,0-2.75,1.518-3.366,2.046ZM73.9,9.036c0-2.112-.132-3.938-2.4-3.938-1.232,0-3.322,1.276-4.246,1.936V5.318H64.57v.99h1.474v14.41H64.416v.99h5.148v-.99h-2.31V15.856A13.74,13.74,0,0,0,71.5,17.22c2.266,0,2.4-1.826,2.4-3.938Zm-1.21,4.29c0,1.8-.22,2.948-1.5,2.948a13.3,13.3,0,0,1-3.938-1.254V7.892c.924-.616,2.838-1.8,3.938-1.8,1.276,0,1.5,1.122,1.5,2.9Zm7.458,2.684H78.5V.61H75.79V1.6h1.5V16.01H75.658V17h4.488Zm11.22,0H89.738V8.97c0-2.4-.748-3.872-3.63-3.872a10.722,10.722,0,0,0-3.586.682V8.2H83.6V6.506a9.464,9.464,0,0,1,2.486-.4c1.958,0,2.442.99,2.442,2.86v2.288a10.99,10.99,0,0,0-4.4-1.1c-1.98.088-2.486,1.474-2.486,3.52s.506,3.41,2.486,3.52a5.816,5.816,0,0,0,1.078-.044,13.421,13.421,0,0,0,3.322-1.144V17h2.838Zm-6.71-5.016a11.4,11.4,0,0,1,3.872,1.034v3.234a11,11,0,0,1-3.872,1.078c-1.43,0-1.782-1.078-1.782-2.662S83.226,10.994,84.656,10.994Zm18.788,5.016h-1.628V9.036c0-2.112-.132-3.938-2.4-3.938-1.3,0-3.5,1.474-4.334,2V5.318H92.4v.99h1.474v9.7H92.246V17h4.488v-.99h-1.65V7.958c.9-.528,2.9-1.87,4.026-1.87,1.276,0,1.5,1.144,1.5,2.948V17h2.838Zm6.71-.352a5.73,5.73,0,0,1-2.134.528c-.638,0-1.056-.4-1.056-1.474v-8.4h2.926v-.99h-2.926V2.832h-1.232V5.318h-1.76v.99h1.76v8.426c0,1.8.9,2.486,2.112,2.486a6.915,6.915,0,0,0,2.618-.638Zm8.932-7.5V5.736A9.16,9.16,0,0,0,115.61,5.1c-1.562,0-3.872.528-3.872,3.036,0,3.872,6.38,2.882,6.38,5.786,0,1.87-1.3,2.354-2.772,2.354a8.864,8.864,0,0,1-2.772-.418V14.118H111.5v2.42a10.393,10.393,0,0,0,3.894.682c2.046,0,3.894-.66,3.894-3.388,0-3.872-6.38-2.882-6.38-5.786,0-1.43,1.3-2,2.75-2a6.142,6.142,0,0,1,2.354.44V8.156Zm9.68-2.838h-4.4v.99h1.628l2.86,10.868h.968l2.464-9.966,2.508,9.966h.968l2.86-10.868h1.672v-.99h-4.4v.99h1.474l-2.046,8.91-2.53-10.076H131.78l-2.442,10.076-2.112-8.91h1.54ZM145.42,16.01h-1.65V5.318h-2.706v.99h1.5v9.7h-1.628V17h4.488Zm-1.65-13.4v-2h-1.21v2Zm8.272,13.046a5.73,5.73,0,0,1-2.134.528c-.638,0-1.056-.4-1.056-1.474v-8.4h2.926v-.99h-2.926V2.832H147.62V5.318h-1.76v.99h1.76v8.426c0,1.8.9,2.486,2.112,2.486a6.915,6.915,0,0,0,2.618-.638Zm5.3.352h-1.65V7.958c.9-.528,2.9-1.87,4.026-1.87,1.276,0,1.5,1.144,1.5,2.948V17h3.014v-.99h-1.8V9.036c0-2.112-.132-3.938-2.4-3.938-1.3,0-3.5,1.474-4.334,2V.61H153.01V1.6h1.474V16.01h-1.628V17h4.488ZM178.244,8V5.582a10.336,10.336,0,0,0-2.9-.484c-3.564,0-4.312,1.8-4.312,4.972v2.178c0,3.168.748,4.972,4.312,4.972a13.971,13.971,0,0,0,3.058-.4l-.11-.924a13.663,13.663,0,0,1-2.948.33c-2.882,0-3.1-1.848-3.1-3.894V9.982c0-2.046.22-3.894,3.1-3.894a8.643,8.643,0,0,1,1.826.22V8Zm10.648.374c0-2.2-1.3-3.278-4.114-3.278s-4.114,1.078-4.114,3.278v5.566c0,2.2,1.3,3.278,4.114,3.278s4.114-1.078,4.114-3.278Zm-1.21,5.544c0,1.5-.858,2.354-2.9,2.354-2.068,0-2.9-.858-2.9-2.354V8.376c0-1.5.836-2.332,2.9-2.332,2.046,0,2.9.836,2.9,2.332Zm13.442,2.09H199.5V8.97c0-2.4-.748-3.872-3.63-3.872a10.722,10.722,0,0,0-3.586.682V8.2h1.078V6.506a9.464,9.464,0,0,1,2.486-.4c1.958,0,2.442.99,2.442,2.86v2.288a10.99,10.99,0,0,0-4.4-1.1c-1.98.088-2.486,1.474-2.486,3.52s.506,3.41,2.486,3.52a5.816,5.816,0,0,0,1.078-.044,13.421,13.421,0,0,0,3.322-1.144V17h2.838Zm-6.71-5.016a11.4,11.4,0,0,1,3.872,1.034v3.234a11,11,0,0,1-3.872,1.078c-1.43,0-1.782-1.078-1.782-2.662S192.984,10.994,194.414,10.994Zm12.078,5.016h-1.65V.61h-2.706V1.6h1.5V16.01H202V17h4.488Zm16.17,0h-1.628V8.97c0-2.4-.748-3.872-3.63-3.872a10.722,10.722,0,0,0-3.586.682V8.2H214.9V6.506a9.464,9.464,0,0,1,2.486-.4c1.958,0,2.442.99,2.442,2.86v2.288a10.99,10.99,0,0,0-4.4-1.1c-1.98.088-2.486,1.474-2.486,3.52s.506,3.41,2.486,3.52a5.816,5.816,0,0,0,1.078-.044,13.421,13.421,0,0,0,3.322-1.144V17h2.838Zm-6.71-5.016a11.4,11.4,0,0,1,3.872,1.034v3.234a11,11,0,0,1-3.872,1.078c-1.43,0-1.782-1.078-1.782-2.662S214.522,10.994,215.952,10.994Zm15.532-2.838V5.736a9.16,9.16,0,0,0-3.476-.638c-1.562,0-3.872.528-3.872,3.036,0,3.872,6.38,2.882,6.38,5.786,0,1.87-1.3,2.354-2.772,2.354a8.863,8.863,0,0,1-2.772-.418V14.118h-1.078v2.42a10.393,10.393,0,0,0,3.894.682c2.046,0,3.894-.66,3.894-3.388,0-3.872-6.38-2.882-6.38-5.786,0-1.43,1.3-2,2.75-2a6.142,6.142,0,0,1,2.354.44V8.156Zm12.43,7.5a5.73,5.73,0,0,1-2.134.528c-.638,0-1.056-.4-1.056-1.474v-8.4h2.926v-.99h-2.926V2.832h-1.232V5.318h-1.76v.99h1.76v8.426c0,1.8.9,2.486,2.112,2.486a6.915,6.915,0,0,0,2.618-.638Zm5.3.352h-1.65V7.958c.9-.528,2.9-1.87,4.026-1.87,1.276,0,1.5,1.144,1.5,2.948V17H256.1v-.99h-1.8V9.036c0-2.112-.132-3.938-2.4-3.938-1.3,0-3.5,1.474-4.334,2V.61h-2.684V1.6h1.474V16.01h-1.628V17h4.488Zm16.236-.484a8.979,8.979,0,0,1-3.5.7c-2.9,0-3.1-1.87-3.1-3.894v-.55c5.676-.022,6.842-.968,6.842-1.936V8.4c0-1.782-.33-3.3-2.816-3.3-3.674,0-5.236.33-5.236,4.906v2.244c0,3.19.748,4.972,4.312,4.972a10.187,10.187,0,0,0,3.784-.77Zm-.924-5.808c0,.682-1.386,1.254-5.676,1.3V9.784c0-3.564,1.21-3.74,4.114-3.74,1.364,0,1.562.924,1.562,2.42Zm7.348,6.292h-1.65V5.318H267.52v.99h1.5v9.7h-1.628V17h4.488Zm-1.65-13.4v-2h-1.21v2Zm5.39,2.794h-2.684V6.4h1.474V16.01h-1.65V17h4.488v-.99h-1.628V8c.7-.55,2.222-1.914,3.036-1.914.638,0,.682.462.726,1.166V8.09h1.078V7.254c0-1.364-.088-2.156-1.474-2.156-.968,0-2.75,1.518-3.366,2.046Zm21.274,10.6h-1.628V8.97c0-2.4-.748-3.872-3.63-3.872a10.722,10.722,0,0,0-3.586.682V8.2h1.078V6.506a9.465,9.465,0,0,1,2.486-.4c1.958,0,2.442.99,2.442,2.86v2.288a10.99,10.99,0,0,0-4.4-1.1c-1.98.088-2.486,1.474-2.486,3.52s.506,3.41,2.486,3.52a5.816,5.816,0,0,0,1.078-.044,13.421,13.421,0,0,0,3.322-1.144V17h2.838Zm-6.71-5.016a11.4,11.4,0,0,1,3.872,1.034v3.234a11,11,0,0,1-3.872,1.078c-1.43,0-1.782-1.078-1.782-2.662S288.75,10.994,290.18,10.994Zm12.078,5.016h-1.65V.61H297.9V1.6h1.5V16.01H297.77V17h4.488Zm6.622-.352a5.73,5.73,0,0,1-2.134.528c-.638,0-1.056-.4-1.056-1.474v-8.4h2.926v-.99H305.69V2.832h-1.232V5.318H302.7v.99h1.76v8.426c0,1.8.9,2.486,2.112,2.486a6.915,6.915,0,0,0,2.618-.638Zm9.24-.132a8.979,8.979,0,0,1-3.5.7c-2.9,0-3.1-1.87-3.1-3.894v-.55c5.676-.022,6.842-.968,6.842-1.936V8.4c0-1.782-.33-3.3-2.816-3.3-3.674,0-5.236.33-5.236,4.906v2.244c0,3.19.748,4.972,4.312,4.972a10.187,10.187,0,0,0,3.784-.77ZM317.2,9.718c0,.682-1.386,1.254-5.676,1.3V9.784c0-3.564,1.21-3.74,4.114-3.74,1.364,0,1.562.924,1.562,2.42Zm5.72-4.312h-2.684V6.4h1.474V16.01h-1.65V17h4.488v-.99h-1.628V8c.7-.55,2.222-1.914,3.036-1.914.638,0,.682.462.726,1.166V8.09h1.078V7.254c0-1.364-.088-2.156-1.474-2.156-.968,0-2.75,1.518-3.366,2.046ZM340.1,16.01H338.47V9.036c0-2.112-.132-3.938-2.4-3.938-1.3,0-3.5,1.474-4.334,2V5.318h-2.684v.99h1.474v9.7H328.9V17h4.488v-.99h-1.65V7.958c.9-.528,2.9-1.87,4.026-1.87,1.276,0,1.5,1.144,1.5,2.948V17H340.1Zm10.956,0h-1.628V8.97c0-2.4-.748-3.872-3.63-3.872a10.722,10.722,0,0,0-3.586.682V8.2h1.078V6.506a9.465,9.465,0,0,1,2.486-.4c1.958,0,2.442.99,2.442,2.86v2.288a10.99,10.99,0,0,0-4.4-1.1c-1.98.088-2.486,1.474-2.486,3.52s.506,3.41,2.486,3.52a5.816,5.816,0,0,0,1.078-.044,13.421,13.421,0,0,0,3.322-1.144V17h2.838Zm-6.71-5.016a11.4,11.4,0,0,1,3.872,1.034v3.234a11,11,0,0,1-3.872,1.078c-1.43,0-1.782-1.078-1.782-2.662S342.914,10.994,344.344,10.994Zm13.442,4.664a5.73,5.73,0,0,1-2.134.528c-.638,0-1.056-.4-1.056-1.474v-8.4h2.926v-.99H354.6V2.832h-1.232V5.318H351.6v.99h1.76v8.426c0,1.8.9,2.486,2.112,2.486a6.915,6.915,0,0,0,2.618-.638Zm5.3.352h-1.65V5.318h-2.706v.99h1.5v9.7H358.6V17h4.488Zm-1.65-13.4v-2h-1.21v2Zm5.984,2.706h-4.356v.99h1.672l3.41,10.868h.99l3.41-10.868h1.694v-.99h-4.356v.99h1.408l-2.64,9.13-2.662-9.13h1.43Zm15.664,10.208a8.979,8.979,0,0,1-3.5.7c-2.9,0-3.1-1.87-3.1-3.894v-.55c5.676-.022,6.842-.968,6.842-1.936V8.4c0-1.782-.33-3.3-2.816-3.3-3.674,0-5.236.33-5.236,4.906v2.244c0,3.19.748,4.972,4.312,4.972a10.187,10.187,0,0,0,3.784-.77Zm-.924-5.808c0,.682-1.386,1.254-5.676,1.3V9.784c0-3.564,1.21-3.74,4.114-3.74,1.364,0,1.562.924,1.562,2.42Zm12.386,6.292h-1.694v-9.7h2.508v-.99h-2.508V4.746c0-2.178.176-3.256,1.848-3.256a4.71,4.71,0,0,1,1.408.242l.264-.88A4.6,4.6,0,0,0,394.9.566c-2.4-.154-3.256.924-3.256,4.18v.572h-1.672v.99h1.672v9.7h-1.65V17h4.554Zm3.168-9.7v6.974c0,2.112.132,3.938,2.4,3.938a14.135,14.135,0,0,0,4.334-1.408V17h2.684v-.99h-1.474V5.318h-2.684v.99h1.474V15.02a14.832,14.832,0,0,1-4.026,1.254c-1.276,0-1.5-1.144-1.5-2.948V5.318h-2.684v.99Zm18.9,9.218a8.979,8.979,0,0,1-3.5.7c-2.9,0-3.1-1.87-3.1-3.894v-.55c5.676-.022,6.842-.968,6.842-1.936V8.4c0-1.782-.33-3.3-2.816-3.3-3.674,0-5.236.33-5.236,4.906v2.244c0,3.19.748,4.972,4.312,4.972a10.187,10.187,0,0,0,3.784-.77Zm-.924-5.808c0,.682-1.386,1.254-5.676,1.3V9.784c0-3.564,1.21-3.74,4.114-3.74,1.364,0,1.562.924,1.562,2.42Zm7.3,6.292h-1.65V.61h-2.706V1.6h1.5V16.01h-1.628V17h4.488Z" transform="translate(223.5 95.055)" fill="#fff"/>
        <circle id="Ellipse_431" data-name="Ellipse 431" cx="12" cy="12" r="12" transform="translate(187.5 94.055)" fill="#fff"/>
      </g>
    </g>
  </g>
</svg>
