<svg xmlns="http://www.w3.org/2000/svg" xmlns:xlink="http://www.w3.org/1999/xlink" width="1156" height="53" viewBox="0 0 1156 53">
  <defs>
    <clipPath id="clip-path">
      <rect id="Rectangle_675" data-name="Rectangle 675" width="58" height="58" rx="10" transform="translate(2.999 2.5)" fill="none" stroke="#fff" stroke-width="1"/>
    </clipPath>
    <clipPath id="clip-Legend01">
      <rect width="1156" height="53"/>
    </clipPath>
  </defs>
  <g id="Legend01" clip-path="url(#clip-Legend01)">
    <rect width="1156" height="53" fill="#222"/>
    <g id="Group_720" data-name="Group 720" transform="translate(-13 -12.5)">
      <g id="Group_717" data-name="Group 717" transform="translate(21.5 -4.055)">
        <path id="Path_972" data-name="Path 972" d="M5.632,16.01H3.806v-7L10.846,17H13.6v-.99H11.55L4.818,8.486l6.27-6.314h2.134v-.99h-2.75L3.806,8.024V2.172H5.632v-.99H.7v.99H2.53V16.01H.7V17H5.632Zm9.262-9.7v6.974c0,2.112.132,3.938,2.4,3.938a14.136,14.136,0,0,0,4.334-1.408V17H24.31v-.99H22.836V5.318H20.152v.99h1.474V15.02A14.832,14.832,0,0,1,17.6,16.274c-1.276,0-1.5-1.144-1.5-2.948V5.318H13.42v.99ZM26.73,7.8v-1.5H31.9l-6.754,9.7V17h8.228V14.514H32.3v1.5h-5.83l6.71-9.7v-.99H25.63V7.8ZM43.8,13.282V9.036c0-2.112-.132-3.938-2.4-3.938-1.232,0-3.322,1.276-4.246,1.936V.61H34.474V1.6h1.474V16.01H34.474V17h2.684V15.856A13.74,13.74,0,0,0,41.4,17.22C43.67,17.22,43.8,15.394,43.8,13.282Zm-1.21-4.29v4.334c0,1.8-.22,2.948-1.518,2.948a13.977,13.977,0,0,1-3.916-1.21V7.892c.924-.616,2.838-1.8,3.916-1.8C42.372,6.088,42.592,7.21,42.592,8.992ZM56.034,16.01H54.406V8.97c0-2.4-.748-3.872-3.63-3.872a10.722,10.722,0,0,0-3.586.682V8.2h1.078V6.506a9.464,9.464,0,0,1,2.486-.4c1.958,0,2.442.99,2.442,2.86v2.288a10.99,10.99,0,0,0-4.4-1.1c-1.98.088-2.486,1.474-2.486,3.52s.506,3.41,2.486,3.52a5.816,5.816,0,0,0,1.078-.044A13.421,13.421,0,0,0,53.2,16.01V17h2.838Zm-6.71-5.016A11.4,11.4,0,0,1,53.2,12.028v3.234a11,11,0,0,1-3.872,1.078c-1.43,0-1.782-1.078-1.782-2.662S47.894,10.994,49.324,10.994ZM64.856,8.156V5.736A9.16,9.16,0,0,0,61.38,5.1c-1.562,0-3.872.528-3.872,3.036,0,3.872,6.38,2.882,6.38,5.786,0,1.87-1.3,2.354-2.772,2.354a8.863,8.863,0,0,1-2.772-.418V14.118H57.266v2.42a10.393,10.393,0,0,0,3.894.682c2.046,0,3.894-.66,3.894-3.388,0-3.872-6.38-2.882-6.38-5.786,0-1.43,1.3-2,2.75-2a6.142,6.142,0,0,1,2.354.44V8.156Zm9.68,0V5.736A9.16,9.16,0,0,0,71.06,5.1c-1.562,0-3.872.528-3.872,3.036,0,3.872,6.38,2.882,6.38,5.786,0,1.87-1.3,2.354-2.772,2.354a8.864,8.864,0,0,1-2.772-.418V14.118H66.946v2.42a10.393,10.393,0,0,0,3.894.682c2.046,0,3.894-.66,3.894-3.388,0-3.872-6.38-2.882-6.38-5.786,0-1.43,1.3-2,2.75-2a6.142,6.142,0,0,1,2.354.44V8.156Z" transform="translate(234.5 31.555)" fill="#fff"/>
        <g id="Ellipse_430" data-name="Ellipse 430" transform="translate(174.5 18.055)" fill="#281807" stroke="#fff" stroke-width="2" stroke-dasharray="6">
          <circle cx="25" cy="25" r="25" stroke="none"/>
          <circle cx="25" cy="25" r="24" fill="none"/>
        </g>
      </g>
      <g id="Group_718" data-name="Group 718" transform="translate(208.5 -67.055)">
        <path id="Path_973" data-name="Path 973" d="M5.632,16.01H3.806v-7L10.846,17H13.6v-.99H11.55L4.818,8.486l6.27-6.314h2.134v-.99h-2.75L3.806,8.024V2.172H5.632v-.99H.7v.99H2.53V16.01H.7V17H5.632Zm16.7-.484a8.979,8.979,0,0,1-3.5.7c-2.9,0-3.1-1.87-3.1-3.894v-.55c5.676-.022,6.842-.968,6.842-1.936V8.4c0-1.782-.33-3.3-2.816-3.3-3.674,0-5.236.33-5.236,4.906v2.244c0,3.19.748,4.972,4.312,4.972a10.187,10.187,0,0,0,3.784-.77Zm-.924-5.808c0,.682-1.386,1.254-5.676,1.3V9.784c0-3.564,1.21-3.74,4.114-3.74,1.364,0,1.562.924,1.562,2.42ZM41.338,16.01H39.71V9.036c0-2.112-.132-3.938-2.4-3.938-1.166,0-3.146,1.386-4.026,1.98A2.064,2.064,0,0,0,31.02,5.1c-1.122,0-3.124,1.474-3.85,2V5.318h-2.9v.99h1.672v9.7H24.266V17h4.488v-.99H27.17V7.958c.792-.528,2.552-1.87,3.52-1.87,1.3,0,1.518,1.144,1.518,2.948V17h2.838v-.99H33.418V9.036c0-.4-.022-.792-.044-1.144.88-.572,2.618-1.8,3.608-1.8,1.3,0,1.518,1.144,1.518,2.948V17h2.838Zm9.35-.484a8.979,8.979,0,0,1-3.5.7c-2.9,0-3.1-1.87-3.1-3.894v-.55c5.676-.022,6.842-.968,6.842-1.936V8.4c0-1.782-.33-3.3-2.816-3.3-3.674,0-5.236.33-5.236,4.906v2.244c0,3.19.748,4.972,4.312,4.972a10.187,10.187,0,0,0,3.784-.77Zm-.924-5.808c0,.682-1.386,1.254-5.676,1.3V9.784c0-3.564,1.21-3.74,4.114-3.74,1.364,0,1.562.924,1.562,2.42Zm5.72-4.312H52.8V6.4h1.474V16.01h-1.65V17h4.488v-.99H55.484V8c.7-.55,2.222-1.914,3.036-1.914.638,0,.682.462.726,1.166V8.09h1.078V7.254c0-1.364-.088-2.156-1.474-2.156-.968,0-2.75,1.518-3.366,2.046ZM70.29,8.376c0-2.2-1.3-3.278-4.114-3.278s-4.114,1.078-4.114,3.278v5.566c0,2.2,1.3,3.278,4.114,3.278s4.114-1.078,4.114-3.278ZM69.08,13.92c0,1.5-.858,2.354-2.9,2.354-2.068,0-2.9-.858-2.9-2.354V8.376c0-1.5.836-2.332,2.9-2.332,2.046,0,2.9.836,2.9,2.332Zm6.6-8.6H71.324v.99H73l3.41,10.868h.99l3.41-10.868H82.5v-.99H78.144v.99h1.408l-2.64,9.13L74.25,6.308h1.43ZM91.762,8.376c0-2.2-1.3-3.278-4.114-3.278s-4.114,1.078-4.114,3.278v5.566c0,2.2,1.3,3.278,4.114,3.278s4.114-1.078,4.114-3.278Zm-1.21,5.544c0,1.5-.858,2.354-2.9,2.354-2.068,0-2.9-.858-2.9-2.354V8.376c0-1.5.836-2.332,2.9-2.332,2.046,0,2.9.836,2.9,2.332Zm15.29,3.3c3.982,0,5.874-1.408,5.874-5.764V6.726c0-4.334-1.892-5.764-5.874-5.764h-.33c-4.07,0-5.874,1.408-5.874,5.764v4.73c0,4.356,1.892,5.764,5.874,5.764Zm4.576-5.764c0,3.5-1.32,4.73-4.576,4.73h-.33c-3.256,0-4.576-1.232-4.576-4.73V6.726c0-3.476,1.21-4.73,4.576-4.73h.33c3.366,0,4.576,1.254,4.576,4.73ZM123,13.282V9.036c0-2.112-.132-3.938-2.4-3.938-1.232,0-3.322,1.276-4.246,1.936V.61h-2.684V1.6h1.474V16.01h-1.474V17h2.684V15.856A13.74,13.74,0,0,0,120.6,17.22C122.87,17.22,123,15.394,123,13.282Zm-1.21-4.29v4.334c0,1.8-.22,2.948-1.518,2.948a13.977,13.977,0,0,1-3.916-1.21V7.892c.924-.616,2.838-1.8,3.916-1.8C121.572,6.088,121.792,7.21,121.792,8.992Zm7.458,7.018H127.6V.61h-2.706V1.6h1.5V16.01h-1.628V17h4.488Zm11.22,0h-1.628V8.97c0-2.4-.748-3.872-3.63-3.872a10.722,10.722,0,0,0-3.586.682V8.2H132.7V6.506a9.464,9.464,0,0,1,2.486-.4c1.958,0,2.442.99,2.442,2.86v2.288a10.99,10.99,0,0,0-4.4-1.1c-1.98.088-2.486,1.474-2.486,3.52s.506,3.41,2.486,3.52a5.816,5.816,0,0,0,1.078-.044,13.421,13.421,0,0,0,3.322-1.144V17h2.838Zm-6.71-5.016a11.4,11.4,0,0,1,3.872,1.034v3.234a11,11,0,0,1-3.872,1.078c-1.43,0-1.782-1.078-1.782-2.662S132.33,10.994,133.76,10.994Zm15.532-2.838V5.736a9.16,9.16,0,0,0-3.476-.638c-1.562,0-3.872.528-3.872,3.036,0,3.872,6.38,2.882,6.38,5.786,0,1.87-1.3,2.354-2.772,2.354a8.863,8.863,0,0,1-2.772-.418V14.118H141.7v2.42a10.393,10.393,0,0,0,3.894.682c2.046,0,3.894-.66,3.894-3.388,0-3.872-6.38-2.882-6.38-5.786,0-1.43,1.3-2,2.75-2a6.142,6.142,0,0,1,2.354.44V8.156Zm7.788,7.5a5.73,5.73,0,0,1-2.134.528c-.638,0-1.056-.4-1.056-1.474v-8.4h2.926v-.99H153.89V2.832h-1.232V5.318H150.9v.99h1.76v8.426c0,1.8.9,2.486,2.112,2.486a6.915,6.915,0,0,0,2.618-.638Z" transform="translate(234.5 94.555)" fill="#fff"/>
        <g id="Ellipse_431" data-name="Ellipse 431" transform="translate(174.5 81.055)" fill="#482c0e" stroke="#fff" stroke-width="2" stroke-dasharray="6">
          <circle cx="25" cy="25" r="25" stroke="none"/>
          <circle cx="25" cy="25" r="24" fill="none"/>
        </g>
      </g>
      <g id="Group_719" data-name="Group 719" transform="translate(0.001)">
        <path id="Path_971" data-name="Path 971" d="M10.78-12.958v-2.6a8.769,8.769,0,0,0-3.19-.484H7.37c-4,0-5.918,1.408-5.918,5.764v4.73C1.452-1.188,3.366.22,7.37.22h.22a10.851,10.851,0,0,0,3.234-.462l-.242-1.034A9.479,9.479,0,0,1,7.59-.814H7.37C4.07-.814,2.75-2,2.75-5.544v-4.73C2.75-13.816,4.07-15,7.37-15h.22a9.159,9.159,0,0,1,2.068.22v1.826ZM20.856-8.624c0-2.2-1.3-3.278-4.114-3.278s-4.114,1.078-4.114,3.278v5.566c0,2.2,1.3,3.278,4.114,3.278s4.114-1.078,4.114-3.278ZM19.646-3.08c0,1.5-.858,2.354-2.9,2.354-2.068,0-2.9-.858-2.9-2.354V-8.624c0-1.5.836-2.332,2.9-2.332,2.046,0,2.9.836,2.9,2.332ZM33.088-.99H31.46V-8.03c0-2.4-.748-3.872-3.63-3.872a10.722,10.722,0,0,0-3.586.682V-8.8h1.078v-1.694a9.464,9.464,0,0,1,2.486-.4c1.958,0,2.442.99,2.442,2.86v2.288a10.99,10.99,0,0,0-4.4-1.1c-1.98.088-2.486,1.474-2.486,3.52S23.87.088,25.85.2A5.816,5.816,0,0,0,26.928.154,13.421,13.421,0,0,0,30.25-.99V0h2.838Zm-6.71-5.016A11.4,11.4,0,0,1,30.25-4.972v3.234A11,11,0,0,1,26.378-.66c-1.43,0-1.782-1.078-1.782-2.662S24.948-6.006,26.378-6.006ZM38.456-.99h-1.65v-15.4H34.1v.99h1.5V-.99H33.968V0h4.488Zm10.362,0H47.08l2.684-12.87L54.692.22H55.9L60.83-13.86,63.492-.99H61.8V0h4.928V-.99H64.79L61.71-14.828h1.782v-.99h-3.1L55.308-1.386,50.182-15.818h-3.1v.99h1.8L45.8-.99H43.89V0h4.928Zm23.012,0H70.18V-11.682H67.474v.99h1.5v9.7H67.342V0H71.83Zm-1.65-13.4v-2H68.97v2ZM83.908-.99H82.28V-7.964c0-2.112-.132-3.938-2.4-3.938-1.3,0-3.5,1.474-4.334,2v-1.782H72.864v.99h1.474v9.7H72.71V0H77.2V-.99h-1.65V-9.042c.9-.528,2.9-1.87,4.026-1.87,1.276,0,1.5,1.144,1.5,2.948V0h2.838Zm9.35-.484a8.979,8.979,0,0,1-3.5.7c-2.9,0-3.1-1.87-3.1-3.894v-.55C92.334-5.236,93.5-6.182,93.5-7.15V-8.6c0-1.782-.33-3.3-2.816-3.3-3.674,0-5.236.33-5.236,4.906v2.244c0,3.19.748,4.972,4.312,4.972a10.187,10.187,0,0,0,3.784-.77Zm-.924-5.808c0,.682-1.386,1.254-5.676,1.3V-7.216c0-3.564,1.21-3.74,4.114-3.74,1.364,0,1.562.924,1.562,2.42Z" transform="translate(74.643 44.5)" fill="#fff"/>
        <g id="Group_477" data-name="Group 477" transform="translate(44.698 51.465)">
          <path id="Polygon_12" data-name="Polygon 12" d="M1.855,0,3.71,3.139H0Z" transform="translate(5.177 6.512) rotate(-30)" fill="#fff"/>
          <path id="Polygon_13" data-name="Polygon 13" d="M1.786,0,3.573,3.126H0Z" transform="translate(9.96 6.443)" fill="#fff"/>
          <path id="Polygon_20" data-name="Polygon 20" d="M1.786,0,3.573,3.126H0Z" transform="translate(13.742 1.406) rotate(60)" fill="#fff"/>
          <path id="Polygon_14" data-name="Polygon 14" d="M2.168,0,4.336,3.669H0Z" transform="translate(16.19 2.164) rotate(30)" fill="#fff"/>
          <path id="Polygon_15" data-name="Polygon 15" d="M2.9,0l2.9,4.912H0Z" transform="translate(12.639 7.337)" fill="#fff"/>
          <path id="Polygon_16" data-name="Polygon 16" d="M1.116,0,2.233,1.786H0Z" transform="translate(9.927 3.25) rotate(41)" fill="#fff"/>
          <path id="Polygon_23" data-name="Polygon 23" d="M1.116,0,2.233,1.786H0Z" transform="translate(9.35 0) rotate(41)" fill="#fff"/>
          <path id="Polygon_17" data-name="Polygon 17" d="M1.661,0,3.322,2.658H0Z" transform="matrix(0.966, 0.259, -0.259, 0.966, 7.442, 8.822)" fill="#fff"/>
          <path id="Polygon_21" data-name="Polygon 21" d="M1.661,0,3.322,2.658H0Z" transform="matrix(0.966, 0.259, -0.259, 0.966, 3.545, 9.129)" fill="#fff"/>
          <path id="Polygon_18" data-name="Polygon 18" d="M1.116,0,2.233,1.786H0Z" transform="translate(14.099 5.537) rotate(41)" fill="#fff"/>
          <path id="Polygon_22" data-name="Polygon 22" d="M1.116,0,2.233,1.786H0Z" transform="translate(1.172 9.793) rotate(41)" fill="#fff"/>
          <path id="Polygon_19" data-name="Polygon 19" d="M1.116,0,2.233,1.786H0Z" transform="translate(11.597 9.436) rotate(41)" fill="#fff"/>
        </g>
        <g id="Mask_Group_58" data-name="Mask Group 58" transform="translate(10 10)" clip-path="url(#clip-path)">
          <g id="Group_476" data-name="Group 476" transform="translate(26.024 2.621) rotate(45)">
            <path id="Path_970" data-name="Path 970" d="M13,45.551v-34.5H0V0H28.134V45.551Z" transform="translate(0 0)" fill="#fff"/>
            <g id="Path_375" data-name="Path 375" transform="translate(28.127 0.001)" fill="#fff">
              <path d="M 8.776006698608398 10.55175876617432 L 0.4999977052211761 10.55175876617432 L 0.4999977052211761 1.308050036430359 L 8.776006698608398 10.55175876617432 Z" stroke="none"/>
              <path d="M 0.9999980926513672 2.61610221862793 L 0.9999980926513672 10.05175876617432 L 7.657234668731689 10.05175876617432 L 0.9999980926513672 2.61610221862793 M -1.9073486328125e-06 -9.5367431640625e-07 L 9.894777297973633 11.05175876617432 L -1.9073486328125e-06 11.05175876617432 L -1.9073486328125e-06 -9.5367431640625e-07 Z" stroke="none" fill="#fff"/>
            </g>
          </g>
        </g>
      </g>
    </g>
    <path id="Path_974" data-name="Path 974" d="M10.78,4.042v-2.6A8.769,8.769,0,0,0,7.59.962H7.37c-4,0-5.918,1.408-5.918,5.764v4.73c0,4.356,1.914,5.764,5.918,5.764h.22a10.851,10.851,0,0,0,3.234-.462l-.242-1.034a9.479,9.479,0,0,1-2.992.462H7.37c-3.3,0-4.62-1.188-4.62-4.73V6.726C2.75,3.184,4.07,2,7.37,2h.22a9.159,9.159,0,0,1,2.068.22V4.042ZM17.27,16.01H15.62V.61H12.914V1.6h1.5V16.01H12.782V17H17.27Zm5.368,0h-1.65V5.318H18.282v.99h1.5v9.7H18.15V17h4.488Zm-1.65-13.4v-2h-1.21v2ZM31.482,8V5.582a10.336,10.336,0,0,0-2.9-.484c-3.564,0-4.312,1.8-4.312,4.972v2.178c0,3.168.748,4.972,4.312,4.972a13.971,13.971,0,0,0,3.058-.4l-.11-.924a13.663,13.663,0,0,1-2.948.33c-2.882,0-3.1-1.848-3.1-3.894V9.982c0-2.046.22-3.894,3.1-3.894a8.643,8.643,0,0,1,1.826.22V8Zm5.984,8.008H35.838V11.082L40.832,17h2.244v-.99H41.47l-4.378-5.082,4.158-4.62h1.628v-.99H40.656l-4.818,5.456V.61H33.154V1.6h1.452V16.01H32.978V17h4.488ZM57.838,8.376c0-2.2-1.3-3.278-4.114-3.278S49.61,6.176,49.61,8.376v5.566c0,2.2,1.3,3.278,4.114,3.278s4.114-1.078,4.114-3.278Zm-1.21,5.544c0,1.5-.858,2.354-2.9,2.354-2.068,0-2.9-.858-2.9-2.354V8.376c0-1.5.836-2.332,2.9-2.332,2.046,0,2.9.836,2.9,2.332Zm14.278,2.09H69.278V9.036c0-2.112-.132-3.938-2.4-3.938-1.3,0-3.5,1.474-4.334,2V5.318H59.862v.99h1.474v9.7H59.708V17H64.2v-.99h-1.65V7.958c.9-.528,2.9-1.87,4.026-1.87,1.276,0,1.5,1.144,1.5,2.948V17h2.838Zm10.318,0h-1.65V5.318H76.868v.99h1.5v9.7H76.736V17h4.488Zm-1.65-13.4v-2h-1.21v2ZM90.068,8V5.582a10.336,10.336,0,0,0-2.9-.484c-3.564,0-4.312,1.8-4.312,4.972v2.178c0,3.168.748,4.972,4.312,4.972a13.971,13.971,0,0,0,3.058-.4l-.11-.924a13.663,13.663,0,0,1-2.948.33c-2.882,0-3.1-1.848-3.1-3.894V9.982c0-2.046.22-3.894,3.1-3.894a8.643,8.643,0,0,1,1.826.22V8Zm10.648.374c0-2.2-1.3-3.278-4.114-3.278s-4.114,1.078-4.114,3.278v5.566c0,2.2,1.3,3.278,4.114,3.278s4.114-1.078,4.114-3.278Zm-1.21,5.544c0,1.5-.858,2.354-2.9,2.354-2.068,0-2.9-.858-2.9-2.354V8.376c0-1.5.836-2.332,2.9-2.332,2.046,0,2.9.836,2.9,2.332Zm14.278,2.09h-1.628V9.036c0-2.112-.132-3.938-2.4-3.938-1.3,0-3.5,1.474-4.334,2V5.318H102.74v.99h1.474v9.7h-1.628V17h4.488v-.99h-1.65V7.958c.9-.528,2.9-1.87,4.026-1.87,1.276,0,1.5,1.144,1.5,2.948V17h2.838Zm8.822-7.854V5.736A9.16,9.16,0,0,0,119.13,5.1c-1.562,0-3.872.528-3.872,3.036,0,3.872,6.38,2.882,6.38,5.786,0,1.87-1.3,2.354-2.772,2.354a8.864,8.864,0,0,1-2.772-.418V14.118h-1.078v2.42a10.393,10.393,0,0,0,3.894.682c2.046,0,3.894-.66,3.894-3.388,0-3.872-6.38-2.882-6.38-5.786,0-1.43,1.3-2,2.75-2a6.142,6.142,0,0,1,2.354.44V8.156Zm12.43,7.5a5.73,5.73,0,0,1-2.134.528c-.638,0-1.056-.4-1.056-1.474v-8.4h2.926v-.99h-2.926V2.832h-1.232V5.318h-1.76v.99h1.76v8.426c0,1.8.9,2.486,2.112,2.486a6.915,6.915,0,0,0,2.618-.638Zm9.658-7.282c0-2.2-1.3-3.278-4.114-3.278s-4.114,1.078-4.114,3.278v5.566c0,2.2,1.3,3.278,4.114,3.278s4.114-1.078,4.114-3.278Zm-1.21,5.544c0,1.5-.858,2.354-2.9,2.354-2.068,0-2.9-.858-2.9-2.354V8.376c0-1.5.836-2.332,2.9-2.332,2.046,0,2.9.836,2.9,2.332Zm16.082-5.764V5.736A9.16,9.16,0,0,0,156.09,5.1c-1.562,0-3.872.528-3.872,3.036,0,3.872,6.38,2.882,6.38,5.786,0,1.87-1.3,2.354-2.772,2.354a8.863,8.863,0,0,1-2.772-.418V14.118h-1.078v2.42a10.393,10.393,0,0,0,3.894.682c2.046,0,3.894-.66,3.894-3.388,0-3.872-6.38-2.882-6.38-5.786,0-1.43,1.3-2,2.75-2a6.142,6.142,0,0,1,2.354.44V8.156Zm10.34,7.37a8.979,8.979,0,0,1-3.5.7c-2.9,0-3.1-1.87-3.1-3.894v-.55c5.676-.022,6.842-.968,6.842-1.936V8.4c0-1.782-.33-3.3-2.816-3.3-3.674,0-5.236.33-5.236,4.906v2.244c0,3.19.748,4.972,4.312,4.972a10.187,10.187,0,0,0,3.784-.77Zm-.924-5.808c0,.682-1.386,1.254-5.676,1.3V9.784c0-3.564,1.21-3.74,4.114-3.74,1.364,0,1.562.924,1.562,2.42ZM180.4,15.526a8.979,8.979,0,0,1-3.5.7c-2.9,0-3.1-1.87-3.1-3.894v-.55c5.676-.022,6.842-.968,6.842-1.936V8.4c0-1.782-.33-3.3-2.816-3.3-3.674,0-5.236.33-5.236,4.906v2.244c0,3.19.748,4.972,4.312,4.972a10.187,10.187,0,0,0,3.784-.77Zm-.924-5.808c0,.682-1.386,1.254-5.676,1.3V9.784c0-3.564,1.21-3.74,4.114-3.74,1.364,0,1.562.924,1.562,2.42Zm8.778-.682v4.246c0,2.112.132,3.938,2.4,3.938a13.933,13.933,0,0,0,4.246-1.364V17h2.684v-.99h-1.474V.61h-2.684V1.6H194.9V7.034c-.924-.66-3.036-1.936-4.246-1.936C188.386,5.1,188.254,6.924,188.254,9.036Zm1.21,4.29V8.992c0-1.782.22-2.9,1.518-2.9,1.056,0,2.992,1.188,3.916,1.8v7.172a14.2,14.2,0,0,1-3.916,1.21C189.684,16.274,189.464,15.13,189.464,13.326Zm17.644,2.2a8.979,8.979,0,0,1-3.5.7c-2.9,0-3.1-1.87-3.1-3.894v-.55c5.676-.022,6.842-.968,6.842-1.936V8.4c0-1.782-.33-3.3-2.816-3.3-3.674,0-5.236.33-5.236,4.906v2.244c0,3.19.748,4.972,4.312,4.972a10.187,10.187,0,0,0,3.784-.77Zm-.924-5.808c0,.682-1.386,1.254-5.676,1.3V9.784c0-3.564,1.21-3.74,4.114-3.74,1.364,0,1.562.924,1.562,2.42Zm7.436,6.292h-1.694v-9.7h2.508v-.99h-2.508V4.746c0-2.178.176-3.256,1.848-3.256a4.71,4.71,0,0,1,1.408.242l.264-.88a4.6,4.6,0,0,0-1.474-.286c-2.4-.154-3.256.924-3.256,4.18v.572h-1.672v.99h1.672v9.7h-1.65V17h4.554Zm10.824-7.634c0-2.2-1.3-3.278-4.114-3.278s-4.114,1.078-4.114,3.278v5.566c0,2.2,1.3,3.278,4.114,3.278s4.114-1.078,4.114-3.278Zm-1.21,5.544c0,1.5-.858,2.354-2.9,2.354-2.068,0-2.9-.858-2.9-2.354V8.376c0-1.5.836-2.332,2.9-2.332,2.046,0,2.9.836,2.9,2.332Zm5.94-8.514H226.49V6.4h1.474V16.01h-1.65V17H230.8v-.99h-1.628V8c.7-.55,2.222-1.914,3.036-1.914.638,0,.682.462.726,1.166V8.09h1.078V7.254c0-1.364-.088-2.156-1.474-2.156-.968,0-2.75,1.518-3.366,2.046Zm14.388,10.12a8.979,8.979,0,0,1-3.5.7c-2.9,0-3.1-1.87-3.1-3.894v-.55c5.676-.022,6.842-.968,6.842-1.936V8.4c0-1.782-.33-3.3-2.816-3.3-3.674,0-5.236.33-5.236,4.906v2.244c0,3.19.748,4.972,4.312,4.972a10.187,10.187,0,0,0,3.784-.77Zm-.924-5.808c0,.682-1.386,1.254-5.676,1.3V9.784c0-3.564,1.21-3.74,4.114-3.74,1.364,0,1.562.924,1.562,2.42Zm10.8-1.562V5.736a9.16,9.16,0,0,0-3.476-.638c-1.562,0-3.872.528-3.872,3.036,0,3.872,6.38,2.882,6.38,5.786,0,1.87-1.3,2.354-2.772,2.354a8.863,8.863,0,0,1-2.772-.418V14.118H245.85v2.42a10.393,10.393,0,0,0,3.894.682c2.046,0,3.894-.66,3.894-3.388,0-3.872-6.38-2.882-6.38-5.786,0-1.43,1.3-2,2.75-2a6.142,6.142,0,0,1,2.354.44V8.156Zm7.788,7.5a5.73,5.73,0,0,1-2.134.528c-.638,0-1.056-.4-1.056-1.474v-8.4h2.926v-.99h-2.926V2.832h-1.232V5.318h-1.76v.99h1.76v8.426c0,1.8.9,2.486,2.112,2.486a6.915,6.915,0,0,0,2.618-.638Zm11.154.352h-1.628V8.97c0-2.4-.748-3.872-3.63-3.872a10.722,10.722,0,0,0-3.586.682V8.2h1.078V6.506a9.465,9.465,0,0,1,2.486-.4c1.958,0,2.442.99,2.442,2.86v2.288a10.99,10.99,0,0,0-4.4-1.1c-1.98.088-2.486,1.474-2.486,3.52s.506,3.41,2.486,3.52a5.816,5.816,0,0,0,1.078-.044,13.421,13.421,0,0,0,3.322-1.144V17h2.838Zm-6.71-5.016a11.4,11.4,0,0,1,3.872,1.034v3.234a11,11,0,0,1-3.872,1.078c-1.43,0-1.782-1.078-1.782-2.662S264.242,10.994,265.672,10.994Zm13.442,4.664a5.73,5.73,0,0,1-2.134.528c-.638,0-1.056-.4-1.056-1.474v-8.4h2.926v-.99h-2.926V2.832h-1.232V5.318h-1.76v.99h1.76v8.426c0,1.8.9,2.486,2.112,2.486a6.915,6.915,0,0,0,2.618-.638Zm5.3.352h-1.65V5.318H280.06v.99h1.5v9.7h-1.628V17h4.488Zm-1.65-13.4v-2h-1.21v2Zm11.506,5.764c0-2.2-1.3-3.278-4.114-3.278s-4.114,1.078-4.114,3.278v5.566c0,2.2,1.3,3.278,4.114,3.278s4.114-1.078,4.114-3.278Zm-1.21,5.544c0,1.5-.858,2.354-2.9,2.354-2.068,0-2.9-.858-2.9-2.354V8.376c0-1.5.836-2.332,2.9-2.332,2.046,0,2.9.836,2.9,2.332Zm14.278,2.09h-1.628V9.036c0-2.112-.132-3.938-2.4-3.938-1.3,0-3.5,1.474-4.334,2V5.318H296.3v.99h1.474v9.7h-1.628V17h4.488v-.99h-1.65V7.958c.9-.528,2.9-1.87,4.026-1.87,1.276,0,1.5,1.144,1.5,2.948V17h2.838Zm10.406,0h-1.694v-9.7h2.508v-.99h-2.508V4.746c0-2.178.176-3.256,1.848-3.256a4.71,4.71,0,0,1,1.408.242l.264-.88A4.6,4.6,0,0,0,318.1.566c-2.4-.154-3.256.924-3.256,4.18v.572H313.17v.99h1.672v9.7h-1.65V17h4.554Zm4.906-10.6h-2.684V6.4h1.474V16.01h-1.65V17h4.488v-.99h-1.628V8c.7-.55,2.222-1.914,3.036-1.914.638,0,.682.462.726,1.166V8.09h1.078V7.254c0-1.364-.088-2.156-1.474-2.156-.968,0-2.75,1.518-3.366,2.046Zm14.806,2.97c0-2.2-1.3-3.278-4.114-3.278s-4.114,1.078-4.114,3.278v5.566c0,2.2,1.3,3.278,4.114,3.278s4.114-1.078,4.114-3.278Zm-1.21,5.544c0,1.5-.858,2.354-2.9,2.354-2.068,0-2.9-.858-2.9-2.354V8.376c0-1.5.836-2.332,2.9-2.332,2.046,0,2.9.836,2.9,2.332ZM356.4,16.01h-1.628V9.036c0-2.112-.132-3.938-2.4-3.938-1.166,0-3.146,1.386-4.026,1.98a2.064,2.064,0,0,0-2.266-1.98c-1.122,0-3.124,1.474-3.85,2V5.318h-2.9v.99H341v9.7h-1.672V17h4.488v-.99h-1.584V7.958c.792-.528,2.552-1.87,3.52-1.87,1.3,0,1.518,1.144,1.518,2.948V17h2.838v-.99H348.48V9.036c0-.4-.022-.792-.044-1.144.88-.572,2.618-1.8,3.608-1.8,1.3,0,1.518,1.144,1.518,2.948V17H356.4Zm10.8,0h-1.628V1.182h-2.86V2.26H364.3V16.01h-1.584V17H367.2Zm3.5,1.232c6.006-2.024,9.108-5.236,9.394-10.186,0-.132.022-.264.022-.4V5.692c0-3.124-1.826-4.752-5.676-4.752h-.154c-3.85,0-5.676,1.628-5.676,4.752V6.66c0,3.212,1.738,4.752,5.412,4.752h.154a6.431,6.431,0,0,0,4.2-1.342c-1.386,2.9-3.894,4.884-8.03,6.27Zm3.74-15.268c3.168,0,4.422,1.386,4.422,3.718v.946c0,2.508-1.254,3.74-4.422,3.74h-.154c-3.19,0-4.422-1.232-4.422-3.74V5.692c0-2.332,1.254-3.718,4.422-3.718ZM389.048,17.2c3.564,0,5.214-.88,5.214-4.642,0-2.948-1.056-3.916-2.64-4.246,1.056-.33,2.068-1.188,2.068-3.41V4.812c0-2.86-1.3-3.85-4.642-3.85H387.42c-3.366,0-4.642.99-4.642,3.85V4.9c0,2.178.836,3.08,2.068,3.41-1.584.33-2.64,1.3-2.64,4.246,0,3.762,1.65,4.642,5.214,4.642Zm-1.65-1.012c-2.794,0-3.938-.7-3.938-3.63,0-2.684.638-3.718,3.938-3.718h1.65c3.322,0,3.96,1.034,3.96,3.718,0,2.926-1.166,3.63-3.96,3.63Zm1.65-14.234c2.552,0,3.432.7,3.432,2.882,0,2.222-.968,2.948-3.432,2.948H387.4c-2.442,0-3.41-.726-3.41-2.948,0-2.178.88-2.882,3.432-2.882Zm18.26,14.058H405.68v-2.4h2.178V12.578H405.68v-3.7h-1.232v3.7h-7.282l8.954-11.4H404.6l-8.932,11.4v1.034h8.778v2.4H402.82V17h4.488Zm12.342-.352a5.73,5.73,0,0,1-2.134.528c-.638,0-1.056-.4-1.056-1.474v-8.4h2.926v-.99H416.46V2.832h-1.232V5.318h-1.76v.99h1.76v8.426c0,1.8.9,2.486,2.112,2.486a6.915,6.915,0,0,0,2.618-.638Zm9.658-7.282c0-2.2-1.3-3.278-4.114-3.278s-4.114,1.078-4.114,3.278v5.566c0,2.2,1.3,3.278,4.114,3.278s4.114-1.078,4.114-3.278ZM428.1,13.92c0,1.5-.858,2.354-2.9,2.354-2.068,0-2.9-.858-2.9-2.354V8.376c0-1.5.836-2.332,2.9-2.332,2.046,0,2.9.836,2.9,2.332ZM438.68,4.306V2.524a13.988,13.988,0,0,1,3.96-.572c2.86,0,3.806,1.21,3.806,3.322,0,2.75-3.5,5.368-9.548,10.648V17h11.044V14.228H446.82v1.694H438.5c5.522-4.84,9.218-7.37,9.218-10.626,0-2.838-1.5-4.356-5.126-4.356a19.322,19.322,0,0,0-5.038.77v2.6ZM456.258,17.22h.154c3.85,0,5.676-2.266,5.676-6.072V7.012c0-4.026-1.826-6.072-5.676-6.072h-.154c-3.85,0-5.676,2.046-5.676,6.072v4.136C450.582,14.954,452.408,17.22,456.258,17.22Zm0-1.034c-3.124,0-4.4-1.936-4.4-5.038V7.012c0-3.366,1.276-5.06,4.4-5.06h.154c3.124,0,4.4,1.694,4.4,5.06v4.136c0,3.1-1.276,5.038-4.4,5.038Zm10.208-11.88V2.524a13.988,13.988,0,0,1,3.96-.572c2.86,0,3.806,1.21,3.806,3.322,0,2.75-3.5,5.368-9.548,10.648V17h11.044V14.228h-1.122v1.694H466.29c5.522-4.84,9.218-7.37,9.218-10.626,0-2.838-1.5-4.356-5.126-4.356a19.322,19.322,0,0,0-5.038.77v2.6ZM484.044,17.22h.154c3.85,0,5.676-2.266,5.676-6.072V7.012c0-4.026-1.826-6.072-5.676-6.072h-.154c-3.85,0-5.676,2.046-5.676,6.072v4.136C478.368,14.954,480.194,17.22,484.044,17.22Zm0-1.034c-3.124,0-4.4-1.936-4.4-5.038V7.012c0-3.366,1.276-5.06,4.4-5.06h.154c3.124,0,4.4,1.694,4.4,5.06v4.136c0,3.1-1.276,5.038-4.4,5.038Z" transform="translate(659 15)" fill="#fff"/>
  </g>
</svg>
