<svg xmlns="http://www.w3.org/2000/svg" xmlns:xlink="http://www.w3.org/1999/xlink" width="210" height="297" viewBox="0 0 210 297">
  <defs>
    <clipPath id="clip-o_1">
      <rect width="210" height="297"/>
    </clipPath>
  </defs>
  <g id="o_1" data-name="o – 1" clip-path="url(#clip-o_1)">
    <rect width="210" height="297" fill="#90030a"/>
    <path id="Path_450" data-name="Path 450" d="M90,215.275V200H110.45a7.2,7.2,0,0,0,4.23-1.527,18.387,18.387,0,0,0,3.76-3.643,20.742,20.742,0,0,0,2.7-4.583A11.282,11.282,0,0,0,122.2,185.9V52.185a6.863,6.863,0,0,0-1.292-3.643,23.541,23.541,0,0,0-6.815-6.815,6.863,6.863,0,0,0-3.643-1.292H90V25.16h-51.7V40.435H18.8a6.863,6.863,0,0,0-3.642,1.292,23.541,23.541,0,0,0-6.815,6.815A6.863,6.863,0,0,0,7.05,52.185V190.6q0,3.995,4.112,6.7A14.141,14.141,0,0,0,18.8,200H38.305v15.275ZM70.735,85.32v69.56q0,3.29-1.645,4.348a7.7,7.7,0,0,1-4.23,1.057,8.964,8.964,0,0,1-3.995-1.057,3.938,3.938,0,0,1-2.115-3.878V85.085q0-3.76,1.762-4.465a11.751,11.751,0,0,1,4.348-.7Q70.735,79.915,70.735,85.32Z" transform="translate(40.5 30.5)" fill="none" stroke="#fff" stroke-width="0.2"/>
    <path id="Path_451" data-name="Path 451" d="M99.58,237.9V221H122.2a7.962,7.962,0,0,0,4.68-1.69,20.344,20.344,0,0,0,4.16-4.03,22.948,22.948,0,0,0,2.99-5.07,12.482,12.482,0,0,0,1.17-4.81V57.46a7.593,7.593,0,0,0-1.43-4.03,26.045,26.045,0,0,0-7.54-7.54,7.593,7.593,0,0,0-4.03-1.43H99.58V27.56H42.38v16.9H20.8a7.593,7.593,0,0,0-4.03,1.43,26.045,26.045,0,0,0-7.54,7.54A7.593,7.593,0,0,0,7.8,57.46V210.6q0,4.42,4.55,7.41A15.645,15.645,0,0,0,20.8,221H42.38v16.9ZM78.26,94.12v76.96q0,3.64-1.82,4.81a8.515,8.515,0,0,1-4.68,1.17,9.918,9.918,0,0,1-4.42-1.17A4.357,4.357,0,0,1,65,171.6V93.86q0-4.16,1.95-4.94a13,13,0,0,1,4.81-.78Q78.26,88.14,78.26,94.12Z" transform="translate(34.5 17.5)" fill="none" stroke="#fff" stroke-width="0.2"/>
    <path id="Path_448" data-name="Path 448" d="M111.07,264.85V246H136.3a8.881,8.881,0,0,0,5.22-1.885,22.691,22.691,0,0,0,4.64-4.5,25.6,25.6,0,0,0,3.335-5.655,13.922,13.922,0,0,0,1.3-5.365V63.59a8.469,8.469,0,0,0-1.595-4.495,29.05,29.05,0,0,0-8.41-8.41,8.469,8.469,0,0,0-4.495-1.6H111.07V30.24H47.27V49.09H23.2a8.469,8.469,0,0,0-4.495,1.6A29.05,29.05,0,0,0,10.3,59.1,8.469,8.469,0,0,0,8.7,63.59V234.4q0,4.93,5.075,8.265T23.2,246H47.27v18.85ZM87.29,104.48v85.84q0,4.06-2.03,5.365a9.5,9.5,0,0,1-5.22,1.305,11.062,11.062,0,0,1-4.93-1.305q-2.61-1.3-2.61-4.785V104.19q0-4.64,2.175-5.51a14.5,14.5,0,0,1,5.365-.87Q87.29,97.81,87.29,104.48Z" transform="translate(25.5 2.5)" fill="none" stroke="#fff" stroke-width="0.2"/>
    <path id="Path_449" data-name="Path 449" d="M124.475,297.125V276H152.75a9.953,9.953,0,0,0,5.85-2.112,25.431,25.431,0,0,0,5.2-5.038,28.685,28.685,0,0,0,3.738-6.337A15.6,15.6,0,0,0,169,256.5V71.575a9.491,9.491,0,0,0-1.787-5.038,32.557,32.557,0,0,0-9.425-9.425,9.491,9.491,0,0,0-5.038-1.788H124.475V34.2h-71.5V55.325H26a9.491,9.491,0,0,0-5.038,1.788,32.557,32.557,0,0,0-9.425,9.425A9.491,9.491,0,0,0,9.75,71.575V263q0,5.525,5.688,9.263T26,276H52.975v21.125ZM97.825,117.4v96.2q0,4.55-2.275,6.012a10.644,10.644,0,0,1-5.85,1.462,12.4,12.4,0,0,1-5.525-1.462q-2.925-1.463-2.925-5.363V117.075q0-5.2,2.438-6.175a16.251,16.251,0,0,1,6.012-.975Q97.825,109.925,97.825,117.4Z" transform="translate(16.5 -14.5)" fill="none" stroke="#fff" stroke-width="1"/>
    <path id="Path_103" data-name="Path 103" d="M17075-18375l210.1,297.4H17075Z" transform="translate(17285.104 -18077.598) rotate(180)" fill="#272727" style="mix-blend-mode: overlay;isolation: isolate"/>
    <path id="Path_452" data-name="Path 452" d="M82.345,196.975V183H101.05a6.584,6.584,0,0,0,3.87-1.4,16.823,16.823,0,0,0,3.44-3.332,18.976,18.976,0,0,0,2.473-4.193,10.321,10.321,0,0,0,.967-3.977V47.765a6.279,6.279,0,0,0-1.182-3.333,21.538,21.538,0,0,0-6.235-6.235,6.279,6.279,0,0,0-3.332-1.182H82.345V23.04h-47.3V37.015H17.2A6.279,6.279,0,0,0,13.867,38.2a21.538,21.538,0,0,0-6.235,6.235A6.279,6.279,0,0,0,6.45,47.765V174.4q0,3.655,3.762,6.128A12.937,12.937,0,0,0,17.2,183H35.045v13.975ZM64.715,78.08v63.64q0,3.01-1.5,3.977a7.041,7.041,0,0,1-3.87.968,8.2,8.2,0,0,1-3.655-.968,3.6,3.6,0,0,1-1.935-3.548V77.865q0-3.44,1.612-4.085a10.751,10.751,0,0,1,3.978-.645Q64.715,73.135,64.715,78.08Z" transform="translate(46.5 40.5)" fill="none" stroke="#fff" stroke-width="0.2"/>
    <path id="Path_453" data-name="Path 453" d="M76.6,183V170H94a6.125,6.125,0,0,0,3.6-1.3,15.649,15.649,0,0,0,3.2-3.1,17.652,17.652,0,0,0,2.3-3.9,9.6,9.6,0,0,0,.9-3.7V44.2a5.841,5.841,0,0,0-1.1-3.1,20.035,20.035,0,0,0-5.8-5.8A5.841,5.841,0,0,0,94,34.2H76.6v-13h-44v13H16a5.841,5.841,0,0,0-3.1,1.1,20.035,20.035,0,0,0-5.8,5.8A5.841,5.841,0,0,0,6,44.2V162q0,3.4,3.5,5.7A12.035,12.035,0,0,0,16,170H32.6v13ZM60.2,72.4v59.2q0,2.8-1.4,3.7a6.55,6.55,0,0,1-3.6.9,7.629,7.629,0,0,1-3.4-.9A3.352,3.352,0,0,1,50,132V72.2q0-3.2,1.5-3.8a10,10,0,0,1,3.7-.6Q60.2,67.8,60.2,72.4Z" transform="translate(50 48)" fill="#90030a" style="mix-blend-mode: color-dodge;isolation: isolate"/>
    <g id="Rectangle_363" data-name="Rectangle 363" transform="translate(2 2)" fill="none" stroke="#fff" stroke-width="5" style="mix-blend-mode: overlay;isolation: isolate">
      <rect width="206" height="293" stroke="none"/>
      <rect x="2.5" y="2.5" width="201" height="288" fill="none"/>
    </g>
    <g id="Rectangle_372" data-name="Rectangle 372" transform="translate(9 9)" fill="none" stroke="#fff" stroke-width="1" style="mix-blend-mode: overlay;isolation: isolate">
      <rect width="192" height="279" stroke="none"/>
      <rect x="0.5" y="0.5" width="191" height="278" fill="none"/>
    </g>
  </g>
</svg>
